#N canvas 114 51 837 614 8;
#X declare -lib zexy;
#X declare -lib cyclone;
#X obj 0 0 cnv 15 825 600 empty empty empty 20 12 0 8 #404040 #404040 0;
#N canvas 858 207 442 395 out 0;
#X obj 163 70 env~;
#X obj 251 38 - 100;
#X obj 15 55 dac~;
#X obj 54 26 catch~ filter;
#X obj 131 135 vu 19 200 empty output\ signal -25 -16 0 12 #ffffff #ffffff 1 0;
#X obj 251 185 tabwrite~ out;
#X obj 315 135 metro 20;
#X obj 324 99 loadbang;
#X connect 0 0 1 0;
#X connect 1 0 4 0;
#X connect 3 0 0 0;
#X connect 3 0 2 0;
#X connect 3 0 2 1;
#X connect 3 0 5 0;
#X connect 6 0 5 0;
#X connect 7 0 6 0;
#X coords 0 -1 1 1 100 250 2 100 100;
#X restore 671 87 pd out;
#X obj 495 435 cnv 19 150 150 empty empty empty 20 12 0 12 #ffffff #404040 0;
#N canvas 655 289 231 225 onoff 0;
#X obj 101 100 tgl 19 0 empty empty empty 0 -10 0 12 #fcfcfc #000000 #000000 0 1;
#X floatatom 83 140 5 0 0 0 - - - 0;
#X msg 81 174 \; pd dsp \$1;
#X obj 140 56 loadbang;
#X connect 0 0 1 0;
#X connect 1 0 2 0;
#X connect 3 0 0 0;
#X coords 0 -1 1 1 20 20 2 100 100;
#X restore 661 391 pd onoff;
#X obj 239 89 cnv 19 200 140 empty empty empty 20 12 0 12 #ffffff #404040 0;
#X obj 182 435 cnv 19 150 150 empty empty empty 20 12 0 12 #ffffff #404040 0;
#X obj 339 435 cnv 19 150 150 empty empty empty 20 12 0 12 #ffffff #404040 0;
#X obj 653 435 cnv 19 150 150 empty empty empty 20 12 0 12 #ffffff #404040 0;
#X obj 25 89 cnv 15 200 140 empty empty empty 20 12 0 8 #ffffff #404040 0;
#N canvas 875 242 450 278 (subpatch) 0;
#X array scope 300 float 1;
#A 0 1 1 1 1 1 1 1 1 1 1 1 1 1 1 1 1 1 1 1 1 1 1 1 1 1 1 1 1 1 1 1 1 1 1 1 1 1 1 1 1 1 1 1 1 1 1 1 1 1 1 1 1 1 1 1 1 1 1 1 1 1 1 1 1 1 1 1 1 1 1 1 1 1 1 1 1 1 1 1 1 1 1 1 1 1 1 1 1 1 1 1 1 1 1 1 1 1 1 1 1 1 1 1 1 1 1 1 1 1 1 1 1 1 1 1 1 1 1 1 1 1 1 1 1 1 1 1 1 1 1 1 1 1 1 1 1 1 1 1 1 1 1 1 1 1 1 1 1 1 1 1 1 1 1 1 1 1 1 1 1 1 1 1 1 1 1 1 1 1 1 1 1 1 1 1 1 1 1 1 1 1 1 1 1 1 1 1 1 1 1 1 1 1 1 1 1 1 1 1 1 1 1 1 1 1 1 1 1 1 1 1 1 1 1 1 1 1 1 1 1 1 1 1 1 1 1 1 1 1 1 1 1 1 1 1 1 1 1 1 1 1 1 1 1 1 1 1 1 1 1 1 1 1 1 1 1 1 1 1 1 1 1 1 1 1 1 1 1 1 1 1 1 1 1 1 1 1 1 1 1 1 1 1 1 1 1 1 1 1 1 1 1 1 1 1 1 1 1 1 1;
#X msg 210 10 \; ADSR normalize;
#X coords 0 1 299 -1 200 140 1 0 0;
#X restore 25 89 graph;
#X obj 331 12 cnv 15 100 60 empty empty empty 20 12 0 8 #ffffff #ffffff 0;
#X obj 334 15 cnv 15 94 54 empty empty wave\ selection 15 12 0 8 #404040 #ffffff 0;
#N canvas 400 135 496 462 wave 0;
#X obj 100 101 hradio 19 1 1 3 empty empty empty 0 -10 0 12 #ffffff #606060 #000000 0;
#N canvas 137 51 1108 695 tr 0;
#X obj 42 185 line~;
#X obj 51 70 bng 19 250 50 0 empty empty empty 0 -10 0 12 #fcfcfc #000000 #000000;
#X obj 186 642 outlet~;
#X obj 362 640 tabwrite~ wave;
#X obj 363 618 metro 20;
#X msg 153 431 \$1 20;
#X floatatom 545 39 5 0 0 0 - - - 0;
#X obj 234 316 *~;
#X obj 383 324 *~;
#X obj 535 328 *~;
#X obj 692 322 *~;
#X obj 842 335 *~;
#X obj 991 342 *~;
#X obj 236 349 vsl 19 162 0 0.5 0 0 empty fund empty 0 -9 0 12 #fcfcfc #000000 #000000 0 1;
#X obj 385 353 vsl 19 162 0 0.5 0 0 empty harm1 empty 0 -9 0 12 #fcfcfc #000000 #000000 0 1;
#X obj 537 356 vsl 19 162 0 0.5 0 0 empty harm2 empty 0 -9 0 12 #fcfcfc #000000 #000000 0 1;
#X obj 693 356 vsl 19 162 0 0.5 0 0 empty harm3 empty 0 -9 0 12 #fcfcfc #000000 #000000 0 1;
#X obj 844 367 vsl 19 162 0 0.5 0 0 empty harm4 empty 0 -9 0 12 #fcfcfc #000000 #000000 0 1;
#X obj 994 371 vsl 19 162 0 0.5 0 0 empty harm5 empty 0 -9 0 12 #fcfcfc #000000 #000000 0 1;
#X obj 252 78 * 1;
#X obj 383 82 * 2;
#X obj 527 76 * 3;
#X obj 676 74 * 4;
#X obj 838 81 * 5;
#X obj 962 81 * 6;
#X obj 255 558 *~;
#X obj 251 591 clip~ -1 1;
#X obj 196 127 phasor~;
#X obj 272 105 *~ -1;
#X obj 265 130 phasor~;
#X obj 197 152 -~ 0.5;
#X obj 199 184 *~ 2;
#X obj 199 217 clip~ 0 1;
#X obj 269 155 -~ 0.5;
#X obj 269 187 *~ 2;
#X obj 269 218 clip~ 0 1;
#X obj 232 256 +~;
#X obj 233 289 -~ 0.5;
#X obj 345 129 phasor~;
#X obj 421 107 *~ -1;
#X obj 414 132 phasor~;
#X obj 346 154 -~ 0.5;
#X obj 348 186 *~ 2;
#X obj 348 219 clip~ 0 1;
#X obj 418 157 -~ 0.5;
#X obj 418 189 *~ 2;
#X obj 418 220 clip~ 0 1;
#X obj 381 258 +~;
#X obj 382 291 -~ 0.5;
#X obj 499 129 phasor~;
#X obj 575 107 *~ -1;
#X obj 568 132 phasor~;
#X obj 500 154 -~ 0.5;
#X obj 502 186 *~ 2;
#X obj 502 219 clip~ 0 1;
#X obj 572 157 -~ 0.5;
#X obj 572 189 *~ 2;
#X obj 572 220 clip~ 0 1;
#X obj 535 258 +~;
#X obj 536 291 -~ 0.5;
#X obj 650 130 phasor~;
#X obj 726 108 *~ -1;
#X obj 719 133 phasor~;
#X obj 651 155 -~ 0.5;
#X obj 653 187 *~ 2;
#X obj 653 220 clip~ 0 1;
#X obj 723 158 -~ 0.5;
#X obj 723 190 *~ 2;
#X obj 723 221 clip~ 0 1;
#X obj 686 259 +~;
#X obj 687 292 -~ 0.5;
#X obj 802 133 phasor~;
#X obj 878 111 *~ -1;
#X obj 871 136 phasor~;
#X obj 803 158 -~ 0.5;
#X obj 805 190 *~ 2;
#X obj 805 223 clip~ 0 1;
#X obj 875 161 -~ 0.5;
#X obj 875 193 *~ 2;
#X obj 875 224 clip~ 0 1;
#X obj 838 262 +~;
#X obj 839 295 -~ 0.5;
#X obj 950 118 phasor~;
#X obj 1026 96 *~ -1;
#X obj 1019 121 phasor~;
#X obj 951 143 -~ 0.5;
#X obj 953 175 *~ 2;
#X obj 953 208 clip~ 0 1;
#X obj 1023 146 -~ 0.5;
#X obj 1023 178 *~ 2;
#X obj 1023 209 clip~ 0 1;
#X obj 986 247 +~;
#X obj 987 280 -~ 0.5;
#X obj 144 193 loadbang;
#X obj 553 13 r mtof;
#X obj 300 6 catch~ ADSR;
#X msg 47 149 1 \, 0 2000;
#X msg 159 397 1;
#X msg 159 220 1;
#X text 56 121 From 1 to 0 in 2000 ms;
#X text 199 41 Fundamental frequency;
#X text 719 44 From *2 to *6 are the harmonics;
#X text 531 578 A triangle wave can also be quite simply generated with only a few harmonics. The shape of a triangle wave is made using only the odd harmonics (1 \, 3 \, 5 \, 7 \, etc). Zeros are used for the amplitude of the even harmonics (2 \, 4 \, 6 \, 8 \, etc). Then 1 is divided by the square of each of those harmonics (i.e. 1/h2). Finally \, the amplitude of every other harmonic is multiplied by -1 (i.e. the amplitudes of the third \, seventh \, ninth \, etc harmonics). The triangle wave takes shape very quickly with only four harmonics \, and as more harmonics are added \, the points of the triangle become sharper., f 81;
#X text 350 22 From ADSR patch;
#X connect 0 0 25 1;
#X connect 1 0 96 0;
#X connect 4 0 3 0;
#X connect 5 0 0 0;
#X connect 6 0 19 0;
#X connect 6 0 20 0;
#X connect 6 0 21 0;
#X connect 6 0 23 0;
#X connect 6 0 24 0;
#X connect 6 0 1 0;
#X connect 6 0 22 0;
#X connect 7 0 25 0;
#X connect 8 0 25 0;
#X connect 9 0 25 0;
#X connect 10 0 25 0;
#X connect 11 0 25 0;
#X connect 12 0 25 0;
#X connect 13 0 7 1;
#X connect 14 0 8 1;
#X connect 15 0 9 1;
#X connect 16 0 10 1;
#X connect 17 0 11 1;
#X connect 18 0 12 1;
#X connect 19 0 28 0;
#X connect 19 0 27 0;
#X connect 20 0 38 0;
#X connect 20 0 39 0;
#X connect 21 0 49 0;
#X connect 21 0 50 0;
#X connect 22 0 60 0;
#X connect 22 0 61 0;
#X connect 23 0 71 0;
#X connect 23 0 72 0;
#X connect 24 0 82 0;
#X connect 24 0 83 1;
#X connect 25 0 26 0;
#X connect 26 0 3 0;
#X connect 26 0 2 0;
#X connect 27 0 30 0;
#X connect 28 0 29 0;
#X connect 29 0 33 0;
#X connect 30 0 31 0;
#X connect 31 0 32 0;
#X connect 32 0 36 0;
#X connect 33 0 34 0;
#X connect 34 0 35 0;
#X connect 35 0 36 1;
#X connect 36 0 37 0;
#X connect 37 0 7 0;
#X connect 38 0 41 0;
#X connect 39 0 40 0;
#X connect 40 0 44 0;
#X connect 41 0 42 0;
#X connect 42 0 43 0;
#X connect 43 0 47 0;
#X connect 44 0 45 0;
#X connect 45 0 46 0;
#X connect 46 0 47 1;
#X connect 47 0 48 0;
#X connect 48 0 8 0;
#X connect 49 0 52 0;
#X connect 50 0 51 0;
#X connect 51 0 55 0;
#X connect 52 0 53 0;
#X connect 53 0 54 0;
#X connect 54 0 58 0;
#X connect 55 0 56 0;
#X connect 56 0 57 0;
#X connect 57 0 58 1;
#X connect 58 0 59 0;
#X connect 59 0 9 0;
#X connect 60 0 63 0;
#X connect 61 0 62 0;
#X connect 62 0 66 0;
#X connect 63 0 64 0;
#X connect 64 0 65 0;
#X connect 65 0 69 0;
#X connect 66 0 67 0;
#X connect 67 0 68 0;
#X connect 68 0 69 1;
#X connect 69 0 70 0;
#X connect 70 0 10 0;
#X connect 71 0 74 0;
#X connect 72 0 73 0;
#X connect 73 0 77 0;
#X connect 74 0 75 0;
#X connect 75 0 76 0;
#X connect 76 0 80 0;
#X connect 77 0 78 0;
#X connect 78 0 79 0;
#X connect 79 0 80 1;
#X connect 80 0 81 0;
#X connect 81 0 11 0;
#X connect 82 0 85 0;
#X connect 83 0 84 0;
#X connect 84 0 88 0;
#X connect 85 0 86 0;
#X connect 86 0 87 0;
#X connect 87 0 91 0;
#X connect 88 0 89 0;
#X connect 89 0 90 0;
#X connect 90 0 91 1;
#X connect 91 0 92 0;
#X connect 92 0 12 0;
#X connect 93 0 98 0;
#X connect 93 0 97 0;
#X connect 94 0 6 0;
#X connect 95 0 25 1;
#X connect 96 0 0 0;
#X connect 97 0 5 0;
#X connect 98 0 13 0;
#X restore 234 60 pd tr;
#N canvas 124 75 605 602 sine 0;
#X obj 36 286 line~;
#X obj 45 171 bng 19 250 50 0 empty empty empty 0 -10 0 12 #fcfcfc #000000 #000000;
#X obj 228 552 outlet~;
#X obj 490 475 loadbang;
#X obj 404 550 tabwrite~ wave;
#X obj 405 528 metro 20;
#X msg 141 267 \$1 20;
#X floatatom 348 53 5 0 0 0 - - - 0;
#X floatatom 232 115 5 0 0 0 - - - 0;
#X floatatom 280 115 5 0 0 0 - - - 0;
#X floatatom 331 115 5 0 0 0 - - - 0;
#X floatatom 368 115 5 0 0 0 - - - 0;
#X floatatom 415 115 5 0 0 0 - - - 0;
#X floatatom 463 115 5 0 0 0 - - - 0;
#X obj 232 138 osc~;
#X obj 280 137 osc~;
#X obj 328 140 osc~;
#X obj 371 139 osc~;
#X obj 416 141 osc~;
#X obj 462 139 osc~;
#X obj 236 163 *~;
#X obj 283 163 *~;
#X obj 329 163 *~;
#X obj 370 162 *~;
#X obj 418 165 *~;
#X obj 464 164 *~;
#X obj 233 191 vsl 19 162 0 0.5 0 0 empty fund empty 0 -9 0 12 #fcfcfc #000000 #000000 0 1;
#X obj 288 193 vsl 19 162 0 0.5 0 0 empty harm1 empty 0 -9 0 12 #fcfcfc #000000 #000000 0 1;
#X obj 331 191 vsl 19 162 0 0.5 0 0 empty harm2 empty 0 -9 0 12 #fcfcfc #000000 #000000 0 1;
#X obj 371 196 vsl 19 162 0 0.5 0 0 empty harm3 empty 0 -9 0 12 #fcfcfc #000000 #000000 0 1;
#X obj 420 197 vsl 19 162 0 0.5 0 0 empty harm4 empty 0 -9 0 12 #fcfcfc #000000 #000000 0 1;
#X obj 467 193 vsl 19 162 0 0.5 0 0 empty harm5 empty 0 -9 0 12 #fcfcfc #000000 #000000 0 1;
#X obj 234 88 * 1;
#X obj 281 88 * 2;
#X obj 330 86 * 3;
#X obj 371 86 * 4;
#X obj 419 86 * 5;
#X obj 466 83 * 6;
#X obj 302 466 *~;
#X obj 293 501 clip~ -1 1;
#X obj 153 167 loadbang;
#X obj 336 9 r mtof;
#X obj 445 417 catch~ ADSR;
#X msg 41 250 1 \, 0 2000, f 11;
#X msg 146 237 1;
#X msg 168 194 1;
#X text 145 92 Fundamental freq;
#X text 405 52 From *2 to *6 are the harmonics;
#X text 56 202 The note goes from 1 to 0 in 2000 ms, f 17;
#X text 408 395 The ADSR patch affects here;
#X connect 0 0 38 1;
#X connect 1 0 43 0;
#X connect 3 0 5 0;
#X connect 5 0 4 0;
#X connect 6 0 0 0;
#X connect 7 0 32 0;
#X connect 7 0 33 0;
#X connect 7 0 34 0;
#X connect 7 0 35 0;
#X connect 7 0 36 0;
#X connect 7 0 37 0;
#X connect 7 0 1 0;
#X connect 8 0 14 0;
#X connect 9 0 15 0;
#X connect 10 0 16 0;
#X connect 11 0 17 0;
#X connect 12 0 18 0;
#X connect 13 0 19 0;
#X connect 14 0 20 0;
#X connect 15 0 21 0;
#X connect 16 0 22 0;
#X connect 17 0 23 0;
#X connect 18 0 24 0;
#X connect 19 0 25 0;
#X connect 20 0 38 0;
#X connect 21 0 38 0;
#X connect 22 0 38 0;
#X connect 23 0 38 0;
#X connect 24 0 38 0;
#X connect 25 0 38 0;
#X connect 26 0 20 1;
#X connect 27 0 21 1;
#X connect 28 0 22 1;
#X connect 29 0 23 1;
#X connect 30 0 24 1;
#X connect 31 0 25 1;
#X connect 32 0 8 0;
#X connect 33 0 9 0;
#X connect 34 0 10 0;
#X connect 35 0 11 0;
#X connect 36 0 12 0;
#X connect 37 0 13 0;
#X connect 38 0 39 0;
#X connect 39 0 4 0;
#X connect 39 0 2 0;
#X connect 40 0 45 0;
#X connect 40 0 44 0;
#X connect 41 0 7 0;
#X connect 42 0 38 1;
#X connect 43 0 0 0;
#X connect 44 0 6 0;
#X connect 45 0 26 0;
#X restore 163 63 pd sine;
#X obj 198 153 mux~ 1 2 3;
#N canvas 150 65 1104 754 sq 0;
#X obj 36 185 line~;
#X obj 45 70 bng 19 250 50 0 empty empty empty 0 -10 0 12 #fcfcfc #000000 #000000;
#X obj 180 642 outlet~;
#X obj 356 640 tabwrite~ wave;
#X obj 357 618 metro 20;
#X msg 147 431 \$1 20;
#X floatatom 539 39 5 0 0 0 - - - 0;
#X obj 228 316 *~;
#X obj 370 319 *~;
#X obj 529 328 *~;
#X obj 686 322 *~;
#X obj 836 335 *~;
#X obj 985 342 *~;
#X obj 230 349 vsl 19 162 0 0.5 0 0 empty fund empty 0 -9 0 12 #fcfcfc #000000 #000000 0 1;
#X obj 375 349 vsl 19 162 0 0.5 0 0 empty harm1 empty 0 -9 0 12 #fcfcfc #000000 #000000 0 1;
#X obj 531 356 vsl 19 162 0 0.5 0 0 empty harm2 empty 0 -9 0 12 #fcfcfc #000000 #000000 0 1;
#X obj 687 356 vsl 19 162 0 0.5 0 0 empty harm3 empty 0 -9 0 12 #fcfcfc #000000 #000000 0 1;
#X obj 838 367 vsl 19 162 0 0.5 0 0 empty harm4 empty 0 -9 0 12 #fcfcfc #000000 #000000 0 1;
#X obj 988 371 vsl 19 162 0 0.5 0 0 empty harm5 empty 0 -9 0 12 #fcfcfc #000000 #000000 0 1;
#X obj 236 131 * 1;
#X obj 378 127 * 2;
#X obj 547 122 * 3;
#X obj 249 558 *~;
#X obj 245 591 clip~ -1 1;
#X obj 180 180 phasor~;
#X obj 245 158 *~ -1;
#X obj 249 183 phasor~;
#X obj 181 205 -~ 0.5;
#X obj 253 208 -~ 0.5;
#X msg 274 132 0.5;
#X obj 169 131 loadbang;
#X msg 190 155 0;
#X obj 226 272 +~;
#X obj 323 176 phasor~;
#X obj 388 154 *~ -1;
#X obj 392 179 phasor~;
#X obj 324 201 -~ 0.5;
#X obj 396 204 -~ 0.5;
#X msg 417 128 0.5;
#X obj 312 127 loadbang;
#X msg 333 151 0;
#X obj 369 268 +~;
#X obj 490 174 phasor~;
#X obj 555 152 *~ -1;
#X obj 559 177 phasor~;
#X obj 491 199 -~ 0.5;
#X obj 563 202 -~ 0.5;
#X msg 584 126 0.5;
#X obj 479 125 loadbang;
#X msg 500 149 0;
#X obj 536 266 +~;
#X obj 656 176 phasor~;
#X obj 721 154 *~ -1;
#X obj 725 179 phasor~;
#X obj 657 201 -~ 0.5;
#X obj 729 204 -~ 0.5;
#X msg 750 128 0.5;
#X obj 645 127 loadbang;
#X msg 666 151 0;
#X obj 702 268 +~;
#X obj 712 127 * 4;
#X obj 810 175 phasor~;
#X obj 875 153 *~ -1;
#X obj 879 178 phasor~;
#X obj 811 200 -~ 0.5;
#X obj 883 203 -~ 0.5;
#X msg 904 127 0.5;
#X obj 799 126 loadbang;
#X msg 820 150 0;
#X obj 856 267 +~;
#X obj 866 126 * 5;
#X obj 965 174 phasor~;
#X obj 1030 152 *~ -1;
#X obj 1034 177 phasor~;
#X obj 966 199 -~ 0.5;
#X obj 1038 202 -~ 0.5;
#X msg 1059 126 0.5;
#X obj 954 125 loadbang;
#X msg 975 149 0;
#X obj 1011 266 +~;
#X obj 1021 125 * 6;
#X obj 148 272 loadbang;
#X obj 547 13 r mtof;
#X obj 344 27 catch~ ADSR;
#X msg 41 149 1 \, 0 2000;
#X msg 163 299 1;
#X msg 142 405 1;
#X text 47 124 From 1 to 0 in 2000 ms;
#X text 186 101 Fundamental fq;
#X text 553 551 Harmonics from *2 to *6;
#X text 515 621 A square wave takes a few more added harmonics to get close to its ideal mathematical shape. This waveform is created also using only the odd-numbered harmonics (1 \, 3 \, 5 \, 9...) \, and zero is also used for the amplitude of the even harmonics (2 \, 4 \, 6 \, 8...). Then 1 is divided by the number of the harmonic to get its amplitude (i.e. 1/h). As illustrated below \, a square wave made up of only four harmonics isn't very square \, but when more harmonics are added its shape becomes very clear.;
#X text 515 590 This actually ended up being a saw wave and not a square wave but:, f 59;
#X connect 0 0 22 1;
#X connect 1 0 84 0;
#X connect 4 0 3 0;
#X connect 5 0 0 0;
#X connect 6 0 19 0;
#X connect 6 0 20 0;
#X connect 6 0 21 0;
#X connect 6 0 60 0;
#X connect 6 0 70 0;
#X connect 6 0 80 0;
#X connect 6 0 1 0;
#X connect 7 0 22 0;
#X connect 8 0 22 0;
#X connect 9 0 22 0;
#X connect 10 0 22 0;
#X connect 11 0 22 0;
#X connect 12 0 22 0;
#X connect 13 0 7 1;
#X connect 14 0 8 1;
#X connect 15 0 9 1;
#X connect 16 0 10 1;
#X connect 17 0 11 1;
#X connect 18 0 12 1;
#X connect 19 0 25 0;
#X connect 19 0 24 0;
#X connect 20 0 33 0;
#X connect 20 0 34 0;
#X connect 21 0 42 0;
#X connect 21 0 43 0;
#X connect 22 0 23 0;
#X connect 23 0 2 0;
#X connect 23 0 3 0;
#X connect 24 0 27 0;
#X connect 25 0 26 0;
#X connect 26 0 28 0;
#X connect 27 0 32 0;
#X connect 28 0 32 0;
#X connect 29 0 25 1;
#X connect 30 0 29 0;
#X connect 30 0 31 0;
#X connect 31 0 24 1;
#X connect 32 0 7 0;
#X connect 33 0 36 0;
#X connect 34 0 35 0;
#X connect 35 0 37 0;
#X connect 36 0 41 0;
#X connect 37 0 41 0;
#X connect 38 0 34 1;
#X connect 39 0 38 0;
#X connect 39 0 40 0;
#X connect 40 0 33 1;
#X connect 41 0 8 0;
#X connect 42 0 45 0;
#X connect 43 0 44 0;
#X connect 44 0 46 0;
#X connect 45 0 50 0;
#X connect 46 0 50 0;
#X connect 47 0 43 1;
#X connect 48 0 47 0;
#X connect 48 0 49 0;
#X connect 49 0 42 1;
#X connect 50 0 9 0;
#X connect 51 0 54 0;
#X connect 52 0 53 0;
#X connect 53 0 55 0;
#X connect 54 0 59 0;
#X connect 55 0 59 0;
#X connect 56 0 52 1;
#X connect 57 0 56 0;
#X connect 57 0 58 0;
#X connect 58 0 51 1;
#X connect 59 0 10 0;
#X connect 60 0 52 0;
#X connect 60 0 51 0;
#X connect 61 0 64 0;
#X connect 62 0 63 0;
#X connect 63 0 65 0;
#X connect 64 0 69 0;
#X connect 65 0 69 0;
#X connect 66 0 62 1;
#X connect 67 0 66 0;
#X connect 67 0 68 0;
#X connect 68 0 61 1;
#X connect 69 0 11 0;
#X connect 70 0 62 0;
#X connect 70 0 61 0;
#X connect 71 0 74 0;
#X connect 72 0 73 0;
#X connect 73 0 75 0;
#X connect 74 0 79 0;
#X connect 75 0 79 0;
#X connect 76 0 72 1;
#X connect 77 0 76 0;
#X connect 77 0 78 0;
#X connect 78 0 71 1;
#X connect 79 0 12 0;
#X connect 80 0 72 0;
#X connect 80 0 71 0;
#X connect 81 0 85 0;
#X connect 81 0 86 0;
#X connect 82 0 6 0;
#X connect 83 0 22 1;
#X connect 84 0 0 0;
#X connect 85 0 13 0;
#X connect 86 0 5 0;
#X restore 295 77 pd sq;
#X obj 301 157 metro 20;
#X obj 250 220 tabwrite~ scope;
#X obj 72 428 throw~ outwav1;
#X obj 139 321 *~;
#X obj 187 254 limiter~;
#X obj 132 269 z~ 64;
#X obj 343 124 loadbang;
#X text 207 284 Limiting the signal so every wave is somewhat the same, f 25;
#X text 30 250 The signal is delayed by 64 samples to avoid clips, f 16;
#X text 334 210 Writes the array in the main patch, f 24;
#X connect 0 0 3 0;
#X connect 1 0 3 1;
#X connect 2 0 3 0;
#X connect 3 0 6 0;
#X connect 3 0 9 0;
#X connect 3 0 10 0;
#X connect 4 0 3 2;
#X connect 5 0 6 0;
#X connect 8 0 7 0;
#X connect 9 0 8 1;
#X connect 10 0 8 0;
#X connect 11 0 5 0;
#X coords 0 -1 1 1 57 20 2 100 100;
#X restore 351 40 pd wave;
#X obj 473 10 cnv 15 151 60 empty empty empty 20 12 0 8 #ffffff #ffffff 0;
#X obj 476 13 cnv 15 145 54 empty empty midi\ options 45 12 0 8 #404040 #ffffff 0;
#X obj 242 92 cnv 19 194 134 empty empty empty 20 12 0 12 #dfdfdf #404040 0;
#N canvas 252 438 824 366 bob 0;
#X obj 507 216 bob~;
#N canvas 113 79 429 493 cutoff 0;
#X obj 113 312 line~;
#X obj 132 148 hsl 100 15 40 127 0 0 cutoffhz cutoff empty -2 -8 0 10 #dfdfdf #000000 #000000 0 1;
#X text 189 169 Hz;
#X obj 124 355 outlet~;
#X text 121 123 cutoff frequency;
#X text 139 106 resonant or, f 13;
#X obj 201 29 loadbang;
#X msg 203 56 69;
#X obj 50 179 mtof;
#X floatatom 54 153 5 0 0 0 - - - 0;
#X obj 126 214 pack 0 50;
#X floatatom 126 174 7 0 14000 0 - - - 0;
#X obj 37 224 s mtofcut;
#X obj 49 203 int;
#X connect 0 0 3 0;
#X connect 1 0 9 0;
#X connect 6 0 7 0;
#X connect 7 0 1 0;
#X connect 8 0 13 0;
#X connect 9 0 8 0;
#X connect 10 0 0 0;
#X connect 11 0 10 0;
#X connect 13 0 11 0;
#X connect 13 0 12 0;
#X coords 0 -1 1 1 160 100 2 100 100;
#X restore 440 33 pd cutoff;
#N canvas 597 123 575 444 res 0;
#X obj 114 43 loadbang;
#X obj 116 148 hsl 100 15 0 8 0 0 empty res empty -2 -8 0 10 #dfdfdf #000000 #000000 0 1;
#X msg 114 71 0.4;
#X text 159 172 (0-8);
#X text 120 105 "resonance";
#X text 102 123 (> 4 to oscillate);
#X obj 114 317 outlet~;
#X floatatom 115 180 5 0 8 0 - - - 0;
#X obj 118 263 sig~;
#X obj 40 177 int;
#X obj 23 202 s reshz;
#X connect 0 0 2 0;
#X connect 1 0 9 0;
#X connect 2 0 1 0;
#X connect 7 0 8 0;
#X connect 8 0 6 0;
#X connect 9 0 7 0;
#X connect 9 0 10 0;
#X coords 0 -1 1 1 150 100 2 100 100;
#X restore 611 32 pd res;
#X obj 117 141 hsl 162 19 40 127 0 0 cutoff empty empty -2 -10 0 12 #fcfcfc #000000 #000000 0 1;
#X obj 117 195 hsl 162 19 0 4 0 0 res empty empty -2 -10 0 12 #fcfcfc #000000 #000000 0 1;
#X floatatom 116 166 5 20 15000 0 - mtofcut - 0;
#X floatatom 114 222 5 20 15000 0 - reshz - 0;
#X text 165 176 resonance;
#X text 146 118 resonant frequency;
#X text 147 167 hz;
#X obj 338 149 catch~ outwav1;
#X obj 437 329 throw~ bobout;
#X obj 432 264 mux~ 1 2;
#X obj 279 221 tgl 15 0 empty empty empty 0 -8 0 8 #fcfcfc #000000 #000000 0 1;
#X text 238 220 bypass;
#X text 141 103 analog resonant filter;
#X connect 0 0 12 1;
#X connect 1 0 0 1;
#X connect 2 0 0 2;
#X connect 10 0 0 0;
#X connect 10 0 12 0;
#X connect 12 0 11 0;
#X connect 13 0 12 0;
#X coords 0 -1 1 1 200 140 2 100 100;
#X restore 239 87 pd bob;
#X obj 450 88 cnv 19 200 140 empty empty empty 20 12 0 12 #ffffff #404040 0;
#X obj 453 91 cnv 19 194 134 empty empty empty 20 12 0 12 #dfdfdf #404040 0;
#X obj 34 240 cnv 19 175 180 empty empty empty 20 12 0 12 #ffffff #404040 0;
#X obj 37 242 cnv 19 170 175 empty empty empty 20 12 0 12 #dfdfdf #404040 0;
#X obj 46 263 vsl 19 130 0 0.5 0 0 fund empty empty 0 -9 0 12 #c6feff #000000 #000000 0 1;
#X obj 72 263 vsl 19 130 0 0.5 0 0 harm1 empty empty 0 -9 0 12 #c6feff #000000 #000000 0 1;
#X obj 98 263 vsl 19 130 0 0.5 0 0 harm2 empty empty 0 -9 0 12 #c6feff #000000 #000000 0 1;
#X obj 124 263 vsl 19 130 0 0.5 0 0 harm3 empty empty 0 -9 0 12 #c6feff #000000 #000000 0 1;
#X obj 150 263 vsl 19 130 0 0.5 0 0 harm4 empty empty 0 -9 0 12 #c6feff #000000 #000000 0 1;
#X obj 177 263 vsl 19 130 0 0.5 0 0 harm5 empty empty 0 -9 0 12 #c6feff #000000 #000000 0 1;
#X text 48 400 F;
#X text 104 400 3, f 2;
#X text 77 400 2;
#X text 130 400 4;
#X text 154 400 5;
#X text 182 400 6;
#X text 92 241 harmonics;
#N canvas 366 385 1074 423 piano 0;
#X obj 100 100 cnv 15 290 55 empty empty empty 20 12 0 8 #ffffff #404040 0;
#X obj 257 230 mtof;
#X text 289 230 midi to frequency;
#X msg 45 176 60;
#X msg 114 176 62;
#X msg 184 176 64;
#X msg 218 176 65;
#X msg 286 174 67;
#X msg 349 176 69;
#X msg 431 176 71;
#X msg 80 175 61;
#X msg 250 176 66;
#X msg 317 176 68;
#X msg 383 176 70;
#X msg 148 176 63;
#X obj 271 383 s mtof;
#X obj 120 107 bng 19 250 50 0 empty empty empty 0 -10 0 12 #ffffff #000000 #000000;
#X obj 104 131 bng 20 250 50 0 empty empty empty 0 -10 0 12 #ffffff #ffffff #000000;
#X obj 142 131 bng 19 250 50 0 empty empty empty 0 -10 0 12 #fcfcfc #000000 #000000;
#X obj 163 106 bng 19 250 50 0 empty empty empty 0 -10 0 12 #ffffff #000000 #000000;
#X obj 183 131 bng 19 250 50 0 empty empty empty 0 0 0 12 #fcfcfc #000000 #000000;
#X obj 208 131 bng 19 250 50 0 empty empty empty 0 -10 0 12 #fcfcfc #000000 #000000;
#X obj 230 107 bng 19 250 50 0 empty empty empty 0 -10 0 12 #ffffff #000000 #000000;
#X obj 252 130 bng 19 250 50 0 empty empty empty 0 -10 0 12 #fcfcfc #000000 #000000;
#X obj 273 107 bng 19 250 50 0 empty empty empty 0 -10 0 12 #ffffff #000000 #000000;
#X obj 294 130 bng 19 250 50 0 empty empty empty 0 -10 0 12 #fcfcfc #000000 #000000;
#X obj 316 107 bng 19 250 50 0 empty empty empty 0 -10 0 12 #ffffff #000000 #000000;
#X obj 341 129 bng 19 250 50 0 empty empty empty 0 -10 0 12 #fcfcfc #000000 #000000;
#X obj 250 13 key;
#X obj 100 51 sel 97 119 115 101 100 102 116 103 121 104 117 106 107;
#X obj 365 129 bng 19 250 50 0 empty empty empty 0 -10 0 12 #fcfcfc #000000 #000000;
#X msg 475 176 72;
#X obj 37 233 r midi;
#X floatatom 369 268 5 20 20000 0 - - - 0;
#X floatatom 116 284 5 0 0 0 - - - 0;
#X obj 745 287 mtof;
#X msg 533 233 60;
#X msg 602 233 62;
#X msg 672 233 64;
#X msg 706 233 65;
#X msg 774 231 67;
#X msg 837 233 69;
#X msg 919 233 71;
#X msg 568 232 61;
#X msg 738 233 66;
#X msg 805 233 68;
#X msg 871 233 70;
#X msg 636 233 63;
#X obj 608 162 bng 19 250 50 0 empty empty empty 0 -10 0 12 #000000 #000000 #000000;
#X obj 590 187 bng 20 250 50 0 empty empty empty 0 -10 0 12 #ffffff #ffffff #000000;
#X obj 631 189 bng 19 250 50 0 empty empty empty 0 -10 0 12 #fcfcfc #000000 #000000;
#X obj 651 166 bng 19 250 50 0 empty empty empty 0 -10 0 12 #000000 #000000 #000000;
#X obj 671 189 bng 19 250 50 0 empty empty empty 0 0 0 12 #fcfcfc #000000 #000000;
#X obj 698 189 bng 19 250 50 0 empty empty empty 0 -10 0 12 #fcfcfc #000000 #000000;
#X obj 721 164 bng 19 250 50 0 empty empty empty 0 -10 0 12 #000000 #000000 #000000;
#X obj 746 187 bng 19 250 50 0 empty empty empty 0 -10 0 12 #fcfcfc #000000 #000000;
#X obj 766 164 bng 19 250 50 0 empty empty empty 0 -10 0 12 #000000 #000000 #000000;
#X obj 795 187 bng 19 250 50 0 empty empty empty 0 -10 0 12 #fcfcfc #000000 #000000;
#X obj 818 163 bng 19 250 50 0 empty empty empty 0 -10 0 12 #000000 #000000 #000000;
#X obj 841 186 bng 19 250 50 0 empty empty empty 0 -10 0 12 #fcfcfc #000000 #000000;
#X obj 588 108 sel 97 119 115 101 100 102 116 103 121 104 117 106 107;
#X obj 868 187 bng 19 250 50 0 empty empty empty 0 -10 0 12 #fcfcfc #000000 #000000;
#X msg 963 233 72;
#X obj 693 66 keyup;
#X obj 738 337 s keyup;
#X obj 202 365 s key;
#X text 412 105 Each key triggers a bang \, which later triggers a midi note from 60 (C4) to 72 (C5), f 33;
#X text 889 135 This part is basically for the ADSR \, it lets the user know when a user stops pressing a key, f 33;
#X connect 1 0 33 0;
#X connect 1 0 15 0;
#X connect 1 0 65 0;
#X connect 3 0 1 0;
#X connect 4 0 1 0;
#X connect 5 0 1 0;
#X connect 6 0 1 0;
#X connect 7 0 1 0;
#X connect 8 0 1 0;
#X connect 9 0 1 0;
#X connect 10 0 1 0;
#X connect 11 0 1 0;
#X connect 12 0 1 0;
#X connect 13 0 1 0;
#X connect 14 0 1 0;
#X connect 16 0 10 0;
#X connect 17 0 3 0;
#X connect 18 0 4 0;
#X connect 19 0 14 0;
#X connect 20 0 5 0;
#X connect 21 0 6 0;
#X connect 22 0 11 0;
#X connect 23 0 7 0;
#X connect 24 0 12 0;
#X connect 25 0 8 0;
#X connect 26 0 13 0;
#X connect 27 0 9 0;
#X connect 28 0 29 0;
#X connect 29 0 17 0;
#X connect 29 1 16 0;
#X connect 29 2 18 0;
#X connect 29 3 19 0;
#X connect 29 4 20 0;
#X connect 29 5 21 0;
#X connect 29 6 22 0;
#X connect 29 7 23 0;
#X connect 29 8 24 0;
#X connect 29 9 25 0;
#X connect 29 10 26 0;
#X connect 29 11 27 0;
#X connect 29 12 30 0;
#X connect 30 0 31 0;
#X connect 31 0 1 0;
#X connect 32 0 34 0;
#X connect 32 0 1 0;
#X connect 35 0 64 0;
#X connect 36 0 35 0;
#X connect 37 0 35 0;
#X connect 38 0 35 0;
#X connect 39 0 35 0;
#X connect 40 0 35 0;
#X connect 41 0 35 0;
#X connect 42 0 35 0;
#X connect 43 0 35 0;
#X connect 44 0 35 0;
#X connect 45 0 35 0;
#X connect 46 0 35 0;
#X connect 47 0 35 0;
#X connect 48 0 43 0;
#X connect 49 0 36 0;
#X connect 50 0 37 0;
#X connect 51 0 47 0;
#X connect 52 0 38 0;
#X connect 53 0 39 0;
#X connect 54 0 44 0;
#X connect 55 0 40 0;
#X connect 56 0 45 0;
#X connect 57 0 41 0;
#X connect 58 0 46 0;
#X connect 59 0 42 0;
#X connect 60 0 49 0;
#X connect 60 1 48 0;
#X connect 60 2 50 0;
#X connect 60 3 51 0;
#X connect 60 4 52 0;
#X connect 60 5 53 0;
#X connect 60 6 54 0;
#X connect 60 7 55 0;
#X connect 60 8 56 0;
#X connect 60 9 57 0;
#X connect 60 10 58 0;
#X connect 60 11 59 0;
#X connect 60 12 61 0;
#X connect 61 0 62 0;
#X connect 62 0 35 0;
#X connect 63 0 60 0;
#X coords 0 -1 1 1 290 55 2 100 100;
#X restore 25 13 pd piano;
#X text 294 45 C;
#X text 200 23 G#;
#X text 90 22 D#;
#X text 224 46 A;
#X text 271 45 B;
#X text 71 46 D;
#X text 111 47 E;
#X text 138 47 F;
#X text 181 46 G;
#X text 33 48 C;
#X text 46 24 C#;
#X text 243 23 A#;
#X obj 242 238 cnv 19 400 180 empty empty empty 20 12 0 12 #ffffff #404040 0;
#X obj 246 242 cnv 19 390 170 empty empty empty 20 12 0 12 #dfdfdf #404040 0;
#X obj 22 435 cnv 19 150 150 empty empty empty 20 12 0 12 #ffffff #404040 0;
#X obj 25 437 cnv 19 145 145 empty empty empty 20 12 0 12 #e0e0e0 #404040 0;
#X obj 35 485 hsl 128 15 1 50 0 0 satam empty empty -2 -8 0 8 #fcfcfc #000000 #000000 0 1;
#X obj 33 557 hsl 128 15 0 1 0 0 sathigh empty empty -2 -8 0 8 #fcfcfc #000000 #000000 0 1;
#X obj 34 520 hsl 128 15 -1 0 0 0 satlow empty empty -2 -8 0 8 #fcfcfc #000000 #000000 0 1;
#X text 69 443 Saturator;
#X text 33 466 Amount;
#X text 28 504 Lower;
#X text 29 539 Higher;
#X obj 148 445 tgl 15 0 bypasssat empty empty 0 -8 0 8 #fcfcfc #000000 #000000 0 1;
#X obj 184 438 cnv 19 145 145 empty empty empty 20 12 0 12 #e0e0e0 #404040 0;
#X obj 341 437 cnv 19 145 145 empty empty empty 20 12 0 12 #e0e0e0 #404040 0;
#X obj 498 438 cnv 19 145 145 empty empty empty 20 12 0 12 #e0e0e0 #404040 0;
#X obj 655 438 cnv 19 145 145 empty empty empty 20 12 0 12 #e0e0e0 #404040 0;
#X obj 509 483 hsl 128 15 0 500 0 0 deltim empty empty -2 -8 0 8 #fcfcfc #000000 #000000 0 1;
#X obj 507 555 hsl 128 15 0 1 0 0 delvol empty empty -2 -8 0 8 #fcfcfc #000000 #000000 0 1;
#X obj 508 518 hsl 128 15 0 1 0 0 delfeed empty empty -2 -8 0 8 #fcfcfc #000000 #000000 0 1;
#X text 502 502 Feedback;
#X text 503 537 Delay Volume;
#X text 507 464 Time;
#X text 554 441 Delay;
#X obj 196 484 hsl 128 15 0 5 0 0 phaserspeed empty empty -2 -8 0 8 #fcfcfc #000000 #000000 0 1;
#X obj 196 554 hsl 128 15 0 1 0 0 phaserfeed empty empty -2 -8 0 8 #fcfcfc #000000 #000000 0 1;
#X obj 196 519 hsl 128 15 0 1 0 0 phaserdepth empty empty -2 -5 0 8 #fcfcfc #000000 #000000 0 1;
#X text 241 442 Phaser;
#X text 194 465 Speed;
#X text 194 537 Feedback;
#X text 194 502 Depth;
#X obj 353 484 hsl 128 15 -1 1 0 0 tremrate empty empty -2 -8 0 8 #fcfcfc #000000 #000000 0 1;
#X obj 351 556 hsl 128 15 0 1 0 0 tremdepth empty empty -2 -8 0 8 #fcfcfc #000000 #000000 0 1;
#X obj 352 519 hsl 128 15 1 20 1 0 tremshape empty empty -2 -8 0 8 #fcfcfc #000000 #000000 0 1;
#X text 398 442 Tremolo;
#X text 351 465 Rate;
#X text 346 503 Shape;
#X text 347 538 Depth;
#X obj 308 442 tgl 15 0 bypassphaser empty empty 0 -8 0 8 #fcfcfc #000000 #000000 0 1;
#X obj 455 442 tgl 15 0 bypasstrem empty empty 0 -8 0 8 #fcfcfc #000000 #000000 0 1;
#X obj 626 440 tgl 15 0 bypassdelay empty empty 0 -8 0 8 #fcfcfc #000000 #000000 0 1;
#X obj 660 501 hsl 128 15 0 50 0 0 revsens empty empty -2 -8 0 8 #fcfcfc #000000 #000000 0 1;
#X obj 660 540 hsl 128 15 0 800 0 0 revattack empty empty -2 -8 0 8 #fcfcfc #000000 #000000 0 1;
#X text 655 484 Sensitivity;
#X text 657 524 Attack;
#X obj 783 445 tgl 15 0 bypassdelay empty empty 0 -8 0 8 #fcfcfc #000000 #000000 0 1;
#X text 697 446 Reverse FX;
#N canvas 147 198 450 348 readmidi 0;
#X obj 125 100 bng 19 250 50 0 empty empty empty 0 -10 0 12 #c6ffc7 #ffffff #000000;
#X msg 159 172 read;
#X msg 101 144 stop;
#X msg 166 143 pause;
#X msg 248 146 continue;
#X obj 28 136 s midi;
#X obj 30 55 seq 1_PeopleAreStrange.mid;
#X obj 150 100 bng 19 250 50 0 empty empty empty 0 -10 0 12 #ffc7c6 #000000 #000000;
#X obj 175 100 bng 19 250 50 0 empty empty empty 0 -10 0 12 #feffc6 #000000 #000000;
#X obj 199 100 bng 19 250 50 0 empty empty empty 0 -10 0 12 #c6feff #000000 #000000;
#X obj 101 100 bng 19 250 50 0 empty empty empty 0 -10 0 12 #e3c6ff #000000 #000000;
#X obj 27 88 int;
#X floatatom 59 98 5 0 0 0 - - - 0;
#X text 173 56 Name of the midi that the patch writes;
#X text 28 206 This is supposed to read a midi file and play \, pause \, stop or continue. The thing is \, in the midi file \, we have a lot of data \, including velocity (from 0 to 127) and the seq is reading the velocity as the midi notes \, so every time you load a MIDI file with a quantized velocity (lets say 0 and 127) \, it only plays 0 and 127 as if they were the notes used in the song. I dont know how to fix this other than manually editing the file. Another error is that mtof reads "0" as a 8.75hz frequency \, which makes everything sound weird. I´m gonna try to make it work for next time;
#X connect 0 0 6 0;
#X connect 1 0 6 0;
#X connect 2 0 6 0;
#X connect 3 0 6 0;
#X connect 4 0 6 0;
#X connect 6 0 11 0;
#X connect 7 0 2 0;
#X connect 8 0 3 0;
#X connect 9 0 4 0;
#X connect 10 0 1 0;
#X connect 11 0 12 0;
#X connect 12 0 5 0;
#X coords 0 -1 1 1 119 20 2 100 100;
#X restore 489 36 pd readmidi;
#X obj 661 365 hsl 128 15 0 1 0 0 vol empty output 45 -8 0 8 #fcfcfc #000000 #ffffff 0 1;
#X text 693 394 sound on / off;
#X text 157 23 F#;
#X obj 673 30 declare -lib zexy;
#X obj 672 11 declare -lib cyclone;
#N canvas 0 25 611 123 effects 0;
#N canvas 586 100 791 617 delay 0;
#X obj 58 125 *~;
#X obj 140 168 delwrite~ audio-buffer 5000;
#X obj 61 163 *~;
#X obj 396 81 hsl 162 19 0 1 0 0 empty amp empty -2 -10 0 12 #fcfcfc #000000 #000000 0 1;
#X obj 400 173 hsl 162 19 0 500 0 0 empty deltim empty -2 -10 0 12 #fcfcfc #000000 #000000 0 1;
#X floatatom 46 312 5 0 0 0 - - - 0;
#X obj 46 335 delread~ audio-buffer 0;
#X obj 152 144 receive~ feedback;
#X obj 136 401 *~;
#X obj 136 425 send~ feedback;
#X obj 401 251 hsl 162 19 0 1 0 0 empty delfeed empty -2 -10 0 12 #fcfcfc #000000 #000000 0 1;
#X obj 46 410 *~;
#X obj 402 213 hsl 162 19 0 1 0 0 empty delvol empty -2 -10 0 12 #fcfcfc #000000 #000000 0 1;
#X text 399 53 Output;
#X text 395 156 Delay time;
#X text 398 195 Delay Volume;
#X text 398 234 Feedback;
#X msg 604 70 0.5;
#X obj 616 44 loadbang;
#X obj 514 439 mux~ 0 1;
#X obj 588 425 tgl 15 0 empty bypassdelay empty 0 -8 0 8 #fcfcfc #000000 #000000 0 1;
#X obj 57 72 catch~ tremolo;
#X obj 585 403 loadbang;
#X text 256 137 Delay line and the length in ms;
#X text 211 374 The feedback works by sending it back to the input after being multiplied, f 22;
#X text 621 424 bypass;
#X obj 193 44 loadbang;
#X msg 200 100 1;
#X obj 76 533 dac~;
#X obj 515 512 throw~ delout;
#X connect 0 0 1 0;
#X connect 0 0 2 0;
#X connect 2 0 19 0;
#X connect 3 0 2 1;
#X connect 4 0 5 0;
#X connect 5 0 6 0;
#X connect 6 0 8 0;
#X connect 6 0 11 0;
#X connect 7 0 1 0;
#X connect 8 0 9 0;
#X connect 10 0 8 1;
#X connect 11 0 19 0;
#X connect 12 0 11 1;
#X connect 17 0 3 0;
#X connect 18 0 17 0;
#X connect 19 0 29 0;
#X connect 20 0 19 0;
#X connect 21 0 0 0;
#X connect 21 0 19 1;
#X connect 22 0 20 0;
#X connect 26 0 27 0;
#X connect 27 0 0 1;
#X coords 0 617 1 616 200 150 0;
#X restore 397 40 pd delay;
#N canvas 870 88 570 537 phaser 0;
#X obj 153 66 delwrite~ phase1 100;
#X obj 124 180 delwrite~ phase2 100;
#X obj 314 85 phasor~;
#X floatatom 313 59 5 0 1 0 - phaserspeed - 0;
#X obj 287 123 cos~;
#X obj 340 125 +~ 0.5;
#X obj 340 145 wrap~;
#X obj 287 145 *~ 2;
#X obj 287 170 *~ 2;
#X obj 341 168 cos~;
#X obj 341 194 *~ 2;
#X obj 341 215 +~ 2;
#X obj 342 237 vd~ phase2;
#X obj 342 258 *~ 0.8;
#X floatatom 391 168 5 0 0 0 - phaserdepth - 0;
#X text 425 168 depht;
#X text 345 57 speed;
#X floatatom 434 233 5 0 0 0 - phaserfeed - 0;
#X obj 293 331 *~ 0.8;
#X obj 55 426 throw~ phaserout;
#X text 471 234 feedback;
#X obj 63 38 catch~ sat;
#X obj 89 317 mux~ 0 1;
#X obj 80 274 tgl 15 0 empty bypassphaser empty 0 -8 0 8 #fcfcfc #000000 #000000 0 1;
#X obj 303 405 s~ outt;
#X obj 27 278 r~ outt;
#X obj 147 372 loadbang;
#X text 228 8 Phaser or Chorus FX;
#X text 152 44 Writes the delay lines;
#X text 339 297 reads from delay line 1;
#X obj 274 296 vd~ phase1;
#X text 369 212 reads from delay line 1;
#X text 63 256 bypass;
#X text 39 467 The 3 sliders to the right control the speed of the oscillation \, it’s depth \, and the amount of feedback in the delay lines. Please not that these sliders are not supposed to be moved while playing (you’ll hear some unwanted noise)., f 94;
#X connect 2 0 5 0;
#X connect 2 0 4 0;
#X connect 3 0 2 0;
#X connect 4 0 7 0;
#X connect 5 0 6 0;
#X connect 6 0 9 0;
#X connect 7 0 8 0;
#X connect 8 0 30 0;
#X connect 9 0 10 0;
#X connect 10 0 11 0;
#X connect 11 0 12 0;
#X connect 12 0 13 0;
#X connect 12 0 24 0;
#X connect 13 0 1 0;
#X connect 14 0 7 1;
#X connect 14 0 8 1;
#X connect 14 0 10 1;
#X connect 14 0 11 1;
#X connect 17 0 13 1;
#X connect 17 0 18 1;
#X connect 18 0 0 0;
#X connect 21 0 0 0;
#X connect 21 0 1 0;
#X connect 21 0 22 1;
#X connect 22 0 19 0;
#X connect 23 0 22 0;
#X connect 25 0 22 0;
#X connect 26 0 23 0;
#X connect 30 0 18 0;
#X connect 30 0 24 0;
#X restore 232 39 pd phaser;
#N canvas 281 144 524 437 tremolo 0;
#X obj 39 208 *~;
#X obj 102 193 +~;
#X obj 103 169 *~;
#X obj 104 136 clip~ -1 1;
#X obj 105 104 *~;
#X obj 100 55 osc~;
#X floatatom 129 26 5 -1 1 0 - tremrate - 0;
#X floatatom 138 76 5 0 0 0 - tremshape - 0;
#X floatatom 172 159 5 0 1 0 - tremdepth - 0;
#X obj 170 181 expr 1-$f1;
#X text 174 74 Shape. sine wave between 1 and 20;
#X text 229 181 Depth. Normalized between 0 and 1;
#X obj 350 391 throw~ tremolo;
#X obj 353 330 mux~ 0 1;
#X obj 308 224 tgl 15 0 empty bypasstrem empty 0 -8 0 8 #fcfcfc #000000 #000000 0 1;
#X obj 32 17 catch~ phaserout;
#X obj 375 231 loadbang;
#X text 166 25 Rate. Sine wave between -1 and 1;
#X text 136 107 Multiplied by a positive number;
#X text 173 132 As the number increases \, the sinewave can become a sqare wave so its necesary to clip between -1 and 1;
#X text 22 334 It gets the signal and it gets multiplied by the output of the oscillator. Then the output is tuned and the input signal is multiplied by a number between 0 and 1 (depth). As the value of the oscillator approaches the minimum value \, the signal gets multiplied by a smaller value and it diminishes the volume. And as the value increases \, the volume increases., f 58;
#X obj 231 256 loadbang;
#X msg 172 205 0.799;
#X obj 43 288 dac~;
#X connect 0 0 13 0;
#X connect 1 0 0 1;
#X connect 2 0 1 0;
#X connect 3 0 2 0;
#X connect 4 0 3 0;
#X connect 5 0 4 0;
#X connect 6 0 5 0;
#X connect 7 0 4 1;
#X connect 8 0 9 0;
#X connect 8 0 2 1;
#X connect 9 0 1 1;
#X connect 9 0 22 0;
#X connect 13 0 12 0;
#X connect 14 0 13 0;
#X connect 15 0 13 1;
#X connect 15 0 0 0;
#X connect 16 0 14 0;
#X connect 21 0 22 0;
#X restore 315 39 pd tremolo;
#N canvas 84 181 420 465 whawha 0;
#X obj 43 335 vcf~, f 8;
#X text 47 230 voltage controlled band pass filter;
#X obj 120 46 osc~ 2;
#X obj 121 69 +~ 1;
#X obj 123 92 *~ 0.5;
#X text 202 35 LFO;
#X obj 132 9 hsl 128 15 0 127 0 0 empty empty empty -2 -8 0 8 #fcfcfc #000000 #000000 0 1;
#X obj 77 117 *~ 1500;
#X floatatom 174 145 5 0 0 0 - - - 0;
#X obj 175 104 bang;
#X obj 174 126 -;
#X obj 235 108 hsl 128 15 0 127 0 0 empty empty empty -2 -8 0 8 #fcfcfc #000000 #000000 0 1;
#X obj 221 169 hsl 128 15 0 127 0 0 empty empty empty -2 -8 0 8 #fcfcfc #000000 #000000 0 1;
#X floatatom 217 193 5 0 0 0 - - - 0;
#X obj 89 188 +~ 200;
#X obj 116 277 hsl 128 15 0 127 0 0 empty empty empty -2 -8 0 8 #fcfcfc #000000 #000000 0 1;
#X floatatom 113 297 5 0 0 0 - - - 0;
#X text 174 299 q;
#X text 297 195 min freq;
#X text 292 128 max freq;
#X obj 274 426 mux~ 0 1;
#X obj 159 393 tgl 15 0 empty bypasswha empty 0 -8 0 8 #fcfcfc #000000 #000000 0 1;
#X obj 32 395 dac~;
#X obj 265 248 loadbang;
#X msg 274 274 5.3;
#X connect 0 0 20 0;
#X connect 0 0 22 0;
#X connect 2 0 3 0;
#X connect 3 0 4 0;
#X connect 4 0 7 0;
#X connect 6 0 2 0;
#X connect 7 0 14 0;
#X connect 9 0 10 0;
#X connect 10 0 8 0;
#X connect 10 0 7 1;
#X connect 11 0 10 1;
#X connect 12 0 13 0;
#X connect 12 0 14 1;
#X connect 12 0 9 0;
#X connect 12 0 10 1;
#X connect 14 0 0 1;
#X connect 15 0 16 0;
#X connect 15 0 0 2;
#X connect 21 0 20 0;
#X connect 24 0 15 0;
#X restore 16 91 pd whawha;
#N canvas 345 529 472 343 saturator 0;
#X obj 152 118 *~ 40;
#X floatatom 212 95 5 0 0 0 - satam - 0;
#X obj 151 147 clip~ -0.5 0.5;
#X obj 352 243 throw~ sat;
#X floatatom 250 121 5 0 0 0 - satlow - 0;
#X floatatom 255 149 5 0 1 0 - sathigh - 0;
#X obj 335 180 mux~ 0 1;
#X obj 290 74 tgl 15 0 empty bypasssat empty 0 -8 0 8 #fcfcfc #000000 #000000 0 1;
#X obj 141 55 catch~ bobout;
#X obj 348 58 loadbang;
#X msg 332 89 1;
#X text 140 15 Simple Fuzz/Saturator;
#X text 15 285 The sound is distorted by amplifying it before applying hard-clipping. The result sounds close to what you’d get if you raised the gain of the input of your soundcard to make it clip., f 79;
#X text 19 118 Amplifies the sound * 40;
#X text 13 148 Hard cliping produces the audible distortion, f 25;
#X text 276 54 bypass;
#X obj 105 212 dac~;
#X connect 0 0 2 0;
#X connect 1 0 0 1;
#X connect 2 0 6 0;
#X connect 4 0 2 1;
#X connect 5 0 2 2;
#X connect 6 0 3 0;
#X connect 7 0 6 0;
#X connect 8 0 0 0;
#X connect 8 0 6 1;
#X connect 9 0 10 0;
#X connect 10 0 7 0;
#X restore 134 39 pd saturator;
#X text 203 39 -->;
#X text 288 40 -->;
#X text 374 39 -->;
#X text 449 41 -->;
#X text 11 40 Resonant frequency;
#X text 107 40 -->;
#X text 11 17 This is the FX chain, f 22;
#X text 10 69 This FX doesnt work yet;
#N canvas 842 111 582 526 reverse 0;
#X obj 206 53 delwrite~ reverse 10;
#X text 179 69 Buffering the input for the env to have enough time to attack, f 23;
#X text 106 19 input;
#X obj 199 149 env~ 256 128;
#X obj 199 169 >;
#X obj 199 189 change;
#X obj 199 209 sel 1;
#X obj 199 229 t b b;
#X obj 172 250 del 6;
#X obj 172 270 pack 1 200;
#X obj 236 248 0 5;
#X obj 151 299 line~;
#X obj 132 324 *~;
#X floatatom 285 158 5 0 0 0 - - - 0;
#X text 321 162 Sensitivity;
#X obj 288 136 hsl 128 15 0 127 0 0 empty revsens empty -2 -8 0 8 #fcfcfc #000000 #000000 0 1;
#X msg 381 106 300;
#X msg 343 108 43;
#X obj 344 84 loadbang;
#X obj 435 139 hsl 128 15 0 127 0 0 empty revattack empty -2 -8 0 8 #fcfcfc #000000 #000000 0 1;
#X floatatom 432 159 5 0 0 0 - - - 0;
#X text 465 162 Attack;
#X text 59 172 Measure the amplitude of the input and sends a bang if it is more than what is set up in the sensitivity fader, f 21;
#X text 265 253 When the attack is detected it turns the volume all the way down and then ramps slowly up again, f 30;
#X text 8 97 Env is set to analyse thhe input in a window of 256 samples to reduce the size of the buffer. It can get increased depending on the needs, f 26;
#X text 24 448 It is based on an envelope follower \, like envelope filters or auto whas. The value of the threshold and the duration of the attack can be set up (as ADSR). Longer attacks and long lasting notes will make it sound like some sort of violin \, and shorter attacks with fast notes can make it sound like a reversed tape., f 90;
#X text 229 416 output;
#X obj 107 36 catch~ delout;
#X obj 134 421 throw~ reverseout;
#X obj 389 337 dac~;
#X obj 24 309 delread~ reverse 10;
#X obj 136 396 mux~ 0 1;
#X obj 167 370 tgl 15 0 empty empty empty 0 -8 0 8 #fcfcfc #000000 #000000 0 1;
#X obj 183 340 loadbang;
#X text 190 376 bypass;
#X connect 3 0 4 0;
#X connect 4 0 5 0;
#X connect 5 0 6 0;
#X connect 6 0 7 0;
#X connect 7 0 8 0;
#X connect 7 1 10 0;
#X connect 8 0 9 0;
#X connect 9 0 11 0;
#X connect 10 0 11 0;
#X connect 11 0 12 1;
#X connect 12 0 31 0;
#X connect 13 0 4 1;
#X connect 15 0 13 0;
#X connect 16 0 19 0;
#X connect 17 0 15 0;
#X connect 18 0 17 0;
#X connect 19 0 20 0;
#X connect 20 0 9 1;
#X connect 27 0 3 0;
#X connect 27 0 0 0;
#X connect 27 0 31 1;
#X connect 30 0 12 0;
#X connect 31 0 28 0;
#X connect 32 0 31 0;
#X connect 33 0 32 0;
#X restore 478 38 pd reverse;
#X text 540 42 -->;
#X text 566 41 Filter;
#X restore 673 47 pd effects;
#N canvas 201 147 336 444 filters 0;
#X obj 42 96 hip~;
#X floatatom 111 148 5 20 20000 0 - - - 0;
#X obj 49 165 *~;
#X floatatom 112 216 5 20 20000 0 - - - 0;
#X obj 15 256 *~;
#X obj 13 182 lop~;
#X obj 120 408 throw~ filter;
#X obj 113 128 hsl 160 15 20 1000 0 0 empty empty empty -2 -8 0 8 #fcfcfc #000000 #000000 0 1;
#X obj 114 196 hsl 160 15 500 20000 0 0 empty empty empty -2 -8 0 8 #fcfcfc #000000 #000000 0 1;
#X text 108 108 high pass filter;
#X text 110 177 low pass filter;
#X floatatom 93 283 5 0 1 0 - vol - 0;
#X obj 9 36 catch~ reverseout;
#X obj 278 221 tgl 15 0 empty empty empty 0 -8 0 8 #fcfcfc #000000 #000000 0 1;
#X text 239 221 bypass;
#X obj 131 342 mux~ 1 2;
#X text 101 72 Typical high pass and low pass filters;
#X connect 0 0 2 0;
#X connect 1 0 0 1;
#X connect 2 0 15 0;
#X connect 3 0 5 1;
#X connect 4 0 15 0;
#X connect 5 0 4 0;
#X connect 7 0 1 0;
#X connect 8 0 3 0;
#X connect 11 0 4 1;
#X connect 11 0 2 1;
#X connect 12 0 0 0;
#X connect 12 0 5 0;
#X connect 12 0 15 1;
#X connect 13 0 15 0;
#X connect 15 0 6 0;
#X coords 0 -1 1 1 200 140 2 100 100;
#X restore 450 87 pd filters;
#N canvas 278 189 1162 441 adsr 0;
#X obj 546 53 r key;
#X obj 547 84 bng 15 250 50 0 empty empty empty 0 -8 0 8 #fcfcfc #000000 #000000;
#X obj 556 139 pack f f f f;
#X floatatom 600 78 5 0 0 0 - - - 0;
#X floatatom 648 78 5 0 0 0 - - - 0;
#X floatatom 692 81 5 0 800 0 - - - 0;
#X obj 597 51 r att;
#X obj 646 50 r dec;
#X obj 694 52 r sust;
#X msg 562 174 1 \$2 \, \$4 \$3 \$2;
#X obj 678 229 vline~;
#X obj 877 48 r keyup;
#X obj 881 73 bng 15 250 50 0 empty empty empty 0 -8 0 8 #fcfcfc #000000 #000000;
#X obj 881 94 pack f f;
#X obj 955 53 r rel;
#X floatatom 953 85 5 0 0 0 - - - 0;
#X msg 883 122 0 \$2;
#X obj 680 302 *~ 2;
#N canvas 0 22 450 278 (subpatch) 0;
#X array ADSR 100 float 1;
#A 0 -1 -1 -1 -1 -1 -1 -1 -1 -1 -1 -1 -1 -1 -1 -1 -1 -1 -1 -1 -1 -1 -1 -1 -1 -1 -1 -1 -1 -1 -1 -1 -1 -1 -1 -1 -1 -1 -1 -1 -1 -1 -1 -1 -1 -1 -1 -1 -1 -1 -1 -1 -1 -1 -1 -1 -1 -1 -1 -1 -1 -1 -1 -1 -1 -1 -1 -1 -1 -1 -1 -1 -1 -1 -1 -1 -1 -1 -1 -1 -1 -1 -1 -1 -1 -1 -1 -1 -1 -1 -1 -1 -1 -1 -1 -1 -1 -1 -1 -1 -1;
#X coords 0 1 99 -1 200 140 1 0 0;
#X restore 281 119 graph;
#X obj 114 115 vsl 15 128 0 800 0 0 att empty empty 0 -9 0 8 #fcfcfc #000000 #000000 0 1;
#X obj 159 115 vsl 15 128 0 800 0 0 dec empty empty 0 -9 0 8 #fcfcfc #000000 #000000 0 1;
#X obj 202 115 vsl 15 128 0 100 0 0 sust empty empty 0 -9 0 8 #fcfcfc #000000 #000000 0 1;
#X obj 247 115 vsl 15 128 0 800 0 0 rel empty empty 0 -9 0 8 #fcfcfc #000000 #000000 0 1;
#X obj 568 317 metro 100;
#X obj 565 293 loadbang;
#X obj 640 388 throw~ ADSR;
#X obj 674 260 -~ 0.5;
#X obj 542 389 tabwrite~ ADSR;
#X text 117 256 A;
#X text 163 255 D;
#X text 204 255 S;
#X text 248 257 R;
#X text 845 13 This comes from the keys patch. The Keyup tells when the release starts, f 37;
#X text 520 5 This also comes from the key patch. The keys tell the vline when the note is pressed and for how long.;
#X text 359 389 This writes the table in the ADSR;
#X connect 0 0 1 0;
#X connect 1 0 2 0;
#X connect 2 0 9 0;
#X connect 3 0 2 1;
#X connect 4 0 2 2;
#X connect 5 0 2 3;
#X connect 6 0 3 0;
#X connect 7 0 4 0;
#X connect 8 0 5 0;
#X connect 9 0 10 0;
#X connect 10 0 25 0;
#X connect 10 0 26 0;
#X connect 11 0 12 0;
#X connect 12 0 13 0;
#X connect 13 0 16 0;
#X connect 14 0 15 0;
#X connect 15 0 13 1;
#X connect 16 0 10 0;
#X connect 17 0 27 0;
#X connect 23 0 27 0;
#X connect 24 0 23 0;
#X connect 26 0 17 0;
#X coords 0 -1 1 1 400 180 2 100 100;
#X restore 242 237 pd adsr;
#X coords 0 0 1 1 85 60 0;
