#N canvas 0 25 1440 847 12;
#X declare -path else;
#X declare -lib iemlib;
#X declare -lib iemnet;
#X obj 0 -4 cnv 19 1800 1500 empty empty Main\ Window 20 12 0 20 #e0e0e0 #404040 0;
#N canvas 0 22 450 278 (subpatch) 0;
#X array scope 1000 float 5;
#A 0 0 0 0 0 0 0 0 0 0 0 0 0 0 0 0 0 0 0 0 0 0 0 0 0 0 0 0 0 0 0 0 0 0 0 0 0 0 0 0 0 0 0 0 0 0 0 0 0 0 0 0 0 0 0 0 0 0 0 0 0 0 0 0 0 0 0 0 0 0 0 0 0 0 0 0 0 0 0 0 0 0 0 0 0 0 0 0 0 0 0 0 0 0 0 0 0 0 0 0 0 0 0 0 0 0 0 0 0 0 0 0 0 0 0 0 0 0 0 0 0 0 0 0 0 0 0 0 0 0 0 0 0 0 0 0 0 0 0 0 0 0 0 0 0 0 0 0 0 0 0 0 0 0 0 0 0 0 0 0 0 0 0 0 0 0 0 0 0 0 0 0 0 0 0 0 0 0 0 0 0 0 0 0 0 0 0 0 0 0 0 0 0 0 0 0 0 0 0 0 0 0 0 0 0 0 0 0 0 0 0 0 0 0 0 0 0 0 0 0 0 0 0 0 0 0 0 0 0 0 0 0 0 0 0 0 0 0 0 0 0 0 0 0 0 0 0 0 0 0 0 0 0 0 0 0 0 0 0 0 0 0 0 0 0 0 0 0 0 0 0 0 0 0 0 0 0 0 0 0 0 0 0 0 0 0 0 0 0 0 0 0 0 0 0 0 0 0 0 0 0 0 0 0 0 0 0 0 0 0 0 0 0 0 0 0 0 0 0 0 0 0 0 0 0 0 0 0 0 0 0 0 0 0 0 0 0 0 0 0 0 0 0 0 0 0 0 0 0 0 0 0 0 0 0 0 0 0 0 0 0 0 0 0 0 0 0 0 0 0 0 0 0 0 0 0 0 0 0 0 0 0 0 0 0 0 0 0 0 0 0 0 0 0 0 0 0 0 0 0 0 0 0 0 0 0 0 0 0 0 0 0 0 0 0 0 0 0 0 0 0 0 0 0 0 0 0 0 0 0 0 0 0 0 0 0 0 0 0 0 0 0 0 0 0 0 0 0 0 0 0 0 0 0 0 0 0 0 0 0 0 0 0 0 0 0 0 0 0 0 0 0 0 0 0 0 0 0 0 0 0 0 0 0 0 0 0 0 0 0 0 0 0 0 0 0 0 0 0 0 0 0 0 0 0 0 0 0 0 0 0 0 0 0 0 0 0 0 0 0 0 0 0 0 0 0 0 0 0 0 0 0 0 0 0 0 0 0 0 0 0 0 0 0 0 0 0 0 0 0 0 0 0 0 0 0 0 0 0 0 0 0 0 0 0 0 0 0 0 0 0 0 0 0 0 0 0 0 0 0 0 0 0 0 0 0 0 0 0 0 0 0 0 0 0 0 0 0 0 0 0 0 0 0 0 0 0 0 0 0 0 0 0 0 0 0 0 0 0 0 0 0 0 0 0 0 0 0 0 0 0 0 0 0 0 0 0 0 0 0 0 0 0 0 0 0 0 0 0 0 0 0 0 0 0 0 0 0 0 0 0 0 0 0 0 0 0 0 0 0 0 0 0 0 0 0 0 0 0 0 0 0 0 0 0 0 0 0 0 0 0 0 0 0 0 0 0 0 0 0 0 0 0 0 0 0 0 0 0 0 0 0 0 0 0 0 0 0 0 0 0 0 0 0 0 0 0 0 0 0 0 0 0 0 0 0 0 0 0 0 0 0 0 0 0 0 0 0 0 0 0 0 0 0 0 0 0 0 0 0 0 0 0 0 0 0 0 0 0 0 0 0 0 0 0 0 0 0 0 0 0 0 0 0 0 0 0 0 0 0 0 0 0 0 0 0 0 0 0 0 0 0 0 0 0 0 0 0 0 0 0 0 0 0 0 0 0 0 0 0 0 0 0 0 0 0 0 0 0 0 0 0 0 0 0 0 0 0 0 0 0 0 0 0 0 0 0 0 0 0 0 0 0 0 0 0 0 0 0 0 0 0 0 0 0 0 0 0 0 0 0 0 0 0 0 0 0 0 0 0 0 0 0 0 0 0 0 0 0 0 0 0 0 0 0 0 0 0 0 0 0 0 0 0 0 0 0 0 0 0 0 0 0 0 0 0 0 0 0 0 0 0 0 0 0 0 0 0 0 0 0 0 0 0 0 0 0 0 0 0 0 0 0 0 0 0 0 0 0 0 0 0 0 0 0 0 0 0 0 0 0 0 0 0 0 0 0 0 0 0 0 0 0 0 0 0 0 0 0 0 0 0 0 0 0 0 0 0 0 0 0 0 0 0 0 0 0 0 0 0 0;
#X coords 0 1 999 -1 200 140 1;
#X restore 30 680 graph;
#X obj 16 45 cnv 19 250 245 empty empty Basic\ Controls 25 14 0 12 #bbbbbb #ffffff 0;
#X obj 34 91 tgl 15 0 empty dspon/off DSP\ On/Off 17 7 0 12 #9f9f9f #000000 #000000 0 1;
#X msg 34 112 \; pd dsp \$1;
#X obj 34 228 tgl 25 0 startclock empty start\ clock\ On/Off 27 12 0 15 #9f9f9f #000000 #000000 0 1;
#X obj 37 179 hsl 128 15 0 160 0 0 bpmVal empty BPM -2 -8 0 14 #bbbbbb #000000 #000000 0 1;
#X floatatom 34 199 5 0 0 0 - - - 0;
#X obj 19 299 cnv 19 250 290 empty empty Bass 20 12 0 14 #e3c6ff #404040 0;
#X obj 30 559 hsl 162 19 0 1 0 0 bass_vol empty bass_volume -2 -10 0 12 #c7c6ff #2f004d #000000 0 1;
#X obj 29 473 hsl 162 19 0 5000 0 0 bassfreq_cutoff empty Bass\ Freq\ Cutoff -2 -10 0 12 #c7c6ff #000000 #000000 0 1;
#X obj 29 516 hsl 162 19 0 3.5 0 0 bassfilter_qval empty Bass\ Filter\ Q-value -2 -10 0 12 #c7c6ff #000000 #000000 0 1;
#X obj 28 349 tgl 19 0 bassOnOff empty bass\ OnOff 0 -10 0 12 #c7c6ff #2f004d #000000 0 1;
#X text 148 305 Set Up the enevlop in the internals to start;
#X obj 282 45 cnv 19 240 245 empty empty Filter\ Ping 20 12 0 12 #c6ffc7 #000000 0;
#X obj 293 241 hsl 162 19 1 6 0 0 filterpingspeed empty filterping\ speed -2 -10 0 12 #fcfcfc #000000 #000000 0 1;
#X floatatom 290 265 5 0 0 0 - - - 0;
#X obj 294 176 hsl 162 19 0 1 0 0 filterping_vol empty filterping\ volume -2 -10 0 12 #fcfcfc #000000 #000000 0 1;
#X floatatom 291 200 5 0 0 0 - - - 0;
#N canvas 0 22 450 278 (subpatch) 0;
#X array filter_ping 1000 float 3;
#A 0 0 0 0 0 0 0 0 0 0 0 0 0 0 0 0 0 0 0 0 0 0 0 0 0 0 0 0 0 0 0 0 0 0 0 0 0 0 0 0 0 0 0 0 0 0 0 0 0 0 0 0 0 0 0 0 0 0 0 0 0 0 0 0 0 0 0 0 0 0 0 0 0 0 0 0 0 0 0 0 0 0 0 0 0 0 0 0 0 0 0 0 0 0 0 0 0 0 0 0 0 0 0 0 0 0 0 0 0 0 0 0 0 0 0 0 0 0 0 0 0 0 0 0 0 0 0 0 0 0 0 0 0 0 0 0 0 0 0 0 0 0 0 0 0 0 0 0 0 0 0 0 0 0 0 0 0 0 0 0 0 0 0 0 0 0 0 0 0 0 0 0 0 0 0 0 0 0 0 0 0 0 0 0 0 0 0 0 0 0 0 0 0 0 0 0 0 0 0 0 0 0 0 0 0 0 0 0 0 0 0 0 0 0 0 0 0 0 0 0 0 0 0 0 0 0 0 0 0 0 0 0 0 0 0 0 0 0 0 0 0 0 0 0 0 0 0 0 0 0 0 0 0 0 0 0 0 0 0 0 0 0 0 0 0 0 0 0 0 0 0 0 0 0 0 0 0 0 0 0 0 0 0 0 0 0 0 0 0 0 0 0 0 0 0 0 0 0 0 0 0 0 0 0 0 0 0 0 0 0 0 0 0 0 0 0 0 0 0 0 0 0 0 0 0 0 0 0 0 0 0 0 0 0 0 0 0 0 0 0 0 0 0 0 0 0 0 0 0 0 0 0 0 0 0 0 0 0 0 0 0 0 0 0 0 0 0 0 0 0 0 0 0 0 0 0 0 0 0 0 0 0 0 0 0 0 0 0 0 0 0 0 0 0 0 0 0 0 0 0 0 0 0 0 0 0 0 0 0 0 0 0 0 0 0 0 0 0 0 0 0 0 0 0 0 0 0 0 0 0 0 0 0 0 0 0 0 0 0 0 0 0 0 0 0 0 0 0 0 0 0 0 0 0 0 0 0 0 0 0 0 0 0 0 0 0 0 0 0 0 0 0 0 0 0 0 0 0 0 0 0 0 0 0 0 0 0 0 0 0 0 0 0 0 0 0 0 0 0 0 0 0 0 0 0 0 0 0 0 0 0 0 0 0 0 0 0 0 0 0 0 0 0 0 0 0 0 0 0 0 0 0 0 0 0 0 0 0 0 0 0 0 0 0 0 0 0 0 0 0 0 0 0 0 0 0 0 0 0 0 0 0 0 0 0 0 0 0 0 0 0 0 0 0 0 0 0 0 0 0 0 0 0 0 0 0 0 0 0 0 0 0 0 0 0 0 0 0 0 0 0 0 0 0 0 0 0 0 0 0 0 0 0 0 0 0 0 0 0 0 0 0 0 0 0 0 0 0 0 0 0 0 0 0 0 0 0 0 0 0 0 0 0 0 0 0 0 0 0 0 0 0 0 0 0 0 0 0 0 0 0 0 0 0 0 0 0 0 0 0 0 0 0 0 0 0 0 0 0 0 0 0 0 0 0 0 0 0 0 0 0 0 0 0 0 0 0 0 0 0 0 0 0 0 0 0 0 0 0 0 0 0 0 0 0 0 0 0 0 0 0 0 0 0 0 0 0 0 0 0 0 0 0 0 0 0 0 0 0 0 0 0 0 0 0 0 0 0 0 0 0 0 0 0 0 0 0 0 0 0 0 0 0 0 0 0 0 0 0 0 0 0 0 0 0 0 0 0 0 0 0 0 0 0 0 0 0 0 0 0 0 0 0 0 0 0 0 0 0 0 0 0 0 0 0 0 0 0 0 0 0 0 0 0 0 0 0 0 0 0 0 0 0 0 0 0 0 0 0 0 0 0 0 0 0 0 0 0 0 0 0 0 0 0 0 0 0 0 0 0 0 0 0 0 0 0 0 0 0 0 0 0 0 0 0 0 0 0 0 0 0 0 0 0 0 0 0 0 0 0 0 0 0 0 0 0 0 0 0 0 0 0 0 0 0 0 0 0 0 0 0 0 0 0 0 0 0 0 0 0 0 0 0 0 0 0 0 0 0 0 0 0 0 0 0 0 0 0 0 0 0 0 0 0 0 0 0 0 0 0 0 0 0 0 0 0 0 0 0 0 0 0 0 0 0 0 0 0 0 0 0 0 0 0 0 0 0 0 0 0 0 0 0 0 0 0 0 0 0 0 0 0 0 0 0 0 0 0 0 0 0 0 0 0 0 0 0 0 0 0 0;
#X coords 0 1 1000 -1 115 54 1;
#X restore 291 93 graph;
#N canvas 0 22 450 278 (subpatch) 0;
#X array bass_array 1000 float 3;
#A 0 0 0 0 0 0 0 0 0 0 0 0 0 0 0 0 0 0 0 0 0 0 0 0 0 0 0 0 0 0 0 0 0 0 0 0 0 0 0 0 0 0 0 0 0 0 0 0 0 0 0 0 0 0 0 0 0 0 0 0 0 0 0 0 0 0 0 0 0 0 0 0 0 0 0 0 0 0 0 0 0 0 0 0 0 0 0 0 0 0 0 0 0 0 0 0 0 0 0 0 0 0 0 0 0 0 0 0 0 0 0 0 0 0 0 0 0 0 0 0 0 0 0 0 0 0 0 0 0 0 0 0 0 0 0 0 0 0 0 0 0 0 0 0 0 0 0 0 0 0 0 0 0 0 0 0 0 0 0 0 0 0 0 0 0 0 0 0 0 0 0 0 0 0 0 0 0 0 0 0 0 0 0 0 0 0 0 0 0 0 0 0 0 0 0 0 0 0 0 0 0 0 0 0 0 0 0 0 0 0 0 0 0 0 0 0 0 0 0 0 0 0 0 0 0 0 0 0 0 0 0 0 0 0 0 0 0 0 0 0 0 0 0 0 0 0 0 0 0 0 0 0 0 0 0 0 0 0 0 0 0 0 0 0 0 0 0 0 0 0 0 0 0 0 0 0 0 0 0 0 0 0 0 0 0 0 0 0 0 0 0 0 0 0 0 0 0 0 0 0 0 0 0 0 0 0 0 0 0 0 0 0 0 0 0 0 0 0 0 0 0 0 0 0 0 0 0 0 0 0 0 0 0 0 0 0 0 0 0 0 0 0 0 0 0 0 0 0 0 0 0 0 0 0 0 0 0 0 0 0 0 0 0 0 0 0 0 0 0 0 0 0 0 0 0 0 0 0 0 0 0 0 0 0 0 0 0 0 0 0 0 0 0 0 0 0 0 0 0 0 0 0 0 0 0 0 0 0 0 0 0 0 0 0 0 0 0 0 0 0 0 0 0 0 0 0 0 0 0 0 0 0 0 0 0 0 0 0 0 0 0 0 0 0 0 0 0 0 0 0 0 0 0 0 0 0 0 0 0 0 0 0 0 0 0 0 0 0 0 0 0 0 0 0 0 0 0 0 0 0 0 0 0 0 0 0 0 0 0 0 0 0 0 0 0 0 0 0 0 0 0 0 0 0 0 0 0 0 0 0 0 0 0 0 0 0 0 0 0 0 0 0 0 0 0 0 0 0 0 0 0 0 0 0 0 0 0 0 0 0 0 0 0 0 0 0 0 0 0 0 0 0 0 0 0 0 0 0 0 0 0 0 0 0 0 0 0 0 0 0 0 0 0 0 0 0 0 0 0 0 0 0 0 0 0 0 0 0 0 0 0 0 0 0 0 0 0 0 0 0 0 0 0 0 0 0 0 0 0 0 0 0 0 0 0 0 0 0 0 0 0 0 0 0 0 0 0 0 0 0 0 0 0 0 0 0 0 0 0 0 0 0 0 0 0 0 0 0 0 0 0 0 0 0 0 0 0 0 0 0 0 0 0 0 0 0 0 0 0 0 0 0 0 0 0 0 0 0 0 0 0 0 0 0 0 0 0 0 0 0 0 0 0 0 0 0 0 0 0 0 0 0 0 0 0 0 0 0 0 0 0 0 0 0 0 0 0 0 0 0 0 0 0 0 0 0 0 0 0 0 0 0 0 0 0 0 0 0 0 0 0 0 0 0 0 0 0 0 0 0 0 0 0 0 0 0 0 0 0 0 0 0 0 0 0 0 0 0 0 0 0 0 0 0 0 0 0 0 0 0 0 0 0 0 0 0 0 0 0 0 0 0 0 0 0 0 0 0 0 0 0 0 0 0 0 0 0 0 0 0 0 0 0 0 0 0 0 0 0 0 0 0 0 0 0 0 0 0 0 0 0 0 0 0 0 0 0 0 0 0 0 0 0 0 0 0 0 0 0 0 0 0 0 0 0 0 0 0 0 0 0 0 0 0 0 0 0 0 0 0 0 0 0 0 0 0 0 0 0 0 0 0 0 0 0 0 0 0 0 0 0 0 0 0 0 0 0 0 0 0 0 0 0 0 0 0 0 0 0 0 0 0 0 0 0 0 0 0 0 0 0 0 0 0 0 0 0 0 0 0 0 0 0 0 0 0 0 0 0 0 0 0 0 0 0 0 0 0 0 0 0 0 0 0 0 0 0 0 0 0 0 0 0 0 0 0 0 0 0 0 0 0 0 0 0 0 0 0 0 0 0 0 0 0 0 0 0 0 0 0 0 0 0 0 0 0 0 0 0 0 0;
#X coords 0 1 1000 -1 106 53 1;
#X restore 24 398 graph;
#X obj 284 300 cnv 19 600 350 empty empty Granular 20 12 0 14 #c6feff #404040 0;
#X obj 294 446 hsl 128 15 0 3000 0 0 grainDuration empty Grain\ Duration\ (samples) -2 -8 0 10 #faff00 #000000 #000000 0 1;
#X obj 292 365 bng 15 250 50 0 loadfile empty Click\ here\ to\ load\ file 17 7 0 10 #00faff #000000 #000000;
#X obj 292 391 bng 15 250 50 0 loadtimewav empty click\ here\ to\ load\ vox\ file 17 7 0 10 #00faff #000000 #000000;
#X obj 299 618 hsl 128 15 0 1 0 0 granVol empty Grain\ Volume -2 -8 0 10 #9c00ff #000000 #000000 0 1;
#X floatatom 295 498 8 0 0 1 grain\ duration\ in\ samples graindursamples - 0;
#X floatatom 295 471 8 0 0 1 grain\ duration\ in\ miliseconds grain_dur - 0;
#X text 293 337 LOAD FILES FOR GRANULAR;
#N canvas 150 517 775 355 sound_internals 0;
#X obj 66 664 dac~;
#X obj 632 625 tabwrite~ scope;
#X obj 631 598 metro 200;
#X obj 633 573 tgl 15 0 empty empty empty 17 7 0 10 #fcfcfc #000000 #000000 0 1;
#X obj 68 610 *~;
#X obj 337 565 hsl 128 15 0 1 0 0 empty finalVol empty -2 -8 0 10 #00faff #000000 #000000 0 1;
#X obj 337 512 loadbang;
#X msg 337 536 0.2;
#X floatatom 334 590 5 0 0 0 - - - 0;
#N canvas 288 25 1152 847 bass 0;
#X obj 19 16 cnv 25 800 1000 empty empty Bass\ Generator 20 12 0 14 #e0e0e0 #404040 0;
#X obj 29 191 bng 15 250 50 0 empty empty empty 17 7 0 10 #fcfcfc #000000 #000000;
#X obj 104 192 bng 15 250 50 0 empty empty empty 17 7 0 10 #fcfcfc #000000 #000000;
#X floatatom 29 258 5 0 0 0 - - - 0;
#X text 58 211 G;
#X obj 36 307 hsl 128 15 16.35 100 0 0 empty empty empty -2 -8 0 10 #fcfcfc #000000 #000000 0 1;
#X obj 264 315 bng 15 250 50 0 empty empty empty 17 7 0 10 #fcfcfc #000000 #000000;
#X floatatom 33 329 5 0 0 0 - - - 0;
#N canvas 762 37 750 821 harmnoicOSC1 0;
#X obj 197 374 i;
#X floatatom 132 398 5 0 0 0 - - - 0;
#X obj 195 415 sel 1 2 3 4 5 6 7 8 9 10 11 12 13 14 15 16;
#X obj 149 614 * 32, f 6;
#X obj 181 744 / 2;
#X obj 217 744 / 3;
#X obj 253 744 / 4;
#X obj 289 744 / 5;
#X obj 325 744 / 6;
#X obj 361 744 / 7;
#X obj 397 744 / 8;
#X obj 433 744 / 9;
#X obj 469 744 / 10;
#X obj 505 744 / 11;
#X obj 541 744 / 12;
#X obj 577 744 / 13;
#X obj 613 744 / 14;
#X obj 649 744 / 15;
#X obj 686 743 / 16;
#X floatatom 116 785 5 0 0 0 - - - 0;
#X floatatom 157 785 5 0 0 0 - - - 0;
#X floatatom 199 786 5 0 0 0 - - - 0;
#X floatatom 240 786 5 0 0 0 - - - 0;
#X floatatom 280 786 5 0 0 0 - - - 0;
#X floatatom 321 786 5 0 0 0 - - - 0;
#X floatatom 363 787 5 0 0 0 - - - 0;
#X floatatom 404 787 5 0 0 0 - - - 0;
#X floatatom 445 787 5 0 0 0 - - - 0;
#X floatatom 486 787 5 0 0 0 - - - 0;
#X floatatom 528 788 5 0 0 0 - - - 0;
#X floatatom 569 788 5 0 0 0 - - - 0;
#X floatatom 609 788 5 0 0 0 - - - 0;
#X floatatom 650 788 5 0 0 0 - - - 0;
#X floatatom 692 789 5 0 0 0 - - - 0;
#X floatatom 733 789 5 0 0 0 - - - 0;
#X obj 322 884 phasor~;
#X floatatom 150 592 5 0 0 0 - - - 0;
#X obj 145 744 / 1;
#X obj 456 467 bng 15 250 50 0 empty empty empty 17 7 0 10 #fcfcfc #000000 #000000;
#X obj 391 470 bng 15 250 50 0 empty empty empty 17 7 0 10 #fcfcfc #000000 #000000;
#X obj 412 468 bng 15 250 50 0 empty empty empty 17 7 0 10 #fcfcfc #000000 #000000;
#X obj 433 467 bng 15 250 50 0 empty empty empty 17 7 0 10 #fcfcfc #000000 #000000;
#X obj 370 471 bng 15 250 50 0 empty empty empty 17 7 0 10 #fcfcfc #000000 #000000;
#X obj 349 472 bng 15 250 50 0 empty empty empty 17 7 0 10 #fcfcfc #000000 #000000;
#X obj 284 475 bng 15 250 50 0 empty empty empty 17 7 0 10 #fcfcfc #000000 #000000;
#X obj 305 473 bng 15 250 50 0 empty empty empty 17 7 0 10 #fcfcfc #000000 #000000;
#X obj 326 472 bng 15 250 50 0 empty empty empty 17 7 0 10 #fcfcfc #000000 #000000;
#X obj 263 476 bng 15 250 50 0 empty empty empty 17 7 0 10 #fcfcfc #000000 #000000;
#X obj 242 477 bng 15 250 50 0 empty empty empty 17 7 0 10 #fcfcfc #000000 #000000;
#X obj 177 480 bng 15 250 50 0 empty empty empty 17 7 0 10 #fcfcfc #000000 #000000;
#X obj 198 478 bng 15 250 50 0 empty empty empty 17 7 0 10 #fcfcfc #000000 #000000;
#X obj 219 477 bng 15 250 50 0 empty empty empty 17 7 0 10 #fcfcfc #000000 #000000;
#X obj 156 481 bng 15 250 50 0 empty empty empty 17 7 0 10 #fcfcfc #000000 #000000;
#X obj 135 482 bng 15 250 50 0 empty empty empty 17 7 0 10 #fcfcfc #000000 #000000;
#X obj 227 314 hsl 128 16 1 16 0 0 empty empty empty -2 -8 0 10 #fcfcfc #000000 #000000 0 1;
#X floatatom 224 335 5 0 0 0 - - - 0;
#X msg 400 323 16;
#X msg 270 363 1;
#X obj 320 919 outlet~;
#X obj 150 567 inlet;
#X obj 224 290 r updateSlider;
#X connect 0 0 1 0;
#X connect 0 0 2 0;
#X connect 2 0 53 0;
#X connect 2 1 52 0;
#X connect 2 2 49 0;
#X connect 2 3 50 0;
#X connect 2 4 51 0;
#X connect 2 5 48 0;
#X connect 2 6 47 0;
#X connect 2 7 44 0;
#X connect 2 8 45 0;
#X connect 2 9 46 0;
#X connect 2 10 43 0;
#X connect 2 11 42 0;
#X connect 2 12 39 0;
#X connect 2 13 40 0;
#X connect 2 14 41 0;
#X connect 2 15 38 0;
#X connect 3 0 18 0;
#X connect 3 0 17 0;
#X connect 3 0 16 0;
#X connect 3 0 15 0;
#X connect 3 0 14 0;
#X connect 3 0 13 0;
#X connect 3 0 12 0;
#X connect 3 0 11 0;
#X connect 3 0 10 0;
#X connect 3 0 9 0;
#X connect 3 0 8 0;
#X connect 3 0 7 0;
#X connect 3 0 6 0;
#X connect 3 0 5 0;
#X connect 3 0 4 0;
#X connect 3 0 37 0;
#X connect 4 0 20 0;
#X connect 5 0 21 0;
#X connect 6 0 22 0;
#X connect 7 0 23 0;
#X connect 8 0 24 0;
#X connect 9 0 25 0;
#X connect 10 0 26 0;
#X connect 11 0 27 0;
#X connect 12 0 28 0;
#X connect 13 0 29 0;
#X connect 14 0 30 0;
#X connect 15 0 31 0;
#X connect 16 0 32 0;
#X connect 17 0 33 0;
#X connect 18 0 34 0;
#X connect 19 0 35 0;
#X connect 20 0 35 0;
#X connect 21 0 35 0;
#X connect 22 0 35 0;
#X connect 23 0 35 0;
#X connect 24 0 35 0;
#X connect 25 0 35 0;
#X connect 26 0 35 0;
#X connect 27 0 35 0;
#X connect 28 0 35 0;
#X connect 29 0 35 0;
#X connect 30 0 35 0;
#X connect 31 0 35 0;
#X connect 32 0 35 0;
#X connect 33 0 35 0;
#X connect 34 0 35 0;
#X connect 35 0 58 0;
#X connect 36 0 3 0;
#X connect 37 0 19 0;
#X connect 38 0 37 0;
#X connect 39 0 6 0;
#X connect 40 0 5 0;
#X connect 41 0 4 0;
#X connect 43 0 7 0;
#X connect 44 0 10 0;
#X connect 45 0 9 0;
#X connect 46 0 8 0;
#X connect 47 0 11 0;
#X connect 48 0 12 0;
#X connect 49 0 16 0;
#X connect 50 0 14 0;
#X connect 51 0 13 0;
#X connect 52 0 17 0;
#X connect 53 0 18 0;
#X connect 54 0 55 0;
#X connect 55 0 0 0;
#X connect 56 0 0 0;
#X connect 57 0 0 0;
#X connect 59 0 36 0;
#X connect 60 0 54 0;
#X restore 92 387 pd harmnoicOSC1;
#X obj 30 389 phasor~;
#X obj 29 483 /~ 3;
#X obj 29 512 lop~ 1000;
#X obj 29 540 lop~ 1000;
#X obj 30 571 lop~ 1000;
#X floatatom 117 485 5 0 0 0 - - - 0;
#X obj 120 460 hsl 128 15 0 5000 0 0 empty bassfreq_cutoff empty -2 -8 0 10 #fcfcfc #000000 #000000 0 1;
#X obj 266 337 s updateSlider;
#X obj 31 606 lop~ 1000;
#X obj 79 701 bob~;
#X obj 155 652 hsl 128 15 1 3.5 0 0 empty bassfilter_qval q\ value -2 -8 0 10 #fcfcfc #000000 #000000 0 1;
#X floatatom 152 675 5 0 0 0 - - - 0;
#X obj 79 848 *~;
#X text 603 164 Envelope;
#X msg 29 211 49;
#X obj 78 1025 throw~ bass;
#X obj 182 596 line 0 100;
#X msg 182 565 0 \, 2.4 1000;
#X obj 181 502 t b b;
#X obj 244 517 delay 1000;
#X obj 30 45 receive note1;
#X obj 141 46 receive note2;
#X obj 251 48 receive note3;
#X obj 363 49 receive note4;
#X floatatom 30 110 5 0 0 0 - - - 0;
#X obj 175 190 bng 15 250 50 0 empty empty empty 17 7 0 10 #fcfcfc #000000 #000000;
#X obj 240 190 bng 15 250 50 0 empty empty empty 17 7 0 10 #fcfcfc #000000 #000000;
#X text 291 209 C;
#X obj 32 138 sel 0 1 2 3;
#X msg 103 211 61.74;
#X msg 170 210 46.25;
#X text 142 211 B;
#X text 213 209 F#;
#X msg 249 209 65.41;
#X obj 30 282 / 1;
#X obj 359 415 loadbang;
#X obj 387 722 envgen 203 123 1 0;
#X msg 348 659 bang;
#X obj 385 871 line;
#X obj 458 943 tgl 19 0 empty empty empty 0 -10 0 12 #fcfcfc #000000 #000000 0 1;
#X obj 459 969 metro 200;
#X obj 459 993 tabwrite~ bass_array;
#X obj 464 432 tgl 19 0 empty empty empty 0 -10 0 12 #fcfcfc #000000 #000000 0 1;
#X obj 552 312 receive 4bar_time;
#X floatatom 552 336 5 0 0 0 - - - 0;
#X msg 330 556 2.4 \, 1.5 1000;
#X obj 80 948 *~ 1;
#X obj 105 922 tgl 19 0 empty bassOnOff bass\ OnOff 0 -10 0 12 #fcfcfc #000000 #000000 0 1;
#X obj 80 987 *~;
#X obj 142 948 hsl 162 19 0 1 0 0 empty bass_vol bass_vol -2 -10 0 12 #fcfcfc #000000 #000000 0 1;
#X floatatom 139 972 5 0 0 0 - - - 0;
#X obj 461 365 loadbang;
#X msg 292 461 433;
#X obj 464 458 metro 10;
#X obj 460 893 loadbang;
#X msg 460 917 1;
#X obj 464 482 bng 19 250 50 0 empty empty empty 0 -10 0 12 #fcfcfc #000000 #000000;
#X msg 518 626 duration \$1;
#X msg 523 667 sustain \$1;
#X obj 346 245 bng 19 250 50 0 bangbass empty visual\ bang 0 -10 0 12 #fcfcfc #000000 #000000;
#X connect 1 0 23 0;
#X connect 1 0 68 0;
#X connect 2 0 38 0;
#X connect 2 0 68 0;
#X connect 3 0 43 0;
#X connect 5 0 7 0;
#X connect 5 0 6 0;
#X connect 6 0 16 0;
#X connect 6 0 27 0;
#X connect 7 0 9 0;
#X connect 7 0 8 0;
#X connect 8 0 10 0;
#X connect 9 0 10 0;
#X connect 10 0 11 0;
#X connect 11 0 12 0;
#X connect 12 0 13 0;
#X connect 13 0 17 0;
#X connect 14 0 11 1;
#X connect 14 0 13 1;
#X connect 14 0 12 1;
#X connect 14 0 17 1;
#X connect 14 0 18 1;
#X connect 15 0 14 0;
#X connect 17 0 18 0;
#X connect 18 0 21 0;
#X connect 19 0 20 0;
#X connect 20 0 18 2;
#X connect 21 0 50 0;
#X connect 21 0 55 0;
#X connect 23 0 3 0;
#X connect 25 0 19 0;
#X connect 26 0 25 0;
#X connect 27 0 26 0;
#X connect 27 1 28 0;
#X connect 28 0 54 0;
#X connect 29 0 33 0;
#X connect 30 0 33 0;
#X connect 31 0 33 0;
#X connect 32 0 33 0;
#X connect 33 0 37 0;
#X connect 34 0 39 0;
#X connect 34 0 68 0;
#X connect 35 0 42 0;
#X connect 35 0 68 0;
#X connect 37 0 1 0;
#X connect 37 1 2 0;
#X connect 37 2 34 0;
#X connect 37 3 35 0;
#X connect 38 0 3 0;
#X connect 39 0 3 0;
#X connect 42 0 3 0;
#X connect 43 0 5 0;
#X connect 44 0 61 0;
#X connect 45 0 47 0;
#X connect 46 0 45 0;
#X connect 47 0 21 1;
#X connect 48 0 49 0;
#X connect 49 0 50 0;
#X connect 51 0 62 0;
#X connect 52 0 53 0;
#X connect 53 0 66 0;
#X connect 53 0 67 0;
#X connect 54 0 25 0;
#X connect 55 0 57 0;
#X connect 56 0 55 1;
#X connect 57 0 24 0;
#X connect 58 0 59 0;
#X connect 59 0 57 1;
#X connect 60 0 51 0;
#X connect 61 0 15 0;
#X connect 62 0 65 0;
#X connect 63 0 64 0;
#X connect 64 0 48 0;
#X connect 65 0 45 0;
#X restore 119 41 pd bass;
#N canvas 567 25 873 847 clock 1;
#X obj 64 15 cnv 30 800 450 empty empty CLOCK 20 12 0 14 #c7c6ff #404040 0;
#X obj 395 66 receive quarter_time;
#X obj 395 90 * 4;
#X floatatom 395 114 5 0 0 0 - - - 0;
#X obj 363 153 metro;
#X obj 316 80 receive ON;
#X obj 363 177 bng 15 250 50 0 empty empty empty 17 7 0 10 #fcfcfc #000000 #000000;
#X obj 363 197 send whole_note;
#X obj 423 154 send whole_time;
#X obj 300 604 bng 15 250 50 0 empty empty empty 17 7 0 10 #fcfcfc #000000 #000000;
#X obj 300 630 int 1;
#X obj 414 667 + 1;
#X floatatom 299 685 5 0 0 0 - - - 0;
#X obj 197 691 loadbang;
#X msg 197 715 1;
#X obj 100 673 receive ON;
#X obj 123 529 receive ON;
#X obj 123 591 bng 15 250 50 0 empty empty empty 17 7 0 10 #fcfcfc #000000 #000000;
#X msg 123 611 -1;
#X obj 48 567 loadbang;
#X text 66 501 measure counter;
#X obj 123 553 sel 0;
#X obj 100 697 sel 0;
#X floatatom 395 758 5 0 0 0 - - - 0;
#X floatatom 395 797 5 0 0 0 - - - 0;
#X obj 683 71 receive quarter_time;
#X floatatom 683 119 5 0 0 0 - - - 0;
#X obj 651 158 metro;
#X obj 584 85 receive ON;
#X obj 651 182 bng 15 250 50 0 empty empty empty 17 7 0 10 #fcfcfc #000000 #000000;
#X obj 683 95 * 2;
#X obj 651 202 send half_note;
#X obj 729 152 send half_time;
#X obj 441 270 receive quarter_time;
#X floatatom 441 318 5 0 0 0 - - - 0;
#X obj 409 357 metro;
#X obj 342 284 receive ON;
#X obj 409 381 bng 15 250 50 0 empty empty empty 17 7 0 10 #fcfcfc #000000 #000000;
#X obj 441 294 / 2;
#X obj 409 401 send eighth_note;
#X obj 704 272 receive quarter_time;
#X floatatom 704 320 5 0 0 0 - - - 0;
#X obj 672 359 metro;
#X obj 605 286 receive ON;
#X obj 672 383 bng 15 250 50 0 empty empty empty 17 7 0 10 #fcfcfc #000000 #000000;
#X obj 672 403 send sixteenth_note;
#X obj 704 296 / 4;
#X obj 173 268 receive quarter_time;
#X floatatom 173 316 5 0 0 0 - - - 0;
#X obj 141 355 metro;
#X obj 74 282 receive ON;
#X obj 141 379 bng 15 250 50 0 empty empty empty 17 7 0 10 #fcfcfc #000000 #000000;
#X obj 173 292 * 1;
#X obj 141 399 send quarter_note;
#X obj 314 122 bng 15 250 50 0 empty empty empty 17 7 0 10 #fcfcfc #000000 #000000;
#X obj 163 75 receive quarter_time;
#X floatatom 163 123 5 0 0 0 - - - 0;
#X obj 131 162 metro;
#X obj 84 89 receive ON;
#X obj 131 186 bng 15 250 50 0 empty empty empty 17 7 0 10 #fcfcfc #000000 #000000;
#X obj 82 131 bng 15 250 50 0 empty empty empty 17 7 0 10 #fcfcfc #000000 #000000;
#X obj 163 99 * 16;
#X obj 191 163 send 4bar_time;
#X obj 131 206 send 4bar;
#X obj 300 580 receive 4bar;
#X obj 300 727 % 4;
#X msg 292 887 0;
#X msg 401 887 1;
#X obj 276 930 send note1;
#X obj 385 930 send note2;
#X obj 492 928 send note3;
#X obj 602 927 send note4;
#X obj 281 847 bng 15 250 50 0 empty empty empty 17 7 0 10 #fcfcfc #000000 #000000;
#X obj 354 844 bng 15 250 50 0 empty empty empty 17 7 0 10 #fcfcfc #000000 #000000;
#X obj 397 848 bng 15 250 50 0 empty empty empty 17 7 0 10 #fcfcfc #000000 #000000;
#X obj 512 849 bng 15 250 50 0 empty empty empty 17 7 0 10 #fcfcfc #000000 #000000;
#X msg 508 885 2;
#X msg 618 884 3;
#X obj 303 795 sel 0 1 2 3;
#X obj 300 751 + 0;
#X obj 161 31 bpm_self;
#X obj 228 100 bng 15 250 50 0 empty empty empty 17 7 0 10 #fcfcfc #000000 #000000;
#X obj 544 221 s bangcenter;
#X connect 1 0 2 0;
#X connect 2 0 3 0;
#X connect 3 0 4 1;
#X connect 3 0 8 0;
#X connect 4 0 6 0;
#X connect 5 0 4 0;
#X connect 5 0 54 0;
#X connect 6 0 7 0;
#X connect 9 0 10 0;
#X connect 10 0 12 0;
#X connect 10 0 11 0;
#X connect 11 0 10 1;
#X connect 12 0 65 0;
#X connect 13 0 14 0;
#X connect 15 0 22 0;
#X connect 16 0 21 0;
#X connect 17 0 18 0;
#X connect 18 0 10 0;
#X connect 19 0 17 0;
#X connect 21 0 17 0;
#X connect 22 0 14 0;
#X connect 25 0 30 0;
#X connect 26 0 27 1;
#X connect 26 0 32 0;
#X connect 27 0 29 0;
#X connect 28 0 27 0;
#X connect 29 0 31 0;
#X connect 29 0 82 0;
#X connect 30 0 26 0;
#X connect 33 0 38 0;
#X connect 34 0 35 1;
#X connect 35 0 37 0;
#X connect 36 0 35 0;
#X connect 37 0 39 0;
#X connect 38 0 34 0;
#X connect 40 0 46 0;
#X connect 41 0 42 1;
#X connect 42 0 44 0;
#X connect 43 0 42 0;
#X connect 44 0 45 0;
#X connect 46 0 41 0;
#X connect 47 0 52 0;
#X connect 48 0 49 1;
#X connect 49 0 51 0;
#X connect 50 0 49 0;
#X connect 51 0 53 0;
#X connect 52 0 48 0;
#X connect 55 0 61 0;
#X connect 56 0 57 1;
#X connect 56 0 62 0;
#X connect 57 0 59 0;
#X connect 58 0 57 0;
#X connect 58 0 60 0;
#X connect 59 0 63 0;
#X connect 61 0 56 0;
#X connect 64 0 9 0;
#X connect 65 0 23 0;
#X connect 65 0 79 0;
#X connect 66 0 68 0;
#X connect 67 0 69 0;
#X connect 72 0 66 0;
#X connect 73 0 67 0;
#X connect 74 0 76 0;
#X connect 75 0 77 0;
#X connect 76 0 70 0;
#X connect 77 0 71 0;
#X connect 78 0 72 0;
#X connect 78 1 73 0;
#X connect 78 2 74 0;
#X connect 78 3 75 0;
#X connect 79 0 24 0;
#X connect 79 0 78 0;
#X connect 81 0 62 0;
#X restore 118 16 pd clock;
#X obj 69 369 catch~ bass;
#X obj 68 417 +~;
#X obj 175 369 catch~ ambientpad1;
#N canvas 282 25 1054 847 ambient1 0;
#X obj -550 1113 cnv 25 660 460 empty empty Ambient\ synth\ sends 20 12 0 14 #e0e0e0 #404040 0;
#X obj -33 1605;
#X obj -509 1160 receive~ pad;
#X obj -335 1464 tgl 15 0 empty empty empty 17 7 0 10 #fcfcfc #000000 #000000 0 1;
#X obj -335 1484 metro 500;
#X obj -336 1414 loadbang;
#X msg -336 1438 1;
#X obj -335 1508 tabwrite~ ambient_synth;
#X obj -504 1400 /~ 2;
#X obj -529 1074 send~ pad;
#X obj -210 1016 tgl 15 0 empty empty empty 17 7 0 10 #fcfcfc #000000 #000000 0 1;
#X obj -210 1036 metro 500;
#X obj -211 968 loadbang;
#X msg -211 992 1;
#X obj -210 1060 tabwrite~ padsynth;
#X obj -506 1505 throw~ ambientpad1;
#X text 59 7 Chord generator;
#X obj -542 219 bng 15 250 50 0 empty empty empty 17 7 0 10 #fcfcfc #000000 #000000;
#X obj -280 87 spigot;
#X obj -214 88 tgl 15 0 empty padOnOff empty 17 7 0 10 #fcfcfc #000000 #000000 0 1;
#X obj -280 46 receive note1;
#X obj -169 47 receive note2;
#X obj -59 49 receive note3;
#X obj 53 50 receive note4;
#X floatatom -281 114 5 0 0 0 - - - 0;
#X obj -272 150 sel 0 1 2 3;
#X text -449 258 G1;
#X text -416 305 B1;
#X text -400 348 D2;
#X obj -169 220 bng 15 250 50 0 empty empty empty 17 7 0 10 #fcfcfc #000000 #000000;
#X obj 184 227 bng 15 250 50 0 empty empty empty 17 7 0 10 #fcfcfc #000000 #000000;
#X text 324 343 D2;
#X text -40 256 B1;
#X text -29 305 D2;
#X text -15 346 F#2;
#X text 307 250 F#1;
#X text 302 295 A1;
#X obj 551 219 bng 15 250 50 0 empty empty empty 17 7 0 10 #fcfcfc #000000 #000000;
#X text 672 253 C2;
#X text 682 296 E2;
#X text 673 345 G2;
#X obj -510 1217 lop~ 1000;
#X obj -510 1245 lop~ 1000;
#X obj -509 1276 lop~ 1000;
#X floatatom -380 1259 5 0 0 0 - - - 0;
#X obj -377 1234 hsl 128 15 0 9000 0 0 empty padFilterCutoff empty -2 -8 0 10 #fcfcfc #000000 #000000 0 1;
#X obj -508 1311 lop~ 1000;
#X obj -505 1363 bob~;
#X obj -364 1320 hsl 128 15 1 3.5 0 0 empty padFilterQ q\ value -2 -8 0 10 #fcfcfc #000000 #000000 0 1;
#X floatatom -379 1349 5 0 0 0 - - - 0;
#X obj -190 1359 line 0 100;
#X obj -191 1265 t b b;
#X obj -80 1280 delay 1000;
#X obj -380 1178 loadbang;
#X msg -380 1204 2755;
#X obj -195 1210 r 4bar;
#X obj -192 1237 bang;
#X obj -528 1034 *~ 1;
#X obj -441 1027 hsl 128 15 0 1 0 0 empty padVol padVol -2 -8 0 10 #fcfcfc #000000 #000000 0 1;
#X msg -190 1328 1 \, 2.4 100;
#X msg -4 1333 2.4 \, 1 1000;
#X obj -529 1002 *~ 1;
#X text -476 891 Serum;
#N canvas 173 95 1165 777 serum1 0;
#X obj 123 140 vstplugin~;
#X obj 123 79 bng 19 250 50 0 empty empty empty 0 -10 0 12 #fcfcfc #000000 #000000;
#X msg 256 121 print;
#X msg 123 102 open -e Serum;
#X obj 69 76 inlet;
#X obj 128 253 outlet~ serum_pad;
#X obj 128 41 loadbang;
#X obj 17 170 bng 15 250 50 0 empty empty empty 17 7 0 10 #fcfcfc #000000 #000000;
#X msg -342 378 midi_noteoff 1 73.42 80;
#X msg 314 499 param_set \$1 \$2;
#X obj 328 402 hsl 162 19 0 1 0 0 empty empty empty -2 -10 0 12 #fcfcfc #000000 #000000 0 1;
#X obj 317 462 list prepend 61;
#X floatatom 327 359 5 0 0 0 - - - 0;
#X msg 288 200 0.05;
#X msg 338 198 0.06;
#X text 292 180 32;
#X text 343 170 16;
#X msg 384 196 0.14;
#X text 404 174 8;
#X msg 430 196 0.21;
#X text 449 175 4;
#X msg 395 301 0.28;
#X text 404 282 2;
#X msg 440 299 0.35;
#X text 443 283 1;
#X msg 484 298 0.42;
#X text 484 280 1/2;
#X msg 527 298 0.5;
#X text 527 280 1/4;
#X msg 401 368 0.56;
#X text 397 350 1/8;
#X text 445 350 1/16;
#X msg 449 368 0.64;
#X text 493 350 1/32;
#X text 541 350 1/64;
#X msg 497 368 0.71;
#X msg 545 368 0.79;
#X obj 425 63 random 6;
#X obj 424 2 tgl 19 0 empty empty empty 0 -10 0 12 #fcfcfc #000000 #000000 0 1;
#X obj 424 119 sel 0 1 2 3 4 5 6;
#X obj 422 150 bng 19 250 50 0 empty empty empty 0 -10 0 12 #fcfcfc #000000 #000000;
#X obj 448 152 bng 19 250 50 0 empty empty empty 0 -10 0 12 #fcfcfc #000000 #000000;
#X obj 472 152 bng 19 250 50 0 empty empty empty 0 -10 0 12 #fcfcfc #000000 #000000;
#X obj 498 152 bng 19 250 50 0 empty empty empty 0 -10 0 12 #fcfcfc #000000 #000000;
#X obj 521 153 bng 19 250 50 0 empty empty empty 0 -10 0 12 #fcfcfc #000000 #000000;
#X obj 545 154 bng 19 250 50 0 empty empty empty 0 -10 0 12 #fcfcfc #000000 #000000;
#X floatatom 425 87 5 0 0 0 - - - 0;
#X obj 424 37 metro 1000;
#X obj 478 7 r whole_timne;
#X connect 0 0 5 0;
#X connect 0 1 5 0;
#X connect 1 0 3 0;
#X connect 2 0 0 0;
#X connect 3 0 0 0;
#X connect 4 0 0 0;
#X connect 4 0 7 0;
#X connect 6 0 1 0;
#X connect 9 0 0 0;
#X connect 10 0 11 0;
#X connect 11 0 9 0;
#X connect 12 0 10 0;
#X connect 13 0 12 0;
#X connect 14 0 12 0;
#X connect 17 0 12 0;
#X connect 19 0 12 0;
#X connect 21 0 12 0;
#X connect 23 0 12 0;
#X connect 25 0 12 0;
#X connect 27 0 12 0;
#X connect 29 0 12 0;
#X connect 32 0 12 0;
#X connect 35 0 12 0;
#X connect 36 0 12 0;
#X connect 37 0 46 0;
#X connect 38 0 47 0;
#X connect 39 0 40 0;
#X connect 39 1 41 0;
#X connect 39 2 42 0;
#X connect 39 3 43 0;
#X connect 39 4 44 0;
#X connect 39 5 45 0;
#X connect 40 0 19 0;
#X connect 41 0 21 0;
#X connect 42 0 23 0;
#X connect 43 0 25 0;
#X connect 44 0 27 0;
#X connect 45 0 29 0;
#X connect 47 0 37 0;
#X connect 48 0 47 1;
#X restore -552 887 pd serum1;
#X obj -531 637 bng 15 250 50 0 empty empty empty 17 7 0 10 #fcfcfc #000000 #000000;
#X obj -521 684 bng 15 250 50 0 empty empty empty 17 7 0 10 #fcfcfc #000000 #000000;
#X obj -505 726 bng 15 250 50 0 empty empty empty 17 7 0 10 #fcfcfc #000000 #000000;
#X obj -520 602 bng 15 250 50 0 empty empty empty 17 7 0 10 #fcfcfc #000000 #000000;
#X obj -138 641 bng 15 250 50 0 empty empty empty 17 7 0 10 #fcfcfc #000000 #000000;
#X obj -128 688 bng 15 250 50 0 empty empty empty 17 7 0 10 #fcfcfc #000000 #000000;
#X obj -112 730 bng 15 250 50 0 empty empty empty 17 7 0 10 #fcfcfc #000000 #000000;
#X obj -98 612 bng 15 250 50 0 empty empty empty 17 7 0 10 #fcfcfc #000000 #000000;
#X obj 214 644 bng 15 250 50 0 empty empty empty 17 7 0 10 #fcfcfc #000000 #000000;
#X obj 224 691 bng 15 250 50 0 empty empty empty 17 7 0 10 #fcfcfc #000000 #000000;
#X obj 240 733 bng 15 250 50 0 empty empty empty 17 7 0 10 #fcfcfc #000000 #000000;
#X obj 254 615 bng 15 250 50 0 empty empty empty 17 7 0 10 #fcfcfc #000000 #000000;
#X msg -574 259 midi_note 1 31 80;
#X msg -564 305 midi_note 1 35 80;
#X msg -549 347 midi_note 1 38 80;
#X msg -156 345 midi_note 1 42 80;
#X msg 161 250 midi_note 1 30 80;
#X msg 174 295 midi_note 1 33 80;
#X msg 184 343 midi_note 1 38 80;
#X msg 526 251 midi_note 1 36 80;
#X msg 535 296 midi_note 1 40 80;
#X msg 547 343 midi_note 1 43 80;
#X msg -531 657 midi_noteoff 1 31;
#X msg -521 703 midi_noteoff 1 35;
#X msg -506 745 midi_noteoff 1 38;
#X msg 214 664 midi_noteoff 1 30;
#X msg 224 710 midi_noteoff 1 33;
#X msg 239 752 midi_noteoff 1 38;
#X obj 613 640 bng 15 250 50 0 empty empty empty 17 7 0 10 #fcfcfc #000000 #000000;
#X obj 623 687 bng 15 250 50 0 empty empty empty 17 7 0 10 #fcfcfc #000000 #000000;
#X obj 639 729 bng 15 250 50 0 empty empty empty 17 7 0 10 #fcfcfc #000000 #000000;
#X obj 653 611 bng 15 250 50 0 empty empty empty 17 7 0 10 #fcfcfc #000000 #000000;
#X msg 613 660 midi_noteoff 1 36;
#X msg 623 706 midi_noteoff 1 40;
#X msg 638 748 midi_noteoff 1 43;
#X text -550 190 note ON;
#X text -394 398 note OFF;
#X obj -527 571 delay;
#X obj -471 434 receive 4bar_time;
#X floatatom -471 458 11 0 0 0 - - - 0;
#X floatatom -476 506 5 0 0 0 - - - 0;
#X msg -476 529 \$1;
#X floatatom -464 562 5 0 0 0 - - - 0;
#X msg -362 77 0;
#X obj -109 559 delay;
#X obj -53 422 receive 4bar_time;
#X floatatom -53 446 11 0 0 0 - - - 0;
#X floatatom -58 494 5 0 0 0 - - - 0;
#X msg -58 517 \$1;
#X floatatom -46 550 5 0 0 0 - - - 0;
#X obj 260 567 delay;
#X obj 316 430 receive 4bar_time;
#X floatatom 316 454 11 0 0 0 - - - 0;
#X floatatom 311 502 5 0 0 0 - - - 0;
#X msg 311 525 \$1;
#X floatatom 323 558 5 0 0 0 - - - 0;
#X obj 652 571 delay;
#X obj 708 434 receive 4bar_time;
#X floatatom 708 458 11 0 0 0 - - - 0;
#X floatatom 703 506 5 0 0 0 - - - 0;
#X msg 703 529 \$1;
#X floatatom 715 562 5 0 0 0 - - - 0;
#X obj -471 481 - 1000;
#X obj -53 469 - 1000;
#X obj 316 477 - 1000;
#X obj 708 481 - 1000;
#X msg -456 92 1;
#X msg -408 140 2;
#X text -511 228 1;
#X text -141 217 2;
#X text 214 211 3;
#X text 596 208 4;
#X msg -174 303 midi_note 1 38 80;
#X msg -184 255 midi_note 1 35 80;
#X msg -138 661 midi_noteoff 1 35;
#X msg -128 707 midi_noteoff 1 38;
#X msg -113 749 midi_noteoff 1 42;
#N canvas 0 22 450 278 (subpatch) 0;
#X array padsynth 100 float 5;
#A 0 0 0 0 0 0 0 0 0 0 0 0 0 0 0 0 0 0 0 0 0 0 0 0 0 0 0 0 0 0 0 0 0 0 0 0 0 0 0 0 0 0 0 0 0 0 0 0 0 0 0 0 0 0 0 0 0 0 0 0 0 0 0 0 0 0 0 0 0 0 0 0 0 0 0 0 0 0 0 0 0 0 0 0 0 0 0 0 0 0 0 0 0 0 0 0 0 0 0 0 0;
#X coords 0 1 99 -1 109 65 1;
#X restore -62 999 graph;
#X obj -426 220 s bangamb1;
#X obj -93 221 s bangamb2;
#X obj 287 224 s banglead3;
#X obj 640 215 s bangamb4;
#X connect 2 0 41 0;
#X connect 3 0 4 0;
#X connect 4 0 7 0;
#X connect 5 0 6 0;
#X connect 6 0 3 0;
#X connect 8 0 7 0;
#X connect 8 0 15 0;
#X connect 10 0 11 0;
#X connect 11 0 14 0;
#X connect 12 0 13 0;
#X connect 13 0 10 0;
#X connect 17 0 76 0;
#X connect 17 0 77 0;
#X connect 17 0 78 0;
#X connect 17 0 142 0;
#X connect 18 0 24 0;
#X connect 19 0 18 1;
#X connect 20 0 18 0;
#X connect 21 0 18 0;
#X connect 22 0 18 0;
#X connect 23 0 18 0;
#X connect 24 0 25 0;
#X connect 25 0 17 0;
#X connect 25 0 101 0;
#X connect 25 1 108 0;
#X connect 25 1 29 0;
#X connect 25 2 30 0;
#X connect 25 2 114 0;
#X connect 25 3 37 0;
#X connect 25 3 120 0;
#X connect 29 0 137 0;
#X connect 29 0 136 0;
#X connect 29 0 79 0;
#X connect 29 0 143 0;
#X connect 30 0 80 0;
#X connect 30 0 81 0;
#X connect 30 0 82 0;
#X connect 30 0 144 0;
#X connect 37 0 83 0;
#X connect 37 0 84 0;
#X connect 37 0 85 0;
#X connect 37 0 145 0;
#X connect 41 0 42 0;
#X connect 42 0 43 0;
#X connect 43 0 46 0;
#X connect 44 0 41 1;
#X connect 44 0 43 1;
#X connect 44 0 42 1;
#X connect 44 0 46 1;
#X connect 44 0 47 1;
#X connect 45 0 44 0;
#X connect 46 0 47 0;
#X connect 47 0 8 0;
#X connect 48 0 49 0;
#X connect 49 0 47 2;
#X connect 51 0 59 0;
#X connect 51 1 52 0;
#X connect 52 0 60 0;
#X connect 53 0 54 0;
#X connect 54 0 45 0;
#X connect 55 0 56 0;
#X connect 56 0 51 0;
#X connect 57 0 9 0;
#X connect 57 0 14 0;
#X connect 58 0 57 1;
#X connect 59 0 50 0;
#X connect 60 0 50 0;
#X connect 61 0 57 0;
#X connect 63 0 61 0;
#X connect 64 0 86 0;
#X connect 65 0 87 0;
#X connect 66 0 88 0;
#X connect 67 0 64 0;
#X connect 67 0 65 0;
#X connect 67 0 66 0;
#X connect 68 0 138 0;
#X connect 69 0 139 0;
#X connect 70 0 140 0;
#X connect 71 0 68 0;
#X connect 71 0 69 0;
#X connect 71 0 70 0;
#X connect 72 0 89 0;
#X connect 73 0 90 0;
#X connect 74 0 91 0;
#X connect 75 0 72 0;
#X connect 75 0 73 0;
#X connect 75 0 74 0;
#X connect 76 0 63 0;
#X connect 77 0 63 0;
#X connect 78 0 63 0;
#X connect 79 0 63 0;
#X connect 80 0 63 0;
#X connect 81 0 63 0;
#X connect 82 0 63 0;
#X connect 83 0 63 0;
#X connect 84 0 63 0;
#X connect 85 0 63 0;
#X connect 86 0 63 0;
#X connect 87 0 63 0;
#X connect 88 0 63 0;
#X connect 89 0 63 0;
#X connect 90 0 63 0;
#X connect 91 0 63 0;
#X connect 92 0 96 0;
#X connect 93 0 97 0;
#X connect 94 0 98 0;
#X connect 95 0 92 0;
#X connect 95 0 93 0;
#X connect 95 0 94 0;
#X connect 96 0 63 0;
#X connect 97 0 63 0;
#X connect 98 0 63 0;
#X connect 101 0 67 0;
#X connect 102 0 103 0;
#X connect 103 0 126 0;
#X connect 104 0 105 0;
#X connect 105 0 101 1;
#X connect 105 0 106 0;
#X connect 107 0 24 0;
#X connect 108 0 71 0;
#X connect 109 0 110 0;
#X connect 110 0 127 0;
#X connect 111 0 112 0;
#X connect 112 0 108 1;
#X connect 112 0 113 0;
#X connect 114 0 75 0;
#X connect 115 0 116 0;
#X connect 116 0 128 0;
#X connect 117 0 118 0;
#X connect 118 0 114 1;
#X connect 118 0 119 0;
#X connect 120 0 95 0;
#X connect 121 0 122 0;
#X connect 122 0 129 0;
#X connect 123 0 124 0;
#X connect 124 0 120 1;
#X connect 124 0 125 0;
#X connect 126 0 104 0;
#X connect 127 0 111 0;
#X connect 128 0 117 0;
#X connect 129 0 123 0;
#X connect 130 0 24 0;
#X connect 131 0 24 0;
#X connect 136 0 63 0;
#X connect 137 0 63 0;
#X connect 138 0 63 0;
#X connect 139 0 63 0;
#X connect 140 0 63 0;
#X restore 118 67 pd ambient1;
#X obj 500 82 declare -path else;
#N canvas 181 154 975 727 filterping 0;
#X obj 136 486 bob~, f 17;
#X obj 193 214 vsl 19 162 0 127 0 0 empty empty empty 0 -9 0 12 #fcfcfc #000000 #000000 0 1;
#X obj 255 356 hsl 162 19 3 5 0 0 empty empty empty -2 -10 0 12 #fcfcfc #000000 #000000 0 1;
#X floatatom 252 380 5 0 0 0 - - - 0;
#X obj 193 425 mtof;
#X floatatom 193 449 5 0 0 0 - - - 0;
#X floatatom 193 388 5 0 0 0 - - - 0;
#X obj 131 153 hip~ 50;
#X obj 258 633 tgl 19 0 empty empty empty 0 -10 0 12 #fcfcfc #000000 #000000 0 1;
#X obj 258 657 metro 100;
#X obj 136 612 *~ 0.2;
#X msg 261 538 0;
#X obj 178 564 hsl 162 19 0 1 0 0 empty filterping_vol empty -2 -10 0 12 #fcfcfc #000000 #000000 0 1;
#X floatatom 175 587 5 0 0 0 - - - 0;
#X obj 175 516 loadbang;
#X msg 420 186 60;
#X obj 348 162 gmajor;
#X floatatom 352 131 5 0 0 0 - - - 0;
#X obj 341 288 loadbang;
#X msg 341 314 3.931;
#X msg 252 324 3.9;
#X obj 132 129 phasor~ 1;
#X obj 258 681 tabwrite~ filter_ping;
#X obj 103 689 throw~ filterping;
#X obj 351 51 r sixteenth_note;
#X msg 175 540 0.7;
#X obj 352 107 random 4;
#X obj 135 82 hsl 162 19 0 6 0 0 empty filterpingspeed filterping\ speed -2 -10 0 12 #fcfcfc #000000 #000000 0 1;
#X floatatom 132 106 5 0 0 0 - - - 0;
#X obj 132 15 loadbang;
#X msg 131 41 1;
#X obj 257 601 loadbang;
#X connect 0 0 10 0;
#X connect 1 0 6 0;
#X connect 2 0 3 0;
#X connect 3 0 0 2;
#X connect 4 0 5 0;
#X connect 5 0 0 1;
#X connect 6 0 4 0;
#X connect 7 0 0 0;
#X connect 8 0 9 0;
#X connect 9 0 22 0;
#X connect 10 0 22 0;
#X connect 10 0 23 0;
#X connect 11 0 12 0;
#X connect 12 0 13 0;
#X connect 13 0 10 1;
#X connect 14 0 25 0;
#X connect 15 0 1 0;
#X connect 16 0 1 0;
#X connect 17 0 16 0;
#X connect 18 0 19 0;
#X connect 19 0 2 0;
#X connect 20 0 2 0;
#X connect 21 0 7 0;
#X connect 24 0 26 0;
#X connect 25 0 12 0;
#X connect 26 0 17 0;
#X connect 27 0 28 0;
#X connect 28 0 21 0;
#X connect 29 0 30 0;
#X connect 30 0 27 0;
#X connect 31 0 8 0;
#X restore 230 17 pd filterping;
#X obj 177 465 catch~ filterping;
#X obj 68 501 +~;
#X obj 501 24 declare -lib iemlib;
#X obj 499 56 declare -lib iemnet;
#N canvas 63 88 465 237 fx 0;
#N canvas 347 334 575 400 reverb 0;
#X obj 48 78 vstplugin~;
#X obj 48 33 bng 19 250 50 0 empty empty empty 0 -10 0 12 #fcfcfc #000000 #000000;
#X msg 48 56 open -e ValhallaShimmer_x64;
#X msg 182 20 print;
#X msg 289 77 param_set \$1 \$2;
#X obj 289 51 list prepend 0;
#X obj 294 16 hsl 162 19 0 1 0 0 empty empty empty -2 -10 0 12 #fcfcfc #000000 #000000 0 1;
#X obj 389 138 vradio 19 1 0 11 empty empty empty 0 -10 0 12 #fcfcfc #000000 #000000 0;
#X text 416 138 0 mix. 1 shift 2 feedback 3 diffursion 4 size 5 low cut. 6 high cut. 7 mod rate 8 mod depht 9 reverb mode 10 pitch mode 11 color mode;
#X connect 1 0 2 0;
#X connect 2 0 0 0;
#X connect 3 0 0 0;
#X connect 4 0 0 0;
#X connect 5 0 4 0;
#X connect 6 0 5 0;
#X connect 7 0 5 1;
#X restore 15 10 pd reverb;
#N canvas 379 404 983 400 delay 0;
#X obj 48 78 vstplugin~;
#X obj 48 33 bng 19 250 50 0 empty empty empty 0 -10 0 12 #fcfcfc #000000 #000000;
#X msg 182 20 print;
#X msg 289 77 param_set \$1 \$2;
#X obj 289 51 list prepend 0;
#X obj 294 16 hsl 162 19 0 1 0 0 empty empty empty -2 -10 0 12 #fcfcfc #000000 #000000 0 1;
#X msg 48 56 open -e ValhallaDelay;
#X obj 97 193 hradio 19 1 0 38 empty empty empty 0 -10 0 12 #fcfcfc #000000 #000000 0;
#X text 195 237 16 feedback 17 width 18 drive 19 age 20 diff amount 21 diff size 22 eq low 23 eq high 26 mod wow 27 mod flutter;
#X text 67 244 0 mix 1 style 2 delay type 4 delay 8 spread 12 tapa on/off 13 tapb on/off 14 tapc on/off 15 tapd on/off;
#X text 311 230 32 mode 33 era;
#X connect 1 0 6 0;
#X connect 2 0 0 0;
#X connect 3 0 0 0;
#X connect 4 0 3 0;
#X connect 5 0 4 0;
#X connect 6 0 0 0;
#X connect 7 0 4 1;
#X restore 17 35 pd delay;
#N canvas 457 30 983 400 saturator 0;
#X obj 48 78 vstplugin~;
#X obj 48 33 bng 19 250 50 0 empty empty empty 0 -10 0 12 #fcfcfc #000000 #000000;
#X msg 182 20 print;
#X msg 289 77 param_set \$1 \$2;
#X obj 289 51 list prepend 0;
#X obj 294 16 hsl 162 19 0 1 0 0 empty empty empty -2 -10 0 12 #fcfcfc #000000 #000000 0 1;
#X msg 48 56 open -e Saturn2;
#X text 338 98 10 Drive 17 Mix;
#X connect 1 0 6 0;
#X connect 2 0 0 0;
#X connect 3 0 0 0;
#X connect 4 0 3 0;
#X connect 5 0 4 0;
#X connect 6 0 0 0;
#X restore 17 62 pd saturator;
#X text 85 36 Valhalla - Delay;
#X text 90 11 Valhalla - Shrimmer;
#X text 111 63 FabFilter - Saturn 2;
#N canvas 363 205 757 492 supermassive 0;
#X obj 48 78 vstplugin~;
#X obj 48 33 bng 19 250 50 0 empty empty empty 0 -10 0 12 #fcfcfc #000000 #000000;
#X msg 182 20 print;
#X msg 289 77 param_set \$1 \$2;
#X obj 289 51 list prepend 0;
#X obj 294 16 hsl 162 19 0 1 0 0 empty empty empty -2 -10 0 12 #fcfcfc #000000 #000000 0 1;
#X obj 389 138 vradio 19 1 0 11 empty empty empty 0 -10 0 12 #fcfcfc #000000 #000000 0;
#X text 416 138 0 mix. 1 shift 2 feedback 3 diffursion 4 size 5 low cut. 6 high cut. 7 mod rate 8 mod depht 9 reverb mode 10 pitch mode 11 color mode;
#X msg 48 56 open -e ValhallaSupermassive.vst3;
#X connect 1 0 8 0;
#X connect 2 0 0 0;
#X connect 3 0 0 0;
#X connect 4 0 3 0;
#X connect 5 0 4 0;
#X connect 6 0 4 1;
#X connect 8 0 0 0;
#X restore 17 141 pd supermassive;
#X restore 25 70 pd fx;
#N canvas 117 25 895 465 lead 0;
#X text 252 323 Serum;
#N canvas 109 103 364 777 serum1 0;
#X obj 123 140 vstplugin~;
#X obj 123 79 bng 19 250 50 0 empty empty empty 0 -10 0 12 #fcfcfc #000000 #000000;
#X msg 256 121 print;
#X msg 123 102 open -e Serum;
#X obj 69 76 inlet;
#X obj 128 253 outlet~ serum_pad;
#X obj 128 41 loadbang;
#X obj 17 170 bng 15 250 50 0 empty empty empty 17 7 0 10 #fcfcfc #000000 #000000;
#X msg -342 378 midi_noteoff 1 73.42 80;
#X msg 266 183 midi_noteoff 1 73.42 80;
#X connect 0 0 5 0;
#X connect 0 1 5 0;
#X connect 1 0 3 0;
#X connect 2 0 0 0;
#X connect 3 0 0 0;
#X connect 4 0 0 0;
#X connect 4 0 7 0;
#X connect 6 0 1 0;
#X connect 9 0 0 0;
#X restore 224 342 pd serum1;
#X obj 223 429 throw~ lead;
#X obj 223 377 *~;
#X obj 337 344 hsl 162 19 0 1 0 0 empty empty empty -2 -10 0 12 #fcfcfc #000000 #000000 0 1;
#X floatatom 334 368 5 0 0 0 - - - 0;
#X msg 169 110 midi_note 1 61 82;
#X msg 168 179 midi_note 1 63 80;
#X msg 295 63 midi_noteoff 1 59;
#X msg 312 110 midi_noteoff 1 61;
#X msg 322 180 midi_noteoff 1 63;
#X msg 327 217 midi_noteoff 1 64;
#X msg 172 220 midi_note 1 64 70;
#X msg 159 62 midi_note 1 59 75;
#X obj 501 241 bng 19 250 50 0 banglead empty empty 0 -10 0 12 #fcfcfc #000000 #000000;
#X obj 594 138 bng 19 250 50 0 banglead2 empty empty 0 -10 0 12 #fcfcfc #000000 #000000;
#X obj 608 79 tgl 19 0 empty empty empty 0 -10 0 12 #fcfcfc #000000 #000000 0 1;
#X msg 567 27 1;
#X msg 611 27 0;
#X obj 592 108 spigot;
#X obj 655 84 bng 19 250 50 0 empty empty empty 0 -10 0 12 #fcfcfc #000000 #000000;
#X obj 657 60 r sixteenth_note;
#X obj 596 188 s banglead2;
#X connect 1 0 3 0;
#X connect 3 0 2 0;
#X connect 4 0 5 0;
#X connect 5 0 3 1;
#X connect 6 0 1 0;
#X connect 6 0 14 0;
#X connect 6 0 17 0;
#X connect 7 0 1 0;
#X connect 7 0 14 0;
#X connect 7 0 17 0;
#X connect 8 0 1 0;
#X connect 8 0 18 0;
#X connect 9 0 1 0;
#X connect 9 0 18 0;
#X connect 10 0 1 0;
#X connect 10 0 18 0;
#X connect 11 0 1 0;
#X connect 11 0 18 0;
#X connect 12 0 1 0;
#X connect 12 0 14 0;
#X connect 12 0 17 0;
#X connect 13 0 1 0;
#X connect 13 0 14 0;
#X connect 13 0 17 0;
#X connect 15 0 22 0;
#X connect 16 0 19 1;
#X connect 17 0 16 0;
#X connect 18 0 16 0;
#X connect 19 0 15 0;
#X connect 20 0 19 0;
#X connect 21 0 20 0;
#X restore 25 18 pd lead;
#X obj 177 434 catch~ lead;
#N canvas 63 95 1191 785 granular 0;
#X obj 25 117 cnv 25 1000 450 empty empty Granular\ Synth 20 12 0 20 #e0e0e0 #404040 0;
#X obj 25 418 cnv 15 1000 229 empty empty Granular:\ Random\ controls 20 12 0 10 #bbbbbb #404040 0;
#N canvas 663 95 681 785 granular_internals 0;
#X floatatom 99 836 10 0 0 0 - - - 0;
#X floatatom 542 150 10 0 0 0 - grainDuration - 0;
#X obj 542 192 s grain_dur;
#X obj 99 906 clone grain 16;
#X msg 99 876 next \$1;
#X obj 103 362 phasor~;
#X obj 103 436 *~;
#X obj 141 386 receive fileDuration;
#X floatatom 141 410 10 0 0 0 - - - 0;
#X obj 103 564 snapshot~;
#X obj 103 34 receive fileDuration;
#X obj 103 58 expr $f2 / $f1;
#X obj 288 15 loadbang;
#X obj 288 39 samplerate~;
#X obj 393 24 bng 15 250 50 0 empty empty empty 17 7 0 10 #fcfcfc #000000 #000000;
#X obj 103 290 * 1;
#X obj 180 251 t b f;
#X floatatom 103 93 5 0 0 0 - - - 0;
#X obj 187 207 hsl 128 15 -1 2 0 0 empty Playbackrate empty -2 -8 0 10 #fcfcfc #000000 #000000 0 1;
#X floatatom 180 228 5 0 0 0 - - - 0;
#X floatatom 103 314 5 0 0 0 - - - 0;
#X text 317 205 playback rate;
#X obj 270 903 hsl 128 15 0 1 0 0 empty granVol granVolume -2 -8 0 10 #fcfcfc #000000 #000000 0 1;
#X floatatom 268 932 5 0 0 0 - - - 0;
#X obj 99 952 *~;
#X text 243 240 sets the phasor rate;
#X text 158 88 frequency of the phasor to play the song at normal speed this is the freq for the phasor to play the sample at normal rate;
#X text 110 545 gets the value and plays the grain at that point;
#X text 166 371 To make the phasor as long as the sample;
#X text 540 126 GRAIN DURATION;
#X obj 180 155 loadbang;
#X msg 182 181 1;
#X obj 1164 1179;
#X obj 918 28 cnv 25 550 350 empty empty empty 20 12 0 14 #e0e0e0 #404040 0;
#X obj 1123 332 grain;
#X obj 1003 97 openpanel;
#X obj 1004 195 soundfiler;
#X floatatom 1004 218 10 0 0 0 - - - 0;
#X text 1081 218 duration in samples;
#X obj 1004 242 send fileDuration;
#X msg 1003 128 read -resize \$1 grainArray;
#X obj 1003 80 bng 15 250 50 0 empty loadfile Click\ here\ to\ load\ file 17 7 0 10 #00faff #000000 #000000;
#X obj 1213 105 bng 15 250 50 0 empty loadtimewav empty 17 7 0 10 #fcfcfc #000000 #000000;
#X obj 924 245 / 44100;
#X floatatom 925 285 10 0 0 1 file\ duration\ in\ seconds - fileDurationSec 0;
#X text 999 53 LOADING SECTION;
#X obj 509 327 cnv 25 400 220 empty empty empty 20 12 0 14 #e0e0e0 #404040 0;
#X obj 595 395 tgl 15 0 empty regRandTrigger empty 17 7 0 10 #fcfcfc #000000 #000000 0 1;
#X floatatom 656 374 5 0 0 0 - - - 0;
#X text 526 326 trigger grains at regular intervals but a bit random;
#X obj 595 496 + 1000;
#X floatatom 674 478 5 0 1100 1 regular\ trigger\ duration regulartrigger - 0;
#X obj 595 415 metro 100;
#X obj 595 455 random 100;
#X text 607 347 PLAY THROUGH THE SAMPLE;
#X floatatom 595 522 5 0 0 0 - - - 0;
#X floatatom 129 612 8 0 0 0 - - - 0;
#X floatatom 156 466 5 0 0 0 - - - 0;
#X obj 684 716 cnv 15 300 150 empty empty empty 20 12 0 14 #e0e0e0 #404040 0;
#X obj 698 814 hsl 128 15 0 400000 0 0 empty startpointSingleGrain empty -2 -8 0 10 #fcfcfc #000000 #000000 0 1;
#X obj 695 789 metro 500;
#X obj 695 755 tgl 15 0 empty singleGrainTrig single\ grain\ trigger 17 7 0 10 #fcfcfc #000000 #000000 0 1;
#X floatatom 933 770 5 0 0 0 speedRegularTrigger speedRegularTrigger - 0;
#X text 692 727 PLAY SINGLE GRAIN;
#X obj 263 640 cnv 15 359 180 empty empty empty 20 12 0 14 #e0e0e0 #404040 0;
#X obj 270 795 hsl 128 15 0 296066 0 0 empty empty time -2 -8 0 10 #fcfcfc #000000 #000000 0 1;
#X obj 267 762 random 250000;
#X obj 267 733 metro 500;
#X obj 267 699 tgl 15 0 empty randomtrigger randomtrigger 17 7 0 10 #fcfcfc #000000 #000000 0 1;
#X text 265 667 random triggering of grains at random start points;
#X floatatom 369 707 5 0 0 0 - randTriggerSpeed - 0;
#X obj 386 743 receive fileDuration;
#X text 267 651 PLAY RANDOMIZED GRAINS;
#X msg 1213 126 read -resize vox1.wav grainArray;
#X obj 96 1000 throw~ grain_audio;
#X obj 344 1034 tgl 19 0 empty empty empty 0 -10 0 12 #fcfcfc #000000 #000000 0 1;
#X obj 343 1060 metro 500;
#X obj 343 1084 tabwrite~ grain_scope;
#N canvas 0 22 450 278 (subpatch) 0;
#X array grain_scope 100 float 3;
#A 0 0 0 0 0 0 0 0 0 0 0 0 0 0 0 0 0 0 0 0 0 0 0 0 0 0 0 0 0 0 0 0 0 0 0 0 0 0 0 0 0 0 0 0 0 0 0 0 0 0 0 0 0 0 0 0 0 0 0 0 0 0 0 0 0 0 0 0 0 0 0 0 0 0 0 0 0 0 0 0 0 0 0 0 0 0 0 0 0 0 0 0 0 0 0 0 0 0 0 0 0;
#X coords 0 1 100 -1 200 140 1;
#X restore 467 920 graph;
#X connect 0 0 4 0;
#X connect 1 0 2 0;
#X connect 3 0 24 0;
#X connect 4 0 3 0;
#X connect 5 0 6 0;
#X connect 6 0 9 0;
#X connect 6 0 57 0;
#X connect 7 0 8 0;
#X connect 8 0 6 1;
#X connect 9 0 0 0;
#X connect 9 0 56 0;
#X connect 10 0 11 0;
#X connect 11 0 17 0;
#X connect 12 0 13 0;
#X connect 13 0 11 1;
#X connect 14 0 13 0;
#X connect 15 0 20 0;
#X connect 16 0 15 0;
#X connect 16 1 15 1;
#X connect 17 0 15 0;
#X connect 18 0 19 0;
#X connect 19 0 16 0;
#X connect 20 0 5 0;
#X connect 22 0 23 0;
#X connect 23 0 24 1;
#X connect 24 0 74 0;
#X connect 24 0 77 0;
#X connect 30 0 31 0;
#X connect 31 0 18 0;
#X connect 35 0 40 0;
#X connect 36 0 37 0;
#X connect 37 0 39 0;
#X connect 37 0 43 0;
#X connect 40 0 36 0;
#X connect 41 0 35 0;
#X connect 42 0 73 0;
#X connect 43 0 44 0;
#X connect 47 0 52 0;
#X connect 48 0 52 1;
#X connect 50 0 48 0;
#X connect 50 0 55 0;
#X connect 51 0 50 1;
#X connect 52 0 53 0;
#X connect 52 0 9 0;
#X connect 53 0 48 0;
#X connect 53 0 50 0;
#X connect 59 0 0 0;
#X connect 60 0 59 0;
#X connect 61 0 60 0;
#X connect 62 0 60 1;
#X connect 65 0 0 0;
#X connect 66 0 65 0;
#X connect 67 0 66 0;
#X connect 68 0 67 0;
#X connect 70 0 67 1;
#X connect 71 0 66 1;
#X connect 73 0 36 0;
#X connect 75 0 76 0;
#X connect 76 0 77 0;
#X restore 32 13 pd granular_internals;
#X restore 24 46 pd granular;
#X obj 106 522 catch~ grain_audio;
#X obj 38 226 tgl 15 0 empty startclock empty 17 7 0 10 #fcfcfc #000000 #000000 0 1;
#X obj 38 244 send ON;
#X obj 68 547 +~;
#X obj 68 571 /~ 3;
#X obj 631 522 loadbang;
#X msg 631 546 1;
#X text 35 199 clock ON signal;
#N canvas 121 153 450 300 drums 0;
#X restore 237 59 pd drums;
#X connect 2 0 1 0;
#X connect 3 0 2 0;
#X connect 4 0 0 0;
#X connect 4 0 0 1;
#X connect 4 0 1 0;
#X connect 5 0 8 0;
#X connect 6 0 7 0;
#X connect 7 0 5 0;
#X connect 8 0 4 1;
#X connect 11 0 12 0;
#X connect 12 0 18 0;
#X connect 13 0 12 1;
#X connect 17 0 18 0;
#X connect 18 0 28 0;
#X connect 23 0 18 0;
#X connect 25 0 28 1;
#X connect 26 0 27 0;
#X connect 28 0 29 0;
#X connect 29 0 4 0;
#X connect 30 0 31 0;
#X connect 31 0 3 0;
#X restore 323 4 pd sound_internals;
#N canvas 614 134 450 300 visuals_internal 1;
#X obj 7 31 main1.1;
#X restore 177 4 pd visuals_internal;
#X obj 703 479 hsl 128 15 -1 2 0 0 Playbackrate empty Playback\ Rate -2 -8 0 10 #ff8300 #000000 #000000 0 1;
#N canvas 0 22 450 278 (subpatch) 0;
#X array grainArray 886939 float 2;
#X coords 0 1 886939 -1 129 81 1 0 0;
#X restore 485 339 graph;
#X floatatom 640 342 10 0 0 1 File\ duration\ (samples) fileDuration - 0;
#X floatatom 639 373 10 0 0 1 File\ Duration\ (Seconds) fileDurationSec - 0;
#X floatatom 700 496 5 0 0 0 - - - 0;
#X text 583 424 1 normal 2 twice 0.5 half -1 reverse;
#X msg 632 444 -1;
#X msg 677 444 0.5;
#X msg 722 444 1;
#X msg 767 444 2;
#X obj 521 597 hsl 128 15 0 1100 0 0 regulartrigger empty randomizing\ (timedurtion)\ regular\ triggering\ of\ grains -2 -8 0 10 #ffc7c6 #000000 #000000 0 1;
#X floatatom 518 617 5 0 0 0 - - - 0;
#X text 560 617 0-1100;
#X obj 519 559 tgl 15 0 regRandTrigger empty Toggle\ Randomizing\ of\ regular\ triggering\ of\ grains 17 7 0 10 #c6ffc7 #202020 #000000 0 1;
#X text 516 538 PLAY THROUGH THE SAMPLE (ONE GRAIN AFTER ANOTHER);
#X obj 18 598 cnv 19 250 50 empty empty empty 20 12 0 12 #606060 #ffffff 0;
#X obj 31 622 hsl 162 19 0 1 0 0 finalVol empty Gain -2 -10 0 12 #00faff #000000 #ffffff 0 1;
#X obj 18 653 cnv 19 250 200 empty empty empty 20 12 0 12 #bbbbbb #ffffff 0;
#X obj 534 46 cnv 19 450 245 empty empty Serum\ Pad 20 12 0 14 #ffe3c6 #404040 0;
#X obj 595 111 tgl 19 0 padOnOff empty Pad\ On\ Off 0 -10 0 12 #fcfcfc #000000 #000000 0 1;
#X obj 681 98 hsl 162 19 0 1 0 0 padVol empty Pad\ Volume -2 -10 0 12 #ffc7c6 #000000 #000000 0 1;
#X obj 543 170 hsl 162 19 0 9000 0 0 padFilterCutoff empty Pad\ Filter\ Cutoff -2 -10 0 12 #ffc7c6 #000000 #000000 0 1;
#X floatatom 678 122 5 0 0 0 - - - 0;
#X floatatom 540 194 5 0 0 0 - - - 0;
#N canvas 0 22 450 278 (subpatch) 0;
#X array ambient_synth 1000 float 5;
#A 0 0 0 0 0 0 0 0 0 0 0 0 0 0 0 0 0 0 0 0 0 0 0 0 0 0 0 0 0 0 0 0 0 0 0 0 0 0 0 0 0 0 0 0 0 0 0 0 0 0 0 0 0 0 0 0 0 0 0 0 0 0 0 0 0 0 0 0 0 0 0 0 0 0 0 0 0 0 0 0 0 0 0 0 0 0 0 0 0 0 0 0 0 0 0 0 0 0 0 0 0 0 0 0 0 0 0 0 0 0 0 0 0 0 0 0 0 0 0 0 0 0 0 0 0 0 0 0 0 0 0 0 0 0 0 0 0 0 0 0 0 0 0 0 0 0 0 0 0 0 0 0 0 0 0 0 0 0 0 0 0 0 0 0 0 0 0 0 0 0 0 0 0 0 0 0 0 0 0 0 0 0 0 0 0 0 0 0 0 0 0 0 0 0 0 0 0 0 0 0 0 0 0 0 0 0 0 0 0 0 0 0 0 0 0 0 0 0 0 0 0 0 0 0 0 0 0 0 0 0 0 0 0 0 0 0 0 0 0 0 0 0 0 0 0 0 0 0 0 0 0 0 0 0 0 0 0 0 0 0 0 0 0 0 0 0 0 0 0 0 0 0 0 0 0 0 0 0 0 0 0 0 0 0 0 0 0 0 0 0 0 0 0 0 0 0 0 0 0 0 0 0 0 0 0 0 0 0 0 0 0 0 0 0 0 0 0 0 0 0 0 0 0 0 0 0 0 0 0 0 0 0 0 0 0 0 0 0 0 0 0 0 0 0 0 0 0 0 0 0 0 0 0 0 0 0 0 0 0 0 0 0 0 0 0 0 0 0 0 0 0 0 0 0 0 0 0 0 0 0 0 0 0 0 0 0 0 0 0 0 0 0 0 0 0 0 0 0 0 0 0 0 0 0 0 0 0 0 0 0 0 0 0 0 0 0 0 0 0 0 0 0 0 0 0 0 0 0 0 0 0 0 0 0 0 0 0 0 0 0 0 0 0 0 0 0 0 0 0 0 0 0 0 0 0 0 0 0 0 0 0 0 0 0 0 0 0 0 0 0 0 0 0 0 0 0 0 0 0 0 0 0 0 0 0 0 0 0 0 0 0 0 0 0 0 0 0 0 0 0 0 0 0 0 0 0 0 0 0 0 0 0 0 0 0 0 0 0 0 0 0 0 0 0 0 0 0 0 0 0 0 0 0 0 0 0 0 0 0 0 0 0 0 0 0 0 0 0 0 0 0 0 0 0 0 0 0 0 0 0 0 0 0 0 0 0 0 0 0 0 0 0 0 0 0 0 0 0 0 0 0 0 0 0 0 0 0 0 0 0 0 0 0 0 0 0 0 0 0 0 0 0 0 0 0 0 0 0 0 0 0 0 0 0 0 0 0 0 0 0 0 0 0 0 0 0 0 0 0 0 0 0 0 0 0 0 0 0 0 0 0 0 0 0 0 0 0 0 0 0 0 0 0 0 0 0 0 0 0 0 0 0 0 0 0 0 0 0 0 0 0 0 0 0 0 0 0 0 0 0 0 0 0 0 0 0 0 0 0 0 0 0 0 0 0 0 0 0 0 0 0 0 0 0 0 0 0 0 0 0 0 0 0 0 0 0 0 0 0 0 0 0 0 0 0 0 0 0 0 0 0 0 0 0 0 0 0 0 0 0 0 0 0 0 0 0 0 0 0 0 0 0 0 0 0 0 0 0 0 0 0 0 0 0 0 0 0 0 0 0 0 0 0 0 0 0 0 0 0 0 0 0 0 0 0 0 0 0 0 0 0 0 0 0 0 0 0 0 0 0 0 0 0 0 0 0 0 0 0 0 0 0 0 0 0 0 0 0 0 0 0 0 0 0 0 0 0 0 0 0 0 0 0 0 0 0 0 0 0 0 0 0 0 0 0 0 0 0 0 0 0 0 0 0 0 0 0 0 0 0 0 0 0 0 0 0 0 0 0 0 0 0 0 0 0 0 0 0 0 0 0 0 0 0 0 0 0 0 0 0 0 0 0 0 0 0 0 0 0 0 0 0 0 0 0 0 0 0 0 0 0 0 0 0 0 0 0 0 0 0 0 0 0 0 0 0 0 0 0 0 0 0 0 0 0 0 0 0 0 0 0 0 0 0 0 0 0 0 0 0 0 0 0 0 0 0 0 0 0 0 0 0 0 0 0 0 0 0 0 0 0 0 0 0 0 0 0 0 0 0 0 0 0 0 0 0 0 0 0 0 0 0 0 0 0 0 0 0 0 0 0;
#X coords 0 1 999 -1 147 106 1;
#X restore 726 172 graph;
#X obj 545 239 hsl 162 19 1 3.5 0 0 padFilterQ empty Pad\ Filter\ Q-value -2 -10 0 12 #ffc7c6 #000000 #000000 0 1;
#X floatatom 542 264 5 0 0 0 - - - 0;
#X obj 902 71 vradio 19 1 0 8 empty empty empty 0 -10 0 12 #fcfcfc #000000 #000000 0;
#X obj 285 655 cnv 19 600 200 empty empty Lead 20 12 0 14 #feffc6 #404040 0;
#X connect 3 0 4 0;
#X connect 6 0 7 0;
#X connect 15 0 16 0;
#X connect 17 0 18 0;
#X connect 31 0 35 0;
#X connect 37 0 31 0;
#X connect 38 0 31 0;
#X connect 39 0 31 0;
#X connect 40 0 31 0;
#X connect 41 0 42 0;
#X connect 51 0 53 0;
#X connect 52 0 54 0;
#X connect 56 0 57 0;
