#N canvas 573 32 939 849 12;
#X floatatom 276 247 5 0 0 0 - - - 0;
#X msg 53 167 60;
#X floatatom 35 102 5 0 0 0 - - - 0;
#X msg 91 167 61;
#X msg 131 167 62;
#X msg 171 167 63;
#X msg 211 167 64;
#X msg 251 167 65;
#X msg 288 167 66;
#X msg 323 167 67;
#X msg 363 167 68;
#X msg 403 167 69;
#X msg 443 167 70;
#X msg 483 167 71;
#X msg 517 167 72;
#X obj 298 283 mtof;
#X floatatom 298 319 5 0 0 0 - - - 0;
#X obj 276 420 outlet;
#X obj 103 60 key;
#X obj 104 100 sel 97 119 115 101 100 102 116 103 121 104 117 106 107
;
#X obj 345 334 tgl 15 0 empty midion/off MIDI\\\ on/off 17 7 0 10 #fcfcfc
#000000 #000000 0 1;
#X obj 276 373 spigot;
#X obj 346 260 loadbang;
#X msg 346 284 1;
#X connect 0 0 15 0;
#X connect 0 0 21 0;
#X connect 1 0 0 0;
#X connect 3 0 0 0;
#X connect 4 0 0 0;
#X connect 5 0 0 0;
#X connect 6 0 0 0;
#X connect 7 0 0 0;
#X connect 8 0 0 0;
#X connect 9 0 0 0;
#X connect 10 0 0 0;
#X connect 11 0 0 0;
#X connect 12 0 0 0;
#X connect 13 0 0 0;
#X connect 14 0 0 0;
#X connect 15 0 16 0;
#X connect 18 0 2 0;
#X connect 18 0 19 0;
#X connect 19 0 1 0;
#X connect 19 1 3 0;
#X connect 19 2 4 0;
#X connect 19 3 5 0;
#X connect 19 4 6 0;
#X connect 19 5 7 0;
#X connect 19 6 8 0;
#X connect 19 7 9 0;
#X connect 19 8 10 0;
#X connect 19 9 11 0;
#X connect 19 10 12 0;
#X connect 19 11 13 0;
#X connect 19 12 14 0;
#X connect 20 0 21 1;
#X connect 21 0 17 0;
#X connect 22 0 23 0;
#X connect 23 0 20 0;
