#N canvas 0 49 1440 699 12;
#X declare -lib iemnet;
#X declare -lib mrpeach;
#X text 137 48 change the port;
#N canvas 3 45 450 300 get.info 0;
#X text 29 31 NOTE outlet #2 is for compatibility with mrpeach's net objects. you can get all info (and more) via outlet #3 as well.;
#X obj 40 95 inlet outlet#3;
#X obj 40 119 route address;
#X floatatom 190 177 3 0 0 0 - - - 0;
#X floatatom 217 177 3 0 0 0 - - - 0;
#X floatatom 244 177 3 0 0 0 - - - 0;
#X floatatom 271 177 3 0 0 0 - - - 0;
#X text 147 176 from;
#X floatatom 299 177 5 0 0 0 - - - 0;
#X obj 190 151 unpack 0 0 0 0 0;
#X obj 35 213 route port;
#X floatatom 197 245 5 0 0 0 - - - 0;
#X text 236 244 listening port;
#X connect 1 0 2 0;
#X connect 2 0 9 0;
#X connect 2 1 10 0;
#X connect 9 0 3 0;
#X connect 9 1 4 0;
#X connect 9 2 5 0;
#X connect 9 3 6 0;
#X connect 9 4 8 0;
#X connect 10 0 11 0;
#X restore 416 75 pd get.info;
#X obj 47 361 bng 19 250 50 0 empty empty empty 0 -10 0 12 #fcfcfc #000000 #000000;
#X obj 76 362 bng 19 250 50 0 empty empty empty 0 -10 0 12 #fcfcfc #000000 #000000;
#X obj 104 362 bng 19 250 50 0 empty empty empty 0 -10 0 12 #fcfcfc #000000 #000000;
#X obj 42 294 route C Dm Em F G Am Bm;
#X obj 138 361 bng 19 250 50 0 empty empty empty 0 -10 0 12 #fcfcfc #000000 #000000;
#X obj 170 363 bng 19 250 50 0 empty empty empty 0 -10 0 12 #fcfcfc #000000 #000000;
#X obj 201 363 bng 19 250 50 0 empty empty empty 0 -10 0 12 #fcfcfc #000000 #000000;
#X obj 239 364 bng 19 250 50 0 empty empty empty 0 -10 0 12 #fcfcfc #000000 #000000;
#X msg 23 239 C;
#X msg 56 234 Dm;
#X msg 93 239 Em;
#X msg 131 240 F;
#X msg 168 238 G;
#X msg 204 238 Am;
#X msg 246 242 Bm;
#X obj 540 456 osc~;
#X obj 537 427 osc~;
#X obj 541 482 osc~;
#X obj 579 431 *~;
#X obj 589 465 *~;
#X obj 589 496 *~;
#X obj 354 600 dac~;
#X obj 374 424 mtof;
#X obj 376 452 mtof;
#X obj 374 481 mtof;
#X obj 22 172 print symbol;
#X floatatom 140 162 5 0 0 0 - - - 0;
#X obj 157 194 route 69 65 70 67 71;
#X obj 126 132 unpack f;
#X obj 274 22 declare -lib iemnet;
#X msg 34 531 60;
#X msg 32 559 64;
#X msg 33 588 67;
#X msg 71 532 62;
#X msg 69 560 65;
#X msg 70 589 69;
#X msg 109 534 64;
#X msg 107 562 67;
#X msg 108 591 71;
#X msg 151 531 65;
#X msg 149 559 69;
#X msg 150 588 72;
#X msg 192 532 67;
#X msg 190 560 71;
#X msg 191 589 74;
#X msg 247 536 69;
#X msg 245 564 72;
#X msg 246 593 76;
#X msg 292 533 71;
#X msg 290 561 74;
#X msg 291 590 77;
#X obj 516 342 hsl 162 19 0 1 0 0 empty empty empty -2 -10 0 12 #fcfcfc #000000 #000000 0 1;
#X obj 738 181 tgl 19 0 b empty empty 0 -10 0 12 #fcfcfc #000000 #000000 0 1;
#X obj 674 305 tgl 15 0 empty empty connected 20 7 0 8 #14e814 #e8e828 #000000 0 1;
#X floatatom 719 544 3 0 0 0 - - - 0;
#X floatatom 753 544 3 0 0 0 - - - 0;
#X floatatom 789 544 3 0 0 0 - - - 0;
#X floatatom 825 544 3 0 0 0 - - - 0;
#X obj 719 516 unpack 0 0 0 0 0;
#X floatatom 865 544 6 0 0 0 - - - 0;
#X obj 719 490 route ourIP;
#X obj 659 59 declare -lib mrpeach;
#X obj 701 218 send /toggle \$1;
#X msg 880 242 toggle/ \$1;
#X obj 705 251 receive /toggle \$1;
#X obj 457 279 mrpeach/udpsend 8000;
#X msg 62 50 port 9000;
#X obj 62 91 iemnet/udpreceive 3333;
#X msg 470 162 connect 127.0.0.1 3334;
#X connect 2 0 32 0;
#X connect 2 0 34 0;
#X connect 2 0 33 0;
#X connect 3 0 35 0;
#X connect 3 0 37 0;
#X connect 3 0 36 0;
#X connect 4 0 38 0;
#X connect 4 0 40 0;
#X connect 4 0 39 0;
#X connect 5 0 2 0;
#X connect 5 1 3 0;
#X connect 5 2 4 0;
#X connect 5 3 6 0;
#X connect 5 4 7 0;
#X connect 5 5 8 0;
#X connect 5 6 9 0;
#X connect 6 0 41 0;
#X connect 6 0 43 0;
#X connect 6 0 42 0;
#X connect 7 0 44 0;
#X connect 7 0 46 0;
#X connect 7 0 45 0;
#X connect 8 0 47 0;
#X connect 8 0 49 0;
#X connect 8 0 48 0;
#X connect 9 0 50 0;
#X connect 9 0 52 0;
#X connect 9 0 51 0;
#X connect 10 0 5 0;
#X connect 11 0 5 0;
#X connect 12 0 5 0;
#X connect 13 0 5 0;
#X connect 14 0 5 0;
#X connect 15 0 5 0;
#X connect 16 0 5 0;
#X connect 17 0 21 0;
#X connect 18 0 20 0;
#X connect 19 0 22 0;
#X connect 20 0 23 0;
#X connect 20 0 23 1;
#X connect 21 0 23 0;
#X connect 21 0 23 1;
#X connect 22 0 23 0;
#X connect 22 0 23 1;
#X connect 24 0 18 0;
#X connect 25 0 17 0;
#X connect 26 0 19 0;
#X connect 28 0 29 0;
#X connect 29 0 12 0;
#X connect 29 1 15 0;
#X connect 29 2 13 0;
#X connect 29 3 10 0;
#X connect 29 4 14 0;
#X connect 30 0 28 0;
#X connect 32 0 24 0;
#X connect 33 0 25 0;
#X connect 34 0 26 0;
#X connect 35 0 24 0;
#X connect 36 0 25 0;
#X connect 37 0 26 0;
#X connect 38 0 24 0;
#X connect 39 0 25 0;
#X connect 40 0 26 0;
#X connect 41 0 24 0;
#X connect 42 0 25 0;
#X connect 43 0 26 0;
#X connect 44 0 24 0;
#X connect 45 0 25 0;
#X connect 46 0 26 0;
#X connect 47 0 24 0;
#X connect 48 0 25 0;
#X connect 49 0 26 0;
#X connect 50 0 24 0;
#X connect 51 0 25 0;
#X connect 52 0 26 0;
#X connect 53 0 20 1;
#X connect 53 0 21 1;
#X connect 53 0 22 1;
#X connect 54 0 64 0;
#X connect 60 0 56 0;
#X connect 60 1 57 0;
#X connect 60 2 58 0;
#X connect 60 3 59 0;
#X connect 60 4 61 0;
#X connect 62 0 60 0;
#X connect 66 0 67 0;
#X connect 67 0 55 0;
#X connect 67 1 62 0;
#X connect 68 0 69 0;
#X connect 69 0 27 0;
#X connect 69 0 30 0;
#X connect 69 2 1 0;
#X connect 70 0 67 0;
