#N canvas 563 25 877 631 12;
#X declare -lib Gem;
#X obj 11 6 declare -lib Gem;
#N canvas 337 534 450 300 sun 0;
#X obj 33 4 r sun;
#X obj 26 68 translateXYZ;
#X obj 26 92 rotateXYZ;
#X obj 26 116 part_render;
#X obj 26 225 sphere;
#X obj 34 34 scale;
#X floatatom 95 15 18 0 4.5 0 - sunscale - 0;
#X obj 166 58 tgl 19 0 empty rotationsun empty 0 -10 0 12 #fcfcfc #000000 #000000 0 1;
#X obj 166 82 t f f;
#X obj 166 106 metro 25;
#X obj 166 130 i;
#X obj 233 129 % 360;
#X obj 197 130 + 1;
#X floatatom 166 154 5 0 0 0 - - - 0;
#X msg 48 195 draw line;
#X msg 48 171 draw points;
#X obj 146 197 bng 19 250 50 0 empty sunrecive empty 0 -10 0 12 #fcfcfc #000000 #000000;
#X obj 149 220 bng 19 250 50 0 empty sunline empty 0 -10 0 12 #fcfcfc #000000 #000000;
#X msg 183 202 1 1 0;
#X obj 257 174 loadbang;
#X connect 0 0 5 0;
#X connect 1 0 2 0;
#X connect 2 0 3 0;
#X connect 3 0 4 0;
#X connect 5 0 1 0;
#X connect 6 0 5 1;
#X connect 7 0 8 0;
#X connect 8 0 9 0;
#X connect 9 0 10 0;
#X connect 10 0 12 0;
#X connect 10 0 13 0;
#X connect 11 0 10 1;
#X connect 12 0 11 0;
#X connect 13 0 2 3;
#X connect 13 0 2 2;
#X connect 14 0 4 0;
#X connect 15 0 4 0;
#X connect 16 0 15 0;
#X connect 17 0 14 0;
#X connect 19 0 14 0;
#X connect 19 0 18 0;
#X restore 4 545 pd sun;
#X msg 280 35 1 \, create;
#X obj 341 63 gemwin;
#X msg 356 34 0 \, destroy;
#X obj 435 94 tgl 19 0 start empty start 0 -10 0 12 #fcfcfc #000000 #000000 0 1;
#N canvas 18 254 653 300 particles 1;
#X obj 17 39 gemhead;
#X obj 17 63 part_head;
#X obj 17 87 part_size 1.5;
#X obj 17 201 separator;
#X obj 17 225 s sun;
#X obj 77 6 loadbang;
#X obj 24 9 tgl 19 0 empty empty empty 0 -10 0 12 #fcfcfc #000000 #000000 0 1;
#X obj 129 70 hsl 162 19 0 4.5 0 0 empty sunscale empty -2 -10 0 12 #fcfcfc #000000 #000000 0 1;
#X obj 17 135 part_velocity;
#X msg 161 43 1;
#X obj 206 33 loadbang;
#X obj 90 225 s roation1;
#X obj 170 226 s roation2;
#X obj 90 201 separator;
#X obj 170 202 separator;
#X obj 252 200 separator;
#X obj 252 224 s roation3;
#X obj 333 199 separator;
#X obj 333 223 s roation4;
#X obj 170 142 hsl 162 19 0 1 0 0 empty empty empty -2 -10 0 12 #fcfcfc #000000 #000000 0 1;
#X obj 16 111 part_source, f 17;
#X obj 168 99 hsl 162 19 0.0001 10 0 0 empty empty empty -2 -10 0 12 #fcfcfc #000000 #000000 0 1;
#X obj 312 39 hsl 162 19 0 1 0 0 empty empty empty -2 -10 0 12 #fcfcfc #000000 #000000 0 1;
#X obj 401 65 loadbang;
#X obj 17 159 part_killold 4;
#X obj 415 200 separator;
#X obj 415 224 s roation5;
#X obj 494 199 separator;
#X obj 494 223 s roation6;
#X msg 360 84 0.001;
#X connect 0 0 1 0;
#X connect 1 0 2 0;
#X connect 2 0 20 0;
#X connect 3 0 4 0;
#X connect 5 0 6 0;
#X connect 6 0 0 0;
#X connect 7 0 2 1;
#X connect 8 0 24 0;
#X connect 9 0 7 0;
#X connect 10 0 9 0;
#X connect 13 0 11 0;
#X connect 14 0 12 0;
#X connect 15 0 16 0;
#X connect 17 0 18 0;
#X connect 19 0 20 3;
#X connect 20 0 8 0;
#X connect 21 0 20 1;
#X connect 22 0 8 2;
#X connect 23 0 29 0;
#X connect 24 0 3 0;
#X connect 24 0 15 0;
#X connect 24 0 17 0;
#X connect 24 0 25 0;
#X connect 24 0 27 0;
#X connect 25 0 26 0;
#X connect 27 0 28 0;
#X connect 29 0 21 0;
#X restore 14 450 pd particles;
#N canvas 567 230 450 448 rotation1 0;
#X obj 16 132 scale;
#X obj 19 181 rotateXYZ;
#X obj 19 205 s poly1;
#X obj 72 84 hsl 162 19 0 4.5 0 0 empty sizepoly1 empty -2 -10 0 12 #fcfcfc #000000 #000000 0 1;
#X obj 130 29 loadbang;
#X msg 130 53 1;
#X obj 254 31 tgl 19 0 empty rotationp1 empty 0 -10 0 12 #fcfcfc #000000 #000000 0 1;
#X obj 254 55 t f f;
#X obj 254 79 metro 25;
#X obj 254 103 i;
#X obj 321 102 % 360;
#X obj 285 103 + 1;
#X floatatom 254 127 5 0 0 0 - - - 0;
#X obj 12 17 r roation1;
#X connect 0 0 1 0;
#X connect 1 0 2 0;
#X connect 3 0 0 1;
#X connect 4 0 5 0;
#X connect 5 0 3 0;
#X connect 6 0 7 0;
#X connect 7 0 8 0;
#X connect 8 0 9 0;
#X connect 9 0 11 0;
#X connect 9 0 12 0;
#X connect 10 0 9 1;
#X connect 11 0 10 0;
#X connect 12 0 1 3;
#X connect 12 0 1 2;
#X connect 12 0 1 1;
#X connect 13 0 0 0;
#X restore 15 474 pd rotation1;
#N canvas 826 183 450 300 rotation2 0;
#X obj 17 102 scale;
#X obj 20 181 rotateXYZ;
#X obj 73 84 hsl 162 19 0 4.5 0 0 empty sizepoly2 empty -2 -10 0 12 #fcfcfc #000000 #000000 0 1;
#X obj 131 29 loadbang;
#X msg 131 53 1;
#X obj 255 31 tgl 19 0 empty rotationp2 empty 0 -10 0 12 #fcfcfc #000000 #000000 0 1;
#X obj 255 55 t f f;
#X obj 255 79 metro 25;
#X obj 255 103 i;
#X obj 322 102 % 360;
#X obj 286 103 + 1;
#X floatatom 255 127 5 0 0 0 - - - 0;
#X obj 20 205 s poly2;
#X obj 13 17 r roation1;
#X connect 0 0 1 0;
#X connect 1 0 12 0;
#X connect 2 0 0 1;
#X connect 3 0 4 0;
#X connect 4 0 2 0;
#X connect 5 0 6 0;
#X connect 6 0 7 0;
#X connect 7 0 8 0;
#X connect 8 0 10 0;
#X connect 8 0 11 0;
#X connect 9 0 8 1;
#X connect 10 0 9 0;
#X connect 11 0 1 3;
#X connect 11 0 1 2;
#X connect 11 0 1 1;
#X connect 13 0 0 0;
#X restore 9 520 pd rotation2;
#X obj 246 597 cnv 19 200 250 empty empty empty 35 17 0 12 #e0e0e0 #404040 0;
#X obj 260 664 hsl 162 19 0 4.5 0 0 sizepoly2 empty Size\ P2 -2 -10 0 12 #fcfcfc #000000 #000000 0 1;
#X obj 255 704 bng 19 250 50 0 yellowp2 empty yellow 30 10 0 12 #fcfcfc #000000 #000000;
#X obj 255 736 bng 19 250 50 0 pinkp2 empty pink 30 10 0 12 #fcfcfc #000000 #000000;
#X obj 360 768 bng 19 250 50 0 redp2 empty red 30 10 0 12 #fcfcfc #000000 #000000;
#X obj 255 768 bng 19 250 50 0 turcoisep2 empty turcoise 30 10 0 12 #fcfcfc #000000 #000000;
#X obj 360 704 bng 19 250 50 0 greenp2 empty green 30 10 0 12 #fcfcfc #000000 #000000;
#X obj 360 736 bng 19 250 50 0 bluep2 empty blue 30 10 0 12 #fcfcfc #000000 #000000;
#X obj 255 800 bng 19 250 50 0 linep2 empty line 30 10 0 12 #fcfcfc #000000 #000000;
#X obj 360 800 bng 19 250 50 0 pointsp2 empty points 30 10 0 12 #fcfcfc #000000 #000000;
#X obj 261 613 tgl 19 0 rotationp2 empty Rotation\ Start 30 15 0 12 #fcfcfc #000000 #000000 0 1;
#X obj 27 595 cnv 19 200 250 empty empty empty 35 17 0 12 #e0e0e0 #404040 0;
#X obj 48 657 hsl 162 19 0 4.5 0 0 sizepoly1 empty Size\ P1 -2 -10 0 12 #fcfcfc #000000 #000000 0 1;
#X obj 46 695 bng 19 250 50 0 yellowp1 empty yellow 30 10 0 12 #fcfcfc #000000 #000000;
#X obj 46 729 bng 19 250 50 0 pinkp1 empty pink 30 10 0 12 #fcfcfc #000000 #000000;
#X obj 144 765 bng 19 250 50 0 redp1 empty red 30 10 0 12 #fcfcfc #000000 #000000;
#X obj 46 763 bng 19 250 50 0 turcoisep1 empty turcoise 30 10 0 12 #fcfcfc #000000 #000000;
#X obj 144 697 bng 19 250 50 0 greenp1 empty green 30 10 0 12 #fcfcfc #000000 #000000;
#X obj 144 731 bng 19 250 50 0 bluep1 empty blue 30 10 0 12 #fcfcfc #000000 #000000;
#X obj 47 800 bng 19 250 50 0 linep1 empty line 30 10 0 12 #fcfcfc #000000 #000000;
#X obj 141 803 bng 19 250 50 0 pointsp1 empty points 30 10 0 12 #fcfcfc #000000 #000000;
#X obj 43 608 tgl 19 0 rotationp1 empty Rotation\ Start 30 15 0 12 #fcfcfc #000000 #000000 0 1;
#N canvas 256 177 492 561 poly12 0;
#X obj 11 20 r poly1;
#X obj 11 44 part_render;
#X obj 11 68 color;
#X msg 205 21 1 1 0;
#X msg 206 45 1 0 1;
#X msg 207 94 0 1 1;
#X msg 207 70 1 0 0;
#X msg 207 145 0 0 1;
#X msg 208 119 0 1 0;
#X obj 261 21 bng 19 250 50 0 empty yellowp1 empty 0 -10 0 12 #fcfcfc #000000 #000000;
#X obj 261 47 bng 19 250 50 0 empty pinkp1 empty 0 -10 0 12 #fcfcfc #000000 #000000;
#X obj 261 73 bng 19 250 50 0 empty redp1 empty 0 -10 0 12 #fcfcfc #000000 #000000;
#X obj 260 97 bng 19 250 50 0 empty turcoisep1 empty 0 -10 0 12 #fcfcfc #000000 #000000;
#X obj 254 123 bng 19 250 50 0 empty greenp1 empty 0 -10 0 12 #fcfcfc #000000 #000000;
#X obj 264 151 bng 19 250 50 0 empty bluep1 empty 0 -10 0 12 #fcfcfc #000000 #000000;
#X obj 17 110 polygon 6, f 16;
#X msg 34 167 draw line;
#X msg 32 205 draw points;
#X obj 133 209 bng 19 250 50 0 empty pointsp1 empty 0 -10 0 12 #fcfcfc #000000 #000000;
#X obj 121 170 bng 19 250 50 0 empty linep1 empty 0 -10 0 12 #fcfcfc #000000 #000000;
#X obj 164 194 loadbang;
#N canvas 0 29 1063 576 vertex 0;
#X obj 21 63 random 4;
#X obj 103 65 random 4;
#X obj 21 92 - 2;
#X obj 81 88 - 2;
#X floatatom 21 118 5 0 0 0 - - - 0;
#X floatatom 82 116 5 0 0 0 - - - 0;
#X obj 82 139 t b f;
#X obj 31 181 pack \$1 \$2 \$3;
#X obj 31 214 outlet;
#X obj 178 68 random 4;
#X obj 260 70 random 4;
#X obj 260 94 - 2;
#X floatatom 178 123 5 0 0 0 - - - 0;
#X floatatom 261 122 5 0 0 0 - - - 0;
#X obj 261 145 t b f;
#X obj 188 186 pack \$1 \$2 \$3;
#X obj 188 219 outlet;
#X obj 335 69 random 4;
#X obj 417 71 random 4;
#X obj 417 95 - 2;
#X floatatom 335 124 5 0 0 0 - - - 0;
#X floatatom 418 123 5 0 0 0 - - - 0;
#X obj 418 146 t b f;
#X obj 345 187 pack \$1 \$2 \$3;
#X obj 343 238 outlet;
#X obj 487 72 random 4;
#X obj 569 74 random 4;
#X obj 569 98 - 2;
#X floatatom 487 127 5 0 0 0 - - - 0;
#X floatatom 570 126 5 0 0 0 - - - 0;
#X obj 570 149 t b f;
#X obj 497 190 pack \$1 \$2 \$3;
#X obj 497 223 outlet;
#X obj 637 69 random 4;
#X obj 719 71 random 4;
#X obj 719 95 - 2;
#X floatatom 637 124 5 0 0 0 - - - 0;
#X floatatom 720 123 5 0 0 0 - - - 0;
#X obj 720 146 t b f;
#X obj 647 187 pack \$1 \$2 \$3;
#X obj 647 220 outlet;
#X obj 798 69 random 4;
#X obj 880 71 random 4;
#X obj 880 95 - 2;
#X floatatom 798 124 5 0 0 0 - - - 0;
#X floatatom 881 123 5 0 0 0 - - - 0;
#X obj 881 146 t b f;
#X obj 808 187 pack \$1 \$2 \$3;
#X obj 807 239 outlet;
#X obj 34 245 s pack1;
#N canvas 313 59 450 466 packs 0;
#X obj 46 39 unpack \$1 \$2 \$3;
#X obj 15 72 value x1;
#X obj 84 74 value x2;
#X obj 161 78 value x3;
#X obj 46 15 r pack1;
#X obj 72 155 unpack \$1 \$2 \$3;
#X obj 72 131 r pack7;
#X obj 20 199 expr ($f1 == x1);
#X obj 20 223 sel 1;
#X obj 20 247 bng 19 250 50 0 empty empty empty 0 -10 0 12 #fcfcfc #000000 #000000;
#X obj 138 224 sel 1;
#X obj 138 248 bng 19 250 50 0 empty empty empty 0 -10 0 12 #fcfcfc #000000 #000000;
#X obj 258 225 sel 1;
#X obj 258 249 bng 19 250 50 0 empty empty empty 0 -10 0 12 #fcfcfc #000000 #000000;
#X obj 138 200 expr ($f1 == x2);
#X obj 258 201 expr ($f1 == x3);
#X connect 0 0 1 0;
#X connect 0 1 2 0;
#X connect 0 2 3 0;
#X connect 4 0 0 0;
#X connect 5 0 7 0;
#X connect 5 1 14 0;
#X connect 6 0 5 0;
#X connect 7 0 8 0;
#X connect 8 0 9 0;
#X connect 10 0 11 0;
#X connect 12 0 13 0;
#X connect 14 0 10 0;
#X connect 15 0 12 0;
#X restore 395 286 pd packs;
#X obj 184 245 s pack2;
#X obj 345 211 s pack3;
#X obj 496 250 s pack4;
#X obj 647 244 s pack5;
#X obj 808 211 s pack6;
#X obj 26 348 random 4;
#X obj 108 350 random 4;
#X obj 108 374 - 2;
#X floatatom 26 403 5 0 0 0 - - - 0;
#X floatatom 109 402 5 0 0 0 - - - 0;
#X obj 109 425 t b f;
#X obj 36 466 pack \$1 \$2 \$3;
#X obj 36 499 outlet;
#X obj 183 353 random 4;
#X obj 265 355 random 4;
#X obj 265 379 - 2;
#X floatatom 183 408 5 0 0 0 - - - 0;
#X floatatom 266 407 5 0 0 0 - - - 0;
#X obj 266 430 t b f;
#X obj 193 471 pack \$1 \$2 \$3;
#X obj 193 504 outlet;
#X obj 340 354 random 4;
#X obj 422 356 random 4;
#X obj 422 380 - 2;
#X floatatom 340 409 5 0 0 0 - - - 0;
#X floatatom 423 408 5 0 0 0 - - - 0;
#X obj 423 431 t b f;
#X obj 350 472 pack \$1 \$2 \$3;
#X obj 348 523 outlet;
#X obj 492 357 random 4;
#X obj 574 359 random 4;
#X obj 574 383 - 2;
#X floatatom 492 412 5 0 0 0 - - - 0;
#X floatatom 575 411 5 0 0 0 - - - 0;
#X obj 575 434 t b f;
#X obj 502 475 pack \$1 \$2 \$3;
#X obj 502 508 outlet;
#X obj 642 354 random 4;
#X obj 724 356 random 4;
#X obj 724 380 - 2;
#X floatatom 642 409 5 0 0 0 - - - 0;
#X floatatom 725 408 5 0 0 0 - - - 0;
#X obj 725 431 t b f;
#X obj 652 472 pack \$1 \$2 \$3;
#X obj 652 505 outlet;
#X obj 803 354 random 4;
#X obj 885 356 random 4;
#X obj 885 380 - 2;
#X floatatom 803 409 5 0 0 0 - - - 0;
#X floatatom 886 408 5 0 0 0 - - - 0;
#X obj 886 431 t b f;
#X obj 813 472 pack \$1 \$2 \$3;
#X obj 812 524 outlet;
#X obj 39 530 s pack7;
#X obj 189 530 s pack8;
#X obj 350 496 s pack9;
#X obj 501 535 s pack10;
#X obj 652 529 s pack11;
#X obj 813 496 s pack12;
#X obj 181 99 - 2;
#X obj 335 98 - 2;
#X obj 486 96 - 2;
#X obj 645 95 - 2;
#X obj 798 94 - 2;
#X obj 28 373 - 2;
#X obj 183 379 - 2;
#X obj 336 380 - 2;
#X obj 494 381 - 2;
#X obj 638 380 - 2;
#X obj 802 381 - 2;
#X floatatom 129 114 5 0 0 0 - - - 0;
#X obj 129 137 t b f;
#X floatatom 283 257 5 0 0 0 - - - 0;
#X obj 283 280 t b f;
#X obj 562 9 hsl 162 19 0 1000 0 0 empty empty empty -2 -10 0 12 #fcfcfc #000000 #000000 0 1;
#X obj 365 27 metro 400;
#X floatatom 498 15 5 0 0 0 - - - 0;
#X obj 936 279 tgl 19 0 empty empty empty 0 -10 0 12 #fcfcfc #000000 #000000 0 1;
#X connect 0 0 2 0;
#X connect 1 0 3 0;
#X connect 2 0 4 0;
#X connect 3 0 5 0;
#X connect 4 0 7 0;
#X connect 5 0 6 0;
#X connect 6 0 7 0;
#X connect 6 1 7 1;
#X connect 7 0 8 0;
#X connect 7 0 49 0;
#X connect 9 0 110 0;
#X connect 10 0 11 0;
#X connect 11 0 13 0;
#X connect 12 0 15 0;
#X connect 13 0 14 0;
#X connect 14 0 15 0;
#X connect 14 1 15 1;
#X connect 15 0 16 0;
#X connect 15 0 51 0;
#X connect 17 0 111 0;
#X connect 18 0 19 0;
#X connect 19 0 21 0;
#X connect 20 0 23 0;
#X connect 21 0 22 0;
#X connect 22 0 23 0;
#X connect 22 1 23 1;
#X connect 23 0 24 0;
#X connect 23 0 52 0;
#X connect 25 0 112 0;
#X connect 26 0 27 0;
#X connect 27 0 29 0;
#X connect 28 0 31 0;
#X connect 29 0 30 0;
#X connect 30 0 31 0;
#X connect 30 1 31 1;
#X connect 31 0 32 0;
#X connect 31 0 53 0;
#X connect 33 0 113 0;
#X connect 34 0 35 0;
#X connect 35 0 37 0;
#X connect 36 0 39 0;
#X connect 37 0 38 0;
#X connect 38 0 39 0;
#X connect 38 1 39 1;
#X connect 39 0 40 0;
#X connect 39 0 54 0;
#X connect 41 0 114 0;
#X connect 42 0 43 0;
#X connect 43 0 45 0;
#X connect 44 0 47 0;
#X connect 45 0 46 0;
#X connect 46 0 47 0;
#X connect 46 1 47 1;
#X connect 47 0 48 0;
#X connect 47 0 55 0;
#X connect 56 0 115 0;
#X connect 57 0 58 0;
#X connect 58 0 60 0;
#X connect 59 0 62 0;
#X connect 60 0 61 0;
#X connect 61 0 62 0;
#X connect 61 1 62 1;
#X connect 62 0 63 0;
#X connect 62 0 104 0;
#X connect 64 0 116 0;
#X connect 65 0 66 0;
#X connect 66 0 68 0;
#X connect 67 0 70 0;
#X connect 68 0 69 0;
#X connect 69 0 70 0;
#X connect 69 1 70 1;
#X connect 70 0 71 0;
#X connect 70 0 105 0;
#X connect 72 0 117 0;
#X connect 73 0 74 0;
#X connect 74 0 76 0;
#X connect 75 0 78 0;
#X connect 76 0 77 0;
#X connect 77 0 78 0;
#X connect 77 1 78 1;
#X connect 78 0 79 0;
#X connect 78 0 106 0;
#X connect 80 0 118 0;
#X connect 81 0 82 0;
#X connect 82 0 84 0;
#X connect 83 0 86 0;
#X connect 84 0 85 0;
#X connect 85 0 86 0;
#X connect 85 1 86 1;
#X connect 86 0 87 0;
#X connect 86 0 107 0;
#X connect 88 0 119 0;
#X connect 89 0 90 0;
#X connect 90 0 92 0;
#X connect 91 0 94 0;
#X connect 92 0 93 0;
#X connect 93 0 94 0;
#X connect 93 1 94 1;
#X connect 94 0 95 0;
#X connect 94 0 108 0;
#X connect 96 0 120 0;
#X connect 97 0 98 0;
#X connect 98 0 100 0;
#X connect 99 0 102 0;
#X connect 100 0 101 0;
#X connect 101 0 102 0;
#X connect 101 1 102 1;
#X connect 102 0 103 0;
#X connect 102 0 109 0;
#X connect 110 0 12 0;
#X connect 111 0 20 0;
#X connect 112 0 28 0;
#X connect 113 0 36 0;
#X connect 114 0 44 0;
#X connect 115 0 59 0;
#X connect 116 0 67 0;
#X connect 117 0 75 0;
#X connect 118 0 83 0;
#X connect 119 0 91 0;
#X connect 120 0 99 0;
#X connect 121 0 122 0;
#X connect 122 0 7 0;
#X connect 122 0 15 0;
#X connect 122 0 23 0;
#X connect 122 0 31 0;
#X connect 122 0 39 0;
#X connect 122 0 47 0;
#X connect 122 1 7 2;
#X connect 122 1 15 2;
#X connect 122 1 23 2;
#X connect 122 1 31 2;
#X connect 122 1 39 2;
#X connect 122 1 47 2;
#X connect 123 0 124 0;
#X connect 124 0 62 0;
#X connect 124 0 70 0;
#X connect 124 0 78 0;
#X connect 124 0 86 0;
#X connect 124 0 94 0;
#X connect 124 0 102 0;
#X connect 124 1 62 2;
#X connect 124 1 70 2;
#X connect 124 1 78 2;
#X connect 124 1 86 2;
#X connect 124 1 94 2;
#X connect 124 1 102 2;
#X connect 125 0 127 0;
#X connect 126 0 0 0;
#X connect 126 0 42 0;
#X connect 126 0 41 0;
#X connect 126 0 34 0;
#X connect 126 0 33 0;
#X connect 126 0 26 0;
#X connect 126 0 25 0;
#X connect 126 0 18 0;
#X connect 126 0 17 0;
#X connect 126 0 10 0;
#X connect 126 0 9 0;
#X connect 126 0 1 0;
#X connect 126 0 56 0;
#X connect 126 0 97 0;
#X connect 126 0 96 0;
#X connect 126 0 89 0;
#X connect 126 0 88 0;
#X connect 126 0 81 0;
#X connect 126 0 80 0;
#X connect 126 0 73 0;
#X connect 126 0 72 0;
#X connect 126 0 65 0;
#X connect 126 0 64 0;
#X connect 126 0 57 0;
#X connect 127 0 126 1;
#X connect 128 0 126 0;
#X restore 201 219 pd vertex;
#X f 36;
#X obj 31 320 part_render;
#X obj 31 344 color;
#X msg 225 297 1 1 0;
#X msg 226 321 1 0 1;
#X msg 227 370 0 1 1;
#X msg 227 346 1 0 0;
#X msg 227 421 0 0 1;
#X msg 228 395 0 1 0;
#X obj 281 297 bng 19 250 50 0 empty yellowp2 empty 0 -10 0 12 #fcfcfc #000000 #000000;
#X obj 281 323 bng 19 250 50 0 empty pinkp2 empty 0 -10 0 12 #fcfcfc #000000 #000000;
#X obj 281 349 bng 19 250 50 0 empty redp2 empty 0 -10 0 12 #fcfcfc #000000 #000000;
#X obj 280 373 bng 19 250 50 0 empty turcoisep2 empty 0 -10 0 12 #fcfcfc #000000 #000000;
#X obj 274 399 bng 19 250 50 0 empty greenp2 empty 0 -10 0 12 #fcfcfc #000000 #000000;
#X obj 284 427 bng 19 250 50 0 empty bluep2 empty 0 -10 0 12 #fcfcfc #000000 #000000;
#X obj 32 400 polygon 6, f 16;
#X msg 54 443 draw line;
#X msg 52 481 draw points;
#X obj 153 485 bng 19 250 50 0 empty pointsp2 empty 0 -10 0 12 #fcfcfc #000000 #000000;
#X obj 141 446 bng 19 250 50 0 empty linep2 empty 0 -10 0 12 #fcfcfc #000000 #000000;
#X obj 184 470 loadbang;
#X obj 31 296 r poly2;
#X connect 0 0 1 0;
#X connect 1 0 2 0;
#X connect 1 0 15 0;
#X connect 2 0 15 0;
#X connect 3 0 2 1;
#X connect 4 0 2 1;
#X connect 5 0 2 1;
#X connect 6 0 2 1;
#X connect 7 0 2 1;
#X connect 8 0 2 1;
#X connect 9 0 3 0;
#X connect 10 0 4 0;
#X connect 11 0 6 0;
#X connect 12 0 5 0;
#X connect 13 0 8 0;
#X connect 14 0 7 0;
#X connect 16 0 15 0;
#X connect 17 0 15 0;
#X connect 18 0 17 0;
#X connect 19 0 16 0;
#X connect 20 0 16 0;
#X connect 21 0 15 1;
#X connect 21 1 15 2;
#X connect 21 2 15 3;
#X connect 21 3 15 4;
#X connect 21 4 15 5;
#X connect 21 5 15 6;
#X connect 21 6 36 1;
#X connect 21 7 36 2;
#X connect 21 8 36 3;
#X connect 21 9 36 4;
#X connect 21 10 36 5;
#X connect 21 11 36 6;
#X connect 22 0 23 0;
#X connect 23 0 36 0;
#X connect 24 0 23 1;
#X connect 25 0 23 1;
#X connect 26 0 23 1;
#X connect 27 0 23 1;
#X connect 28 0 23 1;
#X connect 29 0 23 1;
#X connect 30 0 24 0;
#X connect 31 0 25 0;
#X connect 32 0 27 0;
#X connect 33 0 26 0;
#X connect 34 0 29 0;
#X connect 35 0 28 0;
#X connect 37 0 36 0;
#X connect 38 0 36 0;
#X connect 39 0 38 0;
#X connect 40 0 37 0;
#X connect 41 0 37 0;
#X connect 42 0 22 0;
#X restore 16 497 pd poly12;
#X obj 28 153 cnv 19 200 150 empty empty empty 20 12 0 12 #e0e0e0 #404040 0;
#X obj 48 220 hsl 162 19 0 4.5 0 0 sunscale empty Sun\ Size -2 -10 0 12 #fcfcfc #000000 #000000 0 1;
#X obj 143 258 bng 19 250 50 0 sunline empty Line 30 10 0 12 #fcfcfc #000000 #000000;
#X obj 47 258 bng 19 250 50 0 sunrecive empty Points 30 10 0 12 #fcfcfc #000000 #000000;
#X obj 48 172 tgl 19 0 rotationsun empty Rotation\ Start 30 10 0 12 #fcfcfc #000000 #000000 0 1;
#X obj 242 155 cnv 19 200 250 empty empty empty 35 17 0 12 #e0e0e0 #404040 0;
#X obj 273 218 hsl 162 19 0 4.5 0 0 sizepoly3 empty Size\ P3 -2 -10 0 12 #fcfcfc #000000 #000000 0 1;
#X obj 261 255 bng 19 250 50 0 yellowp3 empty yellow 30 10 0 12 #fcfcfc #000000 #000000;
#X obj 261 289 bng 19 250 50 0 pinkp3 empty pink 30 10 0 12 #fcfcfc #000000 #000000;
#X obj 359 325 bng 19 250 50 0 redp3 empty red 30 10 0 12 #fcfcfc #000000 #000000;
#X obj 261 323 bng 19 250 50 0 turcoisep3 empty turcoise 30 10 0 12 #fcfcfc #000000 #000000;
#X obj 359 257 bng 19 250 50 0 greenp3 empty green 30 10 0 12 #fcfcfc #000000 #000000;
#X obj 359 291 bng 19 250 50 0 bluep3 empty blue 30 10 0 12 #fcfcfc #000000 #000000;
#X obj 262 360 bng 19 250 50 0 linep3 empty line 30 10 0 12 #fcfcfc #000000 #000000;
#X obj 356 363 bng 19 250 50 0 pointsp3 empty points 30 10 0 12 #fcfcfc #000000 #000000;
#X obj 258 168 tgl 19 0 rotationp3 empty Rotation\ Start 30 15 0 12 #fcfcfc #000000 #000000 0 1;
#N canvas 275 199 450 300 poly1 0;
#X obj 11 44 part_render;
#X obj 11 68 color;
#X msg 205 21 1 1 0;
#X msg 206 45 1 0 1;
#X msg 207 94 0 1 1;
#X msg 207 70 1 0 0;
#X msg 207 145 0 0 1;
#X msg 208 119 0 1 0;
#X obj 261 21 bng 19 250 50 0 empty yellowp3 empty 0 -10 0 12 #fcfcfc #000000 #000000;
#X obj 261 47 bng 19 250 50 0 empty pinkp3 empty 0 -10 0 12 #fcfcfc #000000 #000000;
#X obj 261 73 bng 19 250 50 0 empty redp3 empty 0 -10 0 12 #fcfcfc #000000 #000000;
#X obj 260 97 bng 19 250 50 0 empty turcoisep3 empty 0 -10 0 12 #fcfcfc #000000 #000000;
#X obj 254 123 bng 19 250 50 0 empty greenp3 empty 0 -10 0 12 #fcfcfc #000000 #000000;
#X obj 264 151 bng 19 250 50 0 empty bluep3 empty 0 -10 0 12 #fcfcfc #000000 #000000;
#X obj 12 119 polygon 6, f 16;
#X msg 34 167 draw line;
#X msg 32 205 draw points;
#X obj 133 209 bng 19 250 50 0 empty pointsp3 empty 0 -10 0 12 #fcfcfc #000000 #000000;
#X obj 121 170 bng 19 250 50 0 empty linep3 empty 0 -10 0 12 #fcfcfc #000000 #000000;
#X msg 342 97 1 -2 0;
#X msg 342 122 -1 -2 0;
#X msg 344 147 -2 0 0;
#X msg 344 171 -1 2 0;
#X msg 343 214 2 0 0;
#X msg 345 192 1 2 0;
#X obj 11 20 r poly3;
#X obj 330 35 loadbang;
#X obj 178 209 loadbang;
#X connect 0 0 1 0;
#X connect 1 0 14 0;
#X connect 2 0 1 1;
#X connect 3 0 1 1;
#X connect 4 0 1 1;
#X connect 5 0 1 1;
#X connect 6 0 1 1;
#X connect 7 0 1 1;
#X connect 8 0 2 0;
#X connect 9 0 3 0;
#X connect 10 0 5 0;
#X connect 11 0 4 0;
#X connect 12 0 7 0;
#X connect 13 0 6 0;
#X connect 15 0 14 0;
#X connect 16 0 14 0;
#X connect 17 0 16 0;
#X connect 18 0 15 0;
#X connect 19 0 14 1;
#X connect 20 0 14 2;
#X connect 21 0 14 3;
#X connect 22 0 14 4;
#X connect 23 0 14 6;
#X connect 24 0 14 5;
#X connect 25 0 0 0;
#X connect 26 0 19 0;
#X connect 26 0 24 0;
#X connect 26 0 23 0;
#X connect 26 0 22 0;
#X connect 26 0 21 0;
#X connect 26 0 20 0;
#X connect 27 0 15 0;
#X restore 136 479 pd poly1;
#N canvas 501 293 450 448 rotation3 0;
#X obj 16 132 scale;
#X obj 19 181 rotateXYZ;
#X obj 56 84 hsl 162 19 0 4.5 0 0 empty sizepoly3 empty -2 -10 0 12 #fcfcfc #000000 #000000 0 1;
#X obj 130 29 loadbang;
#X msg 130 53 1;
#X obj 254 31 tgl 19 0 empty rotationp3 empty 0 -10 0 12 #fcfcfc #000000 #000000 0 1;
#X obj 254 55 t f f;
#X obj 254 79 metro 25;
#X obj 254 103 i;
#X obj 321 102 % 360;
#X obj 285 103 + 1;
#X floatatom 254 127 5 0 0 0 - - - 0;
#X obj 12 17 r roation3;
#X obj 19 205 s poly3;
#X obj 162 190 hsl 162 19 0 360 0 0 empty empty empty -2 -10 0 12 #fcfcfc #000000 #000000 0 1;
#X obj 168 262 pipe 200;
#X connect 0 0 1 0;
#X connect 1 0 13 0;
#X connect 2 0 0 1;
#X connect 3 0 4 0;
#X connect 4 0 2 0;
#X connect 5 0 6 0;
#X connect 6 0 7 0;
#X connect 7 0 8 0;
#X connect 8 0 10 0;
#X connect 8 0 11 0;
#X connect 9 0 8 1;
#X connect 10 0 9 0;
#X connect 11 0 15 0;
#X connect 12 0 0 0;
#X connect 14 0 1 2;
#X connect 15 0 1 3;
#X restore 122 510 pd rotation3;
#N canvas 275 199 450 300 poly2 0;
#X obj 11 44 part_render;
#X obj 11 68 color;
#X msg 205 21 1 1 0;
#X msg 206 45 1 0 1;
#X msg 207 94 0 1 1;
#X msg 207 70 1 0 0;
#X msg 207 145 0 0 1;
#X msg 208 119 0 1 0;
#X obj 261 21 bng 19 250 50 0 empty yellowp4 empty 0 -10 0 12 #fcfcfc #000000 #000000;
#X obj 261 47 bng 19 250 50 0 empty pinkp4 empty 0 -10 0 12 #fcfcfc #000000 #000000;
#X obj 261 73 bng 19 250 50 0 empty redp4 empty 0 -10 0 12 #fcfcfc #000000 #000000;
#X obj 260 97 bng 19 250 50 0 empty turcoisep4 empty 0 -10 0 12 #fcfcfc #000000 #000000;
#X obj 254 123 bng 19 250 50 0 empty greenp4 empty 0 -10 0 12 #fcfcfc #000000 #000000;
#X obj 264 151 bng 19 250 50 0 empty bluep4 empty 0 -10 0 12 #fcfcfc #000000 #000000;
#X obj 17 125 polygon 6, f 16;
#X msg 34 167 draw line;
#X msg 32 205 draw points;
#X obj 133 209 bng 19 250 50 0 empty pointsp4 empty 0 -10 0 12 #fcfcfc #000000 #000000;
#X obj 121 170 bng 19 250 50 0 empty linep4 empty 0 -10 0 12 #fcfcfc #000000 #000000;
#X msg 342 97 1 -2 0;
#X msg 342 122 -1 -2 0;
#X msg 344 147 -2 0 0;
#X msg 344 171 -1 2 0;
#X msg 343 214 2 0 0;
#X msg 345 192 1 2 0;
#X obj 330 35 loadbang;
#X obj 11 20 r poly4;
#X obj 192 223 loadbang;
#X connect 0 0 1 0;
#X connect 0 0 14 0;
#X connect 1 0 14 0;
#X connect 2 0 1 1;
#X connect 3 0 1 1;
#X connect 4 0 1 1;
#X connect 5 0 1 1;
#X connect 6 0 1 1;
#X connect 7 0 1 1;
#X connect 8 0 2 0;
#X connect 9 0 3 0;
#X connect 10 0 5 0;
#X connect 11 0 4 0;
#X connect 12 0 7 0;
#X connect 13 0 6 0;
#X connect 15 0 14 0;
#X connect 16 0 14 0;
#X connect 17 0 16 0;
#X connect 18 0 15 0;
#X connect 19 0 14 1;
#X connect 20 0 14 2;
#X connect 21 0 14 3;
#X connect 22 0 14 4;
#X connect 23 0 14 6;
#X connect 24 0 14 5;
#X connect 25 0 19 0;
#X connect 25 0 24 0;
#X connect 25 0 23 0;
#X connect 25 0 22 0;
#X connect 25 0 21 0;
#X connect 25 0 20 0;
#X connect 26 0 0 0;
#X connect 27 0 15 0;
#X restore 232 480 pd poly2;
#N canvas 567 230 450 448 rotation4 0;
#X obj 16 132 scale;
#X obj 19 181 rotateXYZ;
#X obj 72 84 hsl 162 19 0 4.5 0 0 empty sizepoly4 empty -2 -10 0 12 #fcfcfc #000000 #000000 0 1;
#X obj 130 29 loadbang;
#X msg 130 53 1;
#X obj 254 31 tgl 19 0 empty rotationp4 empty 0 -10 0 12 #fcfcfc #000000 #000000 0 1;
#X obj 254 55 t f f;
#X obj 254 79 metro 25;
#X obj 254 103 i;
#X obj 321 102 % 360;
#X obj 285 103 + 1;
#X floatatom 254 127 5 0 0 0 - - - 0;
#X obj 12 17 r roation4;
#X obj 19 205 s poly4;
#X obj 125 214 hsl 162 19 0 360 0 0 empty empty empty -2 -10 0 12 #fcfcfc #000000 #000000 0 1;
#X connect 0 0 1 0;
#X connect 1 0 13 0;
#X connect 2 0 0 1;
#X connect 3 0 4 0;
#X connect 4 0 2 0;
#X connect 5 0 6 0;
#X connect 6 0 7 0;
#X connect 7 0 8 0;
#X connect 8 0 10 0;
#X connect 8 0 11 0;
#X connect 9 0 8 1;
#X connect 10 0 9 0;
#X connect 11 0 1 3;
#X connect 12 0 0 0;
#X connect 14 0 1 2;
#X restore 218 511 pd rotation4;
#X obj 448 156 cnv 19 200 250 empty empty empty 35 17 0 12 #e0e0e0 #404040 0;
#X obj 469 218 hsl 162 19 0 4.5 0 0 sizepoly4 empty Size\ P3 -2 -10 0 12 #fcfcfc #000000 #000000 0 1;
#X obj 467 256 bng 19 250 50 0 yellowp4 empty yellow 30 10 0 12 #fcfcfc #000000 #000000;
#X obj 467 290 bng 19 250 50 0 pinkp4 empty pink 30 10 0 12 #fcfcfc #000000 #000000;
#X obj 565 326 bng 19 250 50 0 redp4 empty red 30 10 0 12 #fcfcfc #000000 #000000;
#X obj 467 324 bng 19 250 50 0 turcoisep4 empty turcoise 30 10 0 12 #fcfcfc #000000 #000000;
#X obj 565 258 bng 19 250 50 0 greenp4 empty green 30 10 0 12 #fcfcfc #000000 #000000;
#X obj 565 292 bng 19 250 50 0 bluep4 empty blue 30 10 0 12 #fcfcfc #000000 #000000;
#X obj 468 361 bng 19 250 50 0 linep4 empty line 30 10 0 12 #fcfcfc #000000 #000000;
#X obj 562 364 bng 19 250 50 0 pointsp4 empty points 30 10 0 12 #fcfcfc #000000 #000000;
#X obj 464 169 tgl 19 0 rotationp4 empty Rotation\ Start 30 15 0 12 #fcfcfc #000000 #000000 0 1;
#X obj 657 158 cnv 19 200 250 empty empty empty 35 17 0 12 #e0e0e0 #404040 0;
#X obj 678 220 hsl 162 19 0 4.5 0 0 sizepoly5 empty Size\ P5 -2 -10 0 12 #fcfcfc #000000 #000000 0 1;
#X obj 676 258 bng 19 250 50 0 yellowp5 empty yellow 30 10 0 12 #fcfcfc #000000 #000000;
#X obj 676 292 bng 19 250 50 0 pinkp5 empty pink 30 10 0 12 #fcfcfc #000000 #000000;
#X obj 774 328 bng 19 250 50 0 redp5 empty red 30 10 0 12 #fcfcfc #000000 #000000;
#X obj 676 326 bng 19 250 50 0 turcoisep5 empty turcoise 30 10 0 12 #fcfcfc #000000 #000000;
#X obj 774 260 bng 19 250 50 0 greenp5 empty green 30 10 0 12 #fcfcfc #000000 #000000;
#X obj 774 294 bng 19 250 50 0 bluep5 empty blue 30 10 0 12 #fcfcfc #000000 #000000;
#X obj 677 363 bng 19 250 50 0 linep5 empty line 30 10 0 12 #fcfcfc #000000 #000000;
#X obj 771 366 bng 19 250 50 0 pointsp5 empty points 30 10 0 12 #fcfcfc #000000 #000000;
#X obj 673 171 tgl 19 0 rotationp5 empty Rotation\ Start 30 15 0 12 #fcfcfc #000000 #000000 0 1;
#X obj 860 158 cnv 19 200 250 empty empty empty 35 17 0 12 #e0e0e0 #404040 0;
#X obj 881 220 hsl 162 19 0 4.5 0 0 sizepoly6 empty Size\ P3 -2 -10 0 12 #fcfcfc #000000 #000000 0 1;
#X obj 879 258 bng 19 250 50 0 yellowp6 empty yellow 30 10 0 12 #fcfcfc #000000 #000000;
#X obj 879 292 bng 19 250 50 0 pinkp6 empty pink 30 10 0 12 #fcfcfc #000000 #000000;
#X obj 977 328 bng 19 250 50 0 redp6 empty red 30 10 0 12 #fcfcfc #000000 #000000;
#X obj 879 326 bng 19 250 50 0 turcoisep6 empty turcoise 30 10 0 12 #fcfcfc #000000 #000000;
#X obj 977 260 bng 19 250 50 0 greenp6 empty green 30 10 0 12 #fcfcfc #000000 #000000;
#X obj 977 294 bng 19 250 50 0 bluep6 empty blue 30 10 0 12 #fcfcfc #000000 #000000;
#X obj 880 363 bng 19 250 50 0 linep6 empty line 30 10 0 12 #fcfcfc #000000 #000000;
#X obj 974 366 bng 19 250 50 0 pointsp6 empty points 30 10 0 12 #fcfcfc #000000 #000000;
#X obj 876 171 tgl 19 0 rotationp6 empty Rotation\ Start 30 15 0 12 #fcfcfc #000000 #000000 0 1;
#X obj 1067 158 cnv 19 200 250 empty empty empty 35 17 0 12 #e0e0e0 #404040 0;
#X obj 1088 220 hsl 162 19 0 4.5 0 0 sizepoly4 empty Size\ P3 -2 -10 0 12 #fcfcfc #000000 #000000 0 1;
#X obj 1086 258 bng 19 250 50 0 yellowp4 empty yellow 30 10 0 12 #fcfcfc #000000 #000000;
#X obj 1086 292 bng 19 250 50 0 pinkp4 empty pink 30 10 0 12 #fcfcfc #000000 #000000;
#X obj 1184 328 bng 19 250 50 0 redp4 empty red 30 10 0 12 #fcfcfc #000000 #000000;
#X obj 1086 326 bng 19 250 50 0 turcoisep4 empty turcoise 30 10 0 12 #fcfcfc #000000 #000000;
#X obj 1184 260 bng 19 250 50 0 greenp4 empty green 30 10 0 12 #fcfcfc #000000 #000000;
#X obj 1184 294 bng 19 250 50 0 bluep4 empty blue 30 10 0 12 #fcfcfc #000000 #000000;
#X obj 1087 363 bng 19 250 50 0 linep4 empty line 30 10 0 12 #fcfcfc #000000 #000000;
#X obj 1181 366 bng 19 250 50 0 pointsp4 empty points 30 10 0 12 #fcfcfc #000000 #000000;
#X obj 1083 171 tgl 19 0 rotationp4 empty Rotation\ Start 30 15 0 12 #fcfcfc #000000 #000000 0 1;
#N canvas 275 199 450 300 poly3 0;
#X obj 11 44 part_render;
#X obj 11 68 color;
#X msg 205 21 1 1 0;
#X msg 206 45 1 0 1;
#X msg 207 94 0 1 1;
#X msg 207 70 1 0 0;
#X msg 207 145 0 0 1;
#X msg 208 119 0 1 0;
#X obj 261 21 bng 19 250 50 0 empty yellowp5 empty 0 -10 0 12 #fcfcfc #000000 #000000;
#X obj 261 47 bng 19 250 50 0 empty pinkp5 empty 0 -10 0 12 #fcfcfc #000000 #000000;
#X obj 261 73 bng 19 250 50 0 empty redp5 empty 0 -10 0 12 #fcfcfc #000000 #000000;
#X obj 260 97 bng 19 250 50 0 empty turcoisep5 empty 0 -10 0 12 #fcfcfc #000000 #000000;
#X obj 254 123 bng 19 250 50 0 empty greenp5 empty 0 -10 0 12 #fcfcfc #000000 #000000;
#X obj 264 151 bng 19 250 50 0 empty bluep5 empty 0 -10 0 12 #fcfcfc #000000 #000000;
#X obj 17 125 polygon 6, f 16;
#X msg 34 167 draw line;
#X msg 32 205 draw points;
#X obj 133 209 bng 19 250 50 0 empty pointsp5 empty 0 -10 0 12 #fcfcfc #000000 #000000;
#X obj 121 170 bng 19 250 50 0 empty linep5 empty 0 -10 0 12 #fcfcfc #000000 #000000;
#X msg 342 97 1 -2 0;
#X msg 342 122 -1 -2 0;
#X msg 344 147 -2 0 0;
#X msg 344 171 -1 2 0;
#X msg 343 214 2 0 0;
#X msg 345 192 1 2 0;
#X obj 330 35 loadbang;
#X obj 192 223 loadbang;
#X obj 11 20 r poly5;
#X connect 0 0 1 0;
#X connect 0 0 14 0;
#X connect 1 0 14 0;
#X connect 2 0 1 1;
#X connect 3 0 1 1;
#X connect 4 0 1 1;
#X connect 5 0 1 1;
#X connect 6 0 1 1;
#X connect 7 0 1 1;
#X connect 8 0 2 0;
#X connect 9 0 3 0;
#X connect 10 0 5 0;
#X connect 11 0 4 0;
#X connect 12 0 7 0;
#X connect 13 0 6 0;
#X connect 15 0 14 0;
#X connect 16 0 14 0;
#X connect 17 0 16 0;
#X connect 18 0 15 0;
#X connect 19 0 14 1;
#X connect 20 0 14 2;
#X connect 21 0 14 3;
#X connect 22 0 14 4;
#X connect 23 0 14 6;
#X connect 24 0 14 5;
#X connect 25 0 19 0;
#X connect 25 0 24 0;
#X connect 25 0 23 0;
#X connect 25 0 22 0;
#X connect 25 0 21 0;
#X connect 25 0 20 0;
#X connect 26 0 15 0;
#X connect 27 0 0 0;
#X restore 338 476 pd poly3;
#X obj 546 44 tgl 19 0 empty empty empty 0 -10 0 12 #fcfcfc #000000 #000000 0 1;
#X obj 546 68 pipe 50;
#X obj 615 69 pipe 100;
#N canvas 275 199 450 300 poly4 0;
#X obj 11 44 part_render;
#X obj 11 68 color;
#X msg 205 21 1 1 0;
#X msg 206 45 1 0 1;
#X msg 207 94 0 1 1;
#X msg 207 70 1 0 0;
#X msg 207 145 0 0 1;
#X msg 208 119 0 1 0;
#X obj 261 21 bng 19 250 50 0 empty yellowp6 empty 0 -10 0 12 #fcfcfc #000000 #000000;
#X obj 261 47 bng 19 250 50 0 empty pinkp6 empty 0 -10 0 12 #fcfcfc #000000 #000000;
#X obj 261 73 bng 19 250 50 0 empty redp6 empty 0 -10 0 12 #fcfcfc #000000 #000000;
#X obj 260 97 bng 19 250 50 0 empty turcoisep6 empty 0 -10 0 12 #fcfcfc #000000 #000000;
#X obj 254 123 bng 19 250 50 0 empty greenp6 empty 0 -10 0 12 #fcfcfc #000000 #000000;
#X obj 264 151 bng 19 250 50 0 empty bluep6 empty 0 -10 0 12 #fcfcfc #000000 #000000;
#X obj 17 125 polygon 6, f 16;
#X msg 34 167 draw line;
#X msg 32 205 draw points;
#X obj 133 209 bng 19 250 50 0 empty pointsp6 empty 0 -10 0 12 #fcfcfc #000000 #000000;
#X obj 121 170 bng 19 250 50 0 empty linep6 empty 0 -10 0 12 #fcfcfc #000000 #000000;
#X msg 342 97 1 -2 0;
#X msg 342 122 -1 -2 0;
#X msg 344 147 -2 0 0;
#X msg 344 171 -1 2 0;
#X msg 343 214 2 0 0;
#X msg 345 192 1 2 0;
#X obj 330 35 loadbang;
#X obj 192 223 loadbang;
#X obj 11 20 r poly6;
#X connect 0 0 1 0;
#X connect 0 0 14 0;
#X connect 1 0 14 0;
#X connect 2 0 1 1;
#X connect 3 0 1 1;
#X connect 4 0 1 1;
#X connect 5 0 1 1;
#X connect 6 0 1 1;
#X connect 7 0 1 1;
#X connect 8 0 2 0;
#X connect 9 0 3 0;
#X connect 10 0 5 0;
#X connect 11 0 4 0;
#X connect 12 0 7 0;
#X connect 13 0 6 0;
#X connect 15 0 14 0;
#X connect 16 0 14 0;
#X connect 17 0 16 0;
#X connect 18 0 15 0;
#X connect 19 0 14 1;
#X connect 20 0 14 2;
#X connect 21 0 14 3;
#X connect 22 0 14 4;
#X connect 23 0 14 6;
#X connect 24 0 14 5;
#X connect 25 0 19 0;
#X connect 25 0 24 0;
#X connect 25 0 23 0;
#X connect 25 0 22 0;
#X connect 25 0 21 0;
#X connect 25 0 20 0;
#X connect 26 0 15 0;
#X connect 27 0 0 0;
#X restore 434 472 pd poly4;
#N canvas 567 230 450 448 rotation6 0;
#X obj 16 132 scale;
#X obj 19 181 rotateXYZ;
#X obj 72 84 hsl 162 19 0 4.5 0 0 empty sizepoly6 empty -2 -10 0 12 #fcfcfc #000000 #000000 0 1;
#X obj 130 29 loadbang;
#X msg 130 53 1;
#X obj 254 31 tgl 19 0 empty rotationp6 empty 0 -10 0 12 #fcfcfc #000000 #000000 0 1;
#X obj 254 55 t f f;
#X obj 254 79 metro 25;
#X obj 254 103 i;
#X obj 321 102 % 360;
#X obj 285 103 + 1;
#X floatatom 254 127 5 0 0 0 - - - 0;
#X obj 12 17 r roation6;
#X obj 19 205 s poly6;
#X connect 0 0 1 0;
#X connect 1 0 13 0;
#X connect 2 0 0 1;
#X connect 3 0 4 0;
#X connect 4 0 2 0;
#X connect 5 0 6 0;
#X connect 6 0 7 0;
#X connect 7 0 8 0;
#X connect 8 0 10 0;
#X connect 8 0 11 0;
#X connect 9 0 8 1;
#X connect 10 0 9 0;
#X connect 11 0 1 3;
#X connect 12 0 0 0;
#X restore 420 503 pd rotation6;
#N canvas 567 230 450 448 rotation5 0;
#X obj 16 132 scale;
#X obj 19 181 rotateXYZ;
#X obj 72 84 hsl 162 19 0 4.5 0 0 empty sizepoly5 empty -2 -10 0 12 #fcfcfc #000000 #000000 0 1;
#X obj 130 29 loadbang;
#X msg 130 53 1;
#X obj 254 31 tgl 19 0 empty rotationp5 empty 0 -10 0 12 #fcfcfc #000000 #000000 0 1;
#X obj 254 55 t f f;
#X obj 254 79 metro 25;
#X obj 254 103 i;
#X obj 321 102 % 360;
#X obj 285 103 + 1;
#X floatatom 254 127 5 0 0 0 - - - 0;
#X obj 12 17 r roation5;
#X obj 19 205 s poly5;
#X connect 0 0 1 0;
#X connect 1 0 13 0;
#X connect 2 0 0 1;
#X connect 3 0 4 0;
#X connect 4 0 2 0;
#X connect 5 0 6 0;
#X connect 6 0 7 0;
#X connect 7 0 8 0;
#X connect 8 0 10 0;
#X connect 8 0 11 0;
#X connect 9 0 8 1;
#X connect 10 0 9 0;
#X connect 11 0 1 3;
#X connect 12 0 0 0;
#X restore 324 507 pd rotation5;
#X obj 685 70 pipe 150;
#X obj 82 349 xy;
#X floatatom 27 332 5 0 0 0 - - - 0;
#X msg 90 317;
#X msg 137 323 140 50;
#X obj 70 410 unpack s f f;
#X floatatom 188 429 5 0 0 0 - - - 0;
#X floatatom 233 429 5 0 0 0 - - - 0;
#X msg 293 96 dim 500 2000;
#X connect 2 0 3 0;
#X connect 4 0 3 0;
#X connect 97 0 47 0;
#X connect 97 0 98 0;
#X connect 97 0 99 0;
#X connect 97 0 103 0;
#X connect 98 0 62 0;
#X connect 99 0 73 0;
#X connect 103 0 84 0;
#X connect 104 0 108 0;
#X connect 105 0 104 1;
#X connect 106 0 104 1;
#X connect 107 0 104 1;
#X connect 108 1 109 0;
#X connect 108 2 110 0;
#X connect 111 0 3 0;
